<?xml version="1.0" encoding="utf-8"?>
<!-- Generator: Adobe Illustrator 19.1.0, SVG Export Plug-In . SVG Version: 6.00 Build 0)  -->
<svg version="1.1" id="Layer_1" xmlns="http://www.w3.org/2000/svg" xmlns:xlink="http://www.w3.org/1999/xlink" x="0px" y="0px"
	 viewBox="0 0 663.9 297.7" style="enable-background:new 0 0 663.9 297.7;" xml:space="preserve">
<style type="text/css">
	.st0{fill:none;stroke:#0D923F;stroke-width:2;stroke-miterlimit:10;}
	.st1{fill:#0D923F;}
	.st2{fill:#C42420;stroke:#C42420;stroke-miterlimit:10;}
	.st3{fill:#C42420;}
	.st4{fill:#0C7F99;}
	.st5{fill:none;stroke:#0C7F99;stroke-miterlimit:10;}
</style>
<line class="st0" x1="329.7" y1="114.9" x2="329.1" y2="157.3"/>
<polygon class="st1" points="334.9,115.7 323.9,115.7 329.4,106.2 "/>
<line class="st0" x1="282.7" y1="131.6" x2="312.2" y2="162.1"/>
<polygon class="st1" points="286.9,128.5 279.2,136.3 276.3,125.7 "/>
<circle class="st1" cx="328.3" cy="177.9" r="3.2"/>
<line class="st0" x1="265.4" y1="177" x2="307.8" y2="177.7"/>
<polygon class="st1" points="266.1,171.8 266.2,182.8 256.7,177.4 "/>
<line class="st0" x1="281.1" y1="222" x2="311.5" y2="192.5"/>
<polygon class="st1" points="278,217.8 285.8,225.5 275.2,228.4 "/>
<line class="st0" x1="326.9" y1="241.7" x2="327.5" y2="199.3"/>
<polygon class="st1" points="321.7,240.9 332.6,240.9 327.2,250.4 "/>
<line class="st0" x1="373.9" y1="225" x2="344.4" y2="194.6"/>
<polygon class="st1" points="369.7,228.1 377.4,220.3 380.2,230.9 "/>
<line class="st0" x1="391.2" y1="178.6" x2="348.8" y2="177.9"/>
<polygon class="st1" points="390.4,183.8 390.4,172.8 399.9,178.2 "/>
<line class="st0" x1="374.5" y1="133.6" x2="344" y2="163.1"/>
<polygon class="st1" points="377.6,137.8 369.8,130.1 380.4,127.2 "/>
<line class="st2" x1="123.1" y1="146.6" x2="123.8" y2="104.2"/>
<polygon class="st3" points="117.9,145.8 128.9,145.8 123.5,155.3 "/>
<line class="st2" x1="99.8" y1="154.1" x2="70.3" y2="123.7"/>
<polygon class="st3" points="95.6,157.3 103.3,149.5 106.2,160.1 "/>
<circle class="st3" cx="122.3" cy="175.9" r="3.2"/>
<line class="st2" x1="93.1" y1="175.6" x2="50.7" y2="175"/>
<polygon class="st3" points="92.3,180.8 92.2,169.8 101.8,175.3 "/>
<line class="st2" x1="99.6" y1="196.9" x2="69.2" y2="226.4"/>
<polygon class="st3" points="102.7,201.1 95,193.4 105.5,190.5 "/>
<line class="st2" x1="121.5" y1="206" x2="120.8" y2="248.4"/>
<polygon class="st3" points="126.6,206.8 115.7,206.8 121.1,197.3 "/>
<line class="st2" x1="144.7" y1="198.5" x2="174.2" y2="228.9"/>
<polygon class="st3" points="149,195.3 141.2,203.1 138.4,192.6 "/>
<line class="st2" x1="151.5" y1="176" x2="193.9" y2="176.7"/>
<polygon class="st3" points="152.3,170.8 152.3,181.8 142.8,176.3 "/>
<line class="st2" x1="143.9" y1="154.7" x2="174.4" y2="125.2"/>
<polygon class="st3" points="140.8,150.5 148.6,158.2 138,161.1 "/>
<circle class="st4" cx="539.3" cy="175.9" r="3.2"/>
<line class="st5" x1="510.6" y1="197.9" x2="480.2" y2="227.4"/>
<polygon class="st4" points="513.7,202.1 506,194.4 516.5,191.5 "/>
<line class="st5" x1="590.6" y1="198.9" x2="560.2" y2="228.4"/>
<polygon class="st4" points="593.7,203.1 586,195.4 596.5,192.5 "/>
<line class="st5" x1="510.6" y1="162.9" x2="480.2" y2="192.4"/>
<polygon class="st4" points="513.7,167.1 506,159.4 516.5,156.5 "/>
<line class="st5" x1="590.6" y1="163.9" x2="560.2" y2="193.4"/>
<polygon class="st4" points="593.7,168.1 586,160.4 596.5,157.5 "/>
<line class="st5" x1="511.6" y1="127.9" x2="481.2" y2="157.4"/>
<polygon class="st4" points="514.7,132.1 507,124.4 517.5,121.5 "/>
<line class="st5" x1="591.6" y1="128.9" x2="561.2" y2="158.4"/>
<polygon class="st4" points="594.7,133.1 587,125.4 597.5,122.5 "/>
<line class="st5" x1="550.6" y1="198.9" x2="520.2" y2="228.4"/>
<polygon class="st4" points="553.7,203.1 546,195.4 556.5,192.5 "/>
<line class="st5" x1="551.6" y1="128.9" x2="521.2" y2="158.4"/>
<polygon class="st4" points="554.7,133.1 547,125.4 557.5,122.5 "/>
<path class="st1" d="M308.7,56.7c0-1-0.8-1.7-1.7-1.7s-1.7,0.8-1.7,1.7c0,1,0.8,1.7,1.7,1.7S308.7,57.7,308.7,56.7z M273.3,44.8
	h18.1l-9,18.1L273.3,44.8z M293.3,43.2l0.2-0.5c0-0.2,0-0.3-0.8-0.3H270c-0.8,0-0.8,0-0.8,0.3l0.2,0.5l11.1,22.2
	c0.2,0.4,0.3,0.6,0.9,0.6s0.7-0.2,0.9-0.6L293.3,43.2z"/>
<path class="st1" d="M335.7,44.8c-0.4,0.4-1.6,1.5-1.6,2c0,0.3,0.3,0.6,0.6,0.6c0.3,0,0.4-0.2,0.7-0.5c0.8-1,1.7-1.6,2.4-2
	c0.3-0.2,0.6-0.3,0.6-0.7c0-0.3-0.3-0.5-0.5-0.6c-0.9-0.6-1.2-1.5-1.3-1.9c-0.1-0.3-0.2-0.7-0.7-0.7c-0.2,0-0.6,0.1-0.6,0.6
	c0,0.3,0.2,1.1,0.8,2h-11.1c-0.6,0-1.1,0-1.1,0.6c0,0.6,0.6,0.6,1.1,0.6H335.7z"/>
<path class="st1" d="M335.2,52.5c0.2-0.5,0.4-0.8,2.4-0.8v-1.4c-1.2,0.1-1.3,0.1-2.6,0.1c-0.9,0-1,0-2.8-0.1v1.4
	c0.9,0,1.6,0.2,1.6,0.4c0,0,0,0.1-0.2,0.4l-3.9,8.5l-4.2-9.3h1.8v-1.4c-0.8,0.1-3.1,0.1-4,0.1c-1,0-2.9,0-3.7-0.1v1.4h2.1l5.8,12.6
	c0.3,0.6,0.4,0.8,1.1,0.8c0.5,0,0.8-0.1,1.1-0.7L335.2,52.5z"/>
<path class="st1" d="M369.3,57.4c0.6-0.3,0.7-0.5,0.7-0.7c0-0.2-0.1-0.4-0.7-0.7l-17.8-8.2c-0.4-0.2-0.5-0.2-0.6-0.2
	c-0.4,0-0.6,0.3-0.6,0.6c0,0.4,0.3,0.5,0.7,0.7l16.9,7.8l-17,7.8c-0.7,0.3-0.7,0.5-0.7,0.7c0,0.3,0.2,0.6,0.6,0.6
	c0.1,0,0.1,0,0.6-0.2L369.3,57.4z"/>
<path class="st1" d="M389.9,65c-1.1,0-3.2-0.6-3.8-4.2c-0.4-2-0.4-4.5-0.4-6.8c0-2.7,0-5.1,0.5-7.1c0.6-2.2,2.2-3.2,3.7-3.2
	c1.3,0,3.2,0.8,3.8,3.6c0.4,1.9,0.4,4.5,0.4,6.7c0,2.2,0,4.7-0.4,6.7C393.2,64.3,391.1,65,389.9,65z M396.6,54.4
	c0-2.7-0.2-5.4-1.4-7.9c-1.4-2.7-3.7-3.5-5.3-3.5c-1.9,0-4.2,1-5.5,3.7c-0.9,2.1-1.3,4.1-1.3,7.7c0,3.2,0.2,5.6,1.4,7.9
	c1.3,2.5,3.6,3.3,5.3,3.3c2.9,0,4.5-1.7,5.5-3.6C396.6,59.5,396.6,56.3,396.6,54.4z"/>
<path class="st3" d="M99.7,56.7c0-1-0.8-1.7-1.7-1.7s-1.7,0.8-1.7,1.7c0,1,0.8,1.7,1.7,1.7S99.7,57.7,99.7,56.7z M64.3,44.8h18.1
	l-9,18.1L64.3,44.8z M84.3,43.2l0.2-0.5c0-0.2,0-0.3-0.8-0.3H61c-0.8,0-0.8,0-0.8,0.3l0.2,0.5l11.1,22.2c0.2,0.4,0.3,0.6,0.9,0.6
	c0.6,0,0.7-0.2,0.9-0.6L84.3,43.2z"/>
<path class="st3" d="M126.7,44.8c-0.4,0.4-1.6,1.5-1.6,2c0,0.3,0.3,0.6,0.6,0.6c0.3,0,0.4-0.2,0.7-0.5c0.8-1,1.7-1.6,2.4-2
	c0.3-0.2,0.6-0.3,0.6-0.7c0-0.3-0.3-0.5-0.5-0.6c-0.9-0.6-1.2-1.5-1.3-1.9c-0.1-0.3-0.2-0.7-0.7-0.7c-0.2,0-0.6,0.1-0.6,0.6
	c0,0.3,0.2,1.1,0.8,2h-11.1c-0.6,0-1.1,0-1.1,0.6c0,0.6,0.6,0.6,1.1,0.6H126.7z"/>
<path class="st3" d="M126.2,52.5c0.2-0.5,0.4-0.8,2.4-0.8v-1.4c-1.2,0.1-1.3,0.1-2.6,0.1c-0.9,0-1,0-2.8-0.1v1.4
	c0.9,0,1.6,0.2,1.6,0.4c0,0,0,0.1-0.2,0.4l-3.9,8.5l-4.2-9.3h1.8v-1.4c-0.8,0.1-3.1,0.1-4,0.1c-1,0-2.9,0-3.7-0.1v1.4h2.1l5.8,12.6
	c0.3,0.6,0.4,0.8,1.1,0.8c0.5,0,0.8-0.1,1.1-0.7L126.2,52.5z"/>
<path class="st3" d="M160.3,48.9c0.6-0.3,0.7-0.5,0.7-0.7c0-0.4-0.3-0.6-0.6-0.6c-0.1,0-0.1,0-0.6,0.2L142,56
	c-0.6,0.3-0.7,0.5-0.7,0.7c0,0.2,0,0.4,0.7,0.7l17.8,8.2c0.4,0.2,0.5,0.2,0.6,0.2c0.4,0,0.6-0.3,0.6-0.6c0-0.2-0.1-0.4-0.7-0.7
	l-17-7.8L160.3,48.9z"/>
<path class="st3" d="M180.9,65c-1.1,0-3.2-0.6-3.8-4.2c-0.4-2-0.4-4.5-0.4-6.8c0-2.7,0-5.1,0.5-7.1c0.6-2.2,2.2-3.2,3.7-3.2
	c1.3,0,3.2,0.8,3.8,3.6c0.4,1.9,0.4,4.5,0.4,6.7c0,2.2,0,4.7-0.4,6.7C184.2,64.3,182.1,65,180.9,65z M187.6,54.4
	c0-2.7-0.2-5.4-1.4-7.9c-1.4-2.7-3.7-3.5-5.3-3.5c-1.9,0-4.2,1-5.5,3.7c-0.9,2.1-1.3,4.1-1.3,7.7c0,3.2,0.2,5.6,1.4,7.9
	c1.3,2.5,3.6,3.3,5.3,3.3c2.9,0,4.5-1.7,5.5-3.6C187.6,59.5,187.6,56.3,187.6,54.4z"/>
<path class="st4" d="M510.7,56c0-1-0.8-1.7-1.7-1.7s-1.7,0.8-1.7,1.7c0,1,0.8,1.7,1.7,1.7S510.7,57,510.7,56z M475.3,44.1h18.1
	l-9,18.1L475.3,44.1z M495.3,42.5l0.2-0.5c0-0.2,0-0.3-0.8-0.3H472c-0.8,0-0.8,0-0.8,0.3l0.2,0.5l11.1,22.2c0.2,0.4,0.3,0.6,0.9,0.6
	s0.7-0.2,0.9-0.6L495.3,42.5z"/>
<path class="st4" d="M537.7,44.1c-0.4,0.4-1.6,1.5-1.6,2c0,0.3,0.3,0.6,0.6,0.6c0.3,0,0.4-0.2,0.7-0.5c0.8-1,1.7-1.6,2.4-2
	c0.3-0.2,0.6-0.3,0.6-0.7c0-0.3-0.3-0.5-0.5-0.6c-0.9-0.6-1.2-1.5-1.3-1.9c-0.1-0.3-0.2-0.7-0.7-0.7c-0.2,0-0.6,0.1-0.6,0.6
	c0,0.3,0.2,1.1,0.8,2h-11.1c-0.6,0-1.1,0-1.1,0.6c0,0.6,0.6,0.6,1.1,0.6H537.7z"/>
<path class="st4" d="M537.2,51.8c0.2-0.5,0.4-0.8,2.4-0.8v-1.4c-1.2,0.1-1.3,0.1-2.6,0.1c-0.9,0-1,0-2.8-0.1V51
	c0.9,0,1.6,0.2,1.6,0.4c0,0,0,0.1-0.2,0.4l-3.9,8.5l-4.2-9.3h1.8v-1.4c-0.8,0.1-3.1,0.1-4,0.1c-1,0-2.9,0-3.7-0.1V51h2.1l5.8,12.6
	c0.3,0.6,0.4,0.8,1.1,0.8c0.5,0,0.8-0.1,1.1-0.7L537.2,51.8z"/>
<path class="st4" d="M591.9,64.3c-1.1,0-3.2-0.6-3.8-4.2c-0.4-2-0.4-4.5-0.4-6.8c0-2.7,0-5.1,0.5-7.1c0.6-2.2,2.2-3.2,3.7-3.2
	c1.3,0,3.2,0.8,3.8,3.6c0.4,1.9,0.4,4.5,0.4,6.7c0,2.2,0,4.7-0.4,6.7C595.2,63.6,593.1,64.3,591.9,64.3z M598.6,53.7
	c0-2.7-0.2-5.4-1.4-7.9c-1.4-2.7-3.7-3.5-5.3-3.5c-1.9,0-4.2,1-5.5,3.7c-0.9,2.1-1.3,4.1-1.3,7.7c0,3.2,0.2,5.6,1.4,7.9
	c1.3,2.5,3.6,3.3,5.3,3.3c2.9,0,4.5-1.7,5.5-3.6C598.6,58.8,598.6,55.6,598.6,53.7z M571.9,59.7c0.5,0,1.1,0,1.1-0.6
	c0-0.6-0.6-0.6-1.1-0.6h-19.4c-0.5,0-1.1,0-1.1,0.6c0,0.6,0.6,0.6,1.1,0.6H571.9z M571.9,53.6c0.5,0,1.1,0,1.1-0.6
	c0-0.6-0.6-0.6-1.1-0.6h-19.4c-0.5,0-1.1,0-1.1,0.6c0,0.6,0.6,0.6,1.1,0.6H571.9z"/>
</svg>
