<?xml version="1.0" encoding="utf-8"?>
<!-- Generator: Adobe Illustrator 19.1.0, SVG Export Plug-In . SVG Version: 6.00 Build 0)  -->
<svg version="1.1" id="Layer_1" xmlns="http://www.w3.org/2000/svg" xmlns:xlink="http://www.w3.org/1999/xlink" x="0px" y="0px"
	 viewBox="-239 105.5 480 350.5" style="enable-background:new -239 105.5 480 350.5;" xml:space="preserve">
<style type="text/css">
	.st0{fill:none;stroke:#000000;stroke-miterlimit:10;}
	.st1{fill:#0C7F99;}
	.st2{fill:none;stroke:#000000;stroke-width:2;stroke-miterlimit:10;}
	.st3{fill:none;stroke:#C42420;stroke-miterlimit:10;}
</style>
<circle cx="-29.4" cy="378.9" r="7.7"/>
<line class="st0" x1="-29.8" y1="378.4" x2="26.7" y2="378.7"/>
<polygon points="24.6,368.4 41.1,378 24.6,387.5 "/>
<line class="st0" x1="-116.1" y1="379.9" x2="-82.3" y2="379.4"/>
<polygon points="-84.5,369.2 -67.6,378.2 -83.9,388.2 "/>
<line class="st0" x1="57" y1="380.1" x2="157.7" y2="379"/>
<polygon points="155.6,366.2 175.9,378.5 155.2,390 "/>
<path d="M-34.5,209.2c0-2.3-1.1-2.4-1.4-2.4c-0.9,0-1.6,0.9-1.6,1.6c0,0.4,0.3,0.7,0.4,0.8c0.4,0.3,1.3,1.3,1.3,3.1
	c0,1.5-2.1,9.9-6.4,9.9c-2.2,0-2.6-1.8-2.6-3.1c0-1.8,0.8-4.3,1.8-6.9c0.6-1.5,0.7-1.8,0.7-2.5c0-1.5-1.1-2.9-2.8-2.9
	c-3.3,0-4.6,5.2-4.6,5.5l0.4,0.3c0.3,0,0.4-0.1,0.5-0.6c0.9-3.1,2.3-4.4,3.6-4.4c0.3,0,0.9,0,0.9,1.2c0,0.9-0.4,2-0.9,3.3
	c-1.7,4.6-1.7,5.7-1.7,6.5s0.1,2.3,1.2,3.3c1.3,1.1,3.1,1.1,3.4,1.1C-36.5,223-34.5,211.3-34.5,209.2z M-63.4,222.4
	c-3.4,0-3.9-2.6-3.9-4.1c0-1.6,1-5.3,1.5-6.6c0.5-1.1,2.5-4.7,6.2-4.7c3.3,0,4,2.8,4,4.8C-55.6,214.4-57.9,222.4-63.4,222.4z
	 M-55,210.6c-0.2-2-1.5-4.4-4.7-4.4c-5,0-10.2,5.1-10.2,10.8c0,2.2,1.5,6.3,6.4,6.3c8.4,0,12.1-12.3,12.1-17.2
	c0-5.1-2.9-9.1-7.5-9.1c-5.2,0-6.7,4.5-6.7,5.5c0,0.3,0.2,1.1,1.2,1.1c1.3,0,1.8-1.1,1.8-1.8c0-1.1-1.1-1.1-1.6-1.1
	c1.5-2.6,4.2-2.9,5.1-2.9c3.1,0,5.1,2.5,5.1,6.5C-53.9,206.7-54.6,209.3-55,210.6L-55,210.6z"/>
<path d="M-26.4,212.8c0-0.6,0-0.7-0.7-0.7c-1,1-2.2,1.5-4.5,1.5v0.8c0.6,0,1.9,0,3.3-0.6V226c0,0.9-0.1,1.2-2.3,1.2h-0.8v0.8
	c1-0.1,3-0.1,4.1-0.1s3.1,0,4.1,0.1v-0.8H-24c-2.3,0-2.3-0.3-2.3-1.2L-26.4,212.8L-26.4,212.8z"/>
<polyline points="-71.2,237.1 -19.7,237.1 -19.7,238.6 -71.2,238.6 "/>
<path d="M-57.8,271.1c-3.4,0-3.9-2.6-3.9-4.1c0-1.6,1-5.3,1.5-6.6c0.5-1.1,2.5-4.7,6.2-4.7c3.3,0,4,2.8,4,4.8
	C-50,263.1-52.3,271.1-57.8,271.1z M-49.4,259.4c-0.2-2-1.5-4.4-4.7-4.4c-5,0-10.2,5.1-10.2,10.8c0,2.2,1.5,6.3,6.4,6.3
	c8.4,0,12.1-12.3,12.1-17.2c0-5.1-2.9-9.1-7.5-9.1c-5.2,0-6.7,4.5-6.7,5.5c0,0.3,0.2,1.1,1.2,1.1c1.3,0,1.8-1.1,1.8-1.8
	c0-1.1-1.1-1.1-1.6-1.1c1.5-2.6,4.2-2.9,5.1-2.9c3.1,0,5.1,2.5,5.1,6.5C-48.3,255.4-49,258.1-49.4,259.4L-49.4,259.4z"/>
<path d="M-4.5,255.5c0-0.1,0-0.2-0.6-0.8c-3.6-3.6-5.6-9.5-5.6-16.8c0-6.9,1.7-12.9,5.8-17.1c0.4-0.3,0.4-0.4,0.4-0.5l-0.3-0.3
	c-0.5,0-3.4,2.6-5.1,6.1c-1.8,3.6-2.6,7.4-2.6,11.8c0,3.2,0.5,7.4,2.4,11.3c2.1,4.3,5,6.6,5.4,6.6L-4.5,255.5z"/>
<path class="st1" d="M14.5,232.2c-1.1,0.2-1.6,1.1-1.6,1.8c0,0.9,0.7,1.1,1.2,1.1c1.1,0,1.8-0.9,1.8-1.9c0-1.5-1.7-2.2-3.2-2.2
	c-2.2,0-3.4,2.1-3.7,2.8c-0.8-2.7-3-2.8-3.7-2.8c-3.6,0-5.6,4.7-5.6,5.5l0.4,0.3c0.3,0,0.4-0.2,0.4-0.4c1.2-4,3.6-4.7,4.6-4.7
	c1.6,0,1.9,1.5,1.9,2.4c0,0.8-0.2,1.6-0.6,3.3l-1.2,4.9c-0.5,2.1-1.6,4.1-3.5,4.1c-0.2,0-1.1,0-1.8-0.5c1.3-0.3,1.6-1.3,1.6-1.8
	c0-0.7-0.5-1.1-1.2-1.1c-0.9,0-1.8,0.8-1.8,1.9c0,1.5,1.7,2.2,3.2,2.2c1.7,0,2.9-1.4,3.7-2.8c0.6,2.1,2.4,2.8,3.7,2.8
	c3.6,0,5.6-4.7,5.6-5.5l-0.4-0.3c-0.3,0-0.4,0.2-0.5,0.5c-1,3.1-3,4.6-4.6,4.6c-1.3,0-1.9-0.9-1.9-2.4c0-0.8,0.1-1.4,0.7-3.7
	l1.3-4.9c0.5-2.1,1.8-3.7,3.4-3.7C12.7,231.7,13.7,231.7,14.5,232.2z"/>
<path class="st1" d="M23.8,252c-0.8,0-2.5-0.4-3-2.9c-0.3-1.4-0.3-3.6-0.3-4.8c0-1.6,0-3.3,0.3-4.6c0.5-2.4,2.4-2.7,3-2.7
	c0.8,0,2.5,0.4,2.9,2.6c0.3,1.3,0.3,3.1,0.3,4.7c0,1.4,0,3.6-0.3,4.9C26.2,251.7,24.5,252,23.8,252z M29.1,244.6
	c0-2.6-0.3-4.1-1-5.6c-1-2.1-3-2.6-4.3-2.6c-3,0-4.1,2.2-4.4,2.9c-0.9,1.7-0.9,4.1-0.9,5.3c0,1.6,0.1,4,1.2,5.9
	c1.1,1.8,2.9,2.2,4.1,2.2c1.1,0,3.2-0.4,4.4-2.7C29,248.2,29.1,246.1,29.1,244.6z"/>
<path d="M56.7,250.8c-1,1.4-2.4,2.6-4.1,2.6c-0.4,0-2.1-0.1-2.7-1.7h0.4c1.1,0,1.8-0.9,1.8-1.8s-0.7-1.1-1.2-1.1
	c-0.6,0-1.8,0.4-1.8,2.2s1.5,3.1,3.6,3.1c3.6,0,7.2-3.3,8.2-7.3l3.5-13.9l0.1-0.6c0-0.5-0.4-0.9-1-0.9c-0.3,0-1.1,0.1-1.4,1.2
	l-2.6,10.5c-0.2,0.6-0.2,0.7-0.5,1.1c-0.7,1-1.9,2.2-3.6,2.2c-2,0-2.2-2-2.2-2.9c0-2,1-4.8,1.9-7.4c0.4-1,0.6-1.5,0.6-2.3
	c0-1.5-1.1-2.9-2.8-2.9c-3.3,0-4.6,5.2-4.6,5.5l0.4,0.3c0.3,0,0.4-0.1,0.5-0.6c0.9-3,2.2-4.4,3.6-4.4c0.3,0,0.9,0,0.9,1.2
	c0,0.9-0.4,2-0.9,3.3c-1.8,4.7-1.8,5.9-1.8,6.7c0,3.4,2.4,4.2,4.2,4.2c1,0,2.3-0.3,3.6-1.6l0,0C58.3,247.7,58,249.1,56.7,250.8z
	 M38.6,246.9c0-2.1-0.7-3.6-2.1-3.6c-1.1,0-1.7,0.9-1.7,1.7s0.5,1.8,1.8,1.8c0.5,0,0.9-0.1,1.2-0.5l0.1-0.1l0.1,0.7
	c0,1.2-0.2,3.5-2.3,5.8c-0.4,0.4-0.4,0.5-0.4,0.6l0.4,0.4C35.8,253.7,38.6,251.1,38.6,246.9z"/>
<path d="M70.7,252c-0.8,0-2.5-0.4-3-2.9c-0.3-1.4-0.3-3.6-0.3-4.8c0-1.6,0-3.3,0.3-4.6c0.5-2.4,2.4-2.7,3-2.7c0.8,0,2.5,0.4,2.9,2.6
	c0.3,1.3,0.3,3.1,0.3,4.7c0,1.4,0,3.6-0.3,4.9C73.1,251.7,71.5,252,70.7,252z M76,244.6c0-2.6-0.3-4.1-1-5.6c-1-2.1-3-2.6-4.3-2.6
	c-3,0-4.1,2.2-4.4,2.9c-0.9,1.7-0.9,4.1-0.9,5.3c0,1.6,0.1,4,1.2,5.9c1.1,1.8,2.9,2.2,4.1,2.2c1.1,0,3.2-0.4,4.4-2.7
	C76,248.2,76,246.1,76,244.6z"/>
<path d="M88.6,237.9c0-2.7-0.4-7.2-2.4-11.3c-2.1-4.3-5-6.6-5.4-6.6l-0.3,0.3c0,0.1,0,0.2,0.6,0.8c3.6,3.6,5.6,9.5,5.6,16.8
	c0,6.9-1.7,12.9-5.8,17.1c-0.4,0.3-0.4,0.4-0.4,0.5l0.3,0.3c0.5,0,3.4-2.6,5.1-6.1C87.8,246.1,88.6,242.2,88.6,237.9z"/>
<path d="M125.7,238.6c0.7-0.3,0.7-0.5,0.7-0.8c0-0.2-0.1-0.5-0.7-0.8l-19.3-8.9c-0.5-0.2-0.5-0.3-0.6-0.3c-0.4,0-0.7,0.4-0.7,0.6
	c0,0.4,0.3,0.6,0.8,0.8l18.4,8.5l-18.4,8.5c-0.7,0.3-0.7,0.6-0.7,0.8c0,0.3,0.3,0.6,0.7,0.6c0.1,0,0.1,0,0.6-0.3L125.7,238.6z"/>
<path d="M148,246.8c-1.1,0-3.5-0.6-4.1-4.5c-0.4-2.1-0.4-4.9-0.4-7.4c0-2.9,0-5.6,0.6-7.7c0.6-2.4,2.4-3.5,4-3.5
	c1.4,0,3.4,0.8,4.1,3.9c0.5,2,0.5,4.9,0.5,7.3c0,2.4,0,5.1-0.4,7.3C151.5,246.2,149.3,246.8,148,246.8z M155.3,235.4
	c0-3-0.2-5.9-1.5-8.6c-1.5-3-4-3.8-5.8-3.8c-2.1,0-4.6,1-5.9,4c-1,2.3-1.4,4.5-1.4,8.3c0,3.5,0.3,6.1,1.5,8.6
	c1.4,2.7,3.9,3.6,5.7,3.6c3.1,0,4.9-1.9,5.9-3.9C155.3,240.9,155.3,237.4,155.3,235.4z"/>
<path d="M-43.4,415.4c0-0.1,0-0.1-0.4-0.5c-2.3-2.3-3.6-6.4-3.6-11.2c0-4.5,1.2-8.6,3.9-11.3c0.3-0.3,0.3-0.3,0.3-0.4l-0.3-0.1
	c-0.3,0-2.2,1.7-3.4,4c-1.2,2.3-1.8,4.9-1.8,7.8c0,2.1,0.4,4.9,1.6,7.5c1.4,2.9,3.4,4.4,3.6,4.4L-43.4,415.4z"/>
<path d="M-30.8,399.9c-0.8,0.1-1,0.6-1,1.2c0,0.5,0.4,0.8,0.8,0.8c0.7,0,1.2-0.6,1.2-1.3c0-1-1.2-1.4-2.1-1.4
	c-1.4,0-2.2,1.4-2.5,1.8c-0.5-1.8-2.1-1.8-2.5-1.8c-2.5,0-3.6,3.1-3.6,3.6l0.3,0.3c0.1,0,0.3-0.1,0.3-0.3c0.8-2.6,2.3-3.1,3.1-3.1
	c1,0,1.3,1,1.3,1.6c0,0.5-0.1,1-0.4,2.2l-0.8,3.2c-0.4,1.4-1,2.7-2.3,2.7c-0.1,0-0.7,0-1.2-0.3c0.9-0.1,1-0.9,1-1.2
	c0-0.5-0.4-0.8-0.8-0.8c-0.5,0-1.2,0.5-1.2,1.3c0,1,1.2,1.4,2.1,1.4c1.2,0,1.9-0.9,2.5-1.8c0.4,1.4,1.6,1.8,2.5,1.8
	c2.5,0,3.6-3.1,3.6-3.6l-0.3-0.3c-0.3,0-0.3,0.1-0.3,0.3c-0.6,2.1-2.1,3.1-3.1,3.1c-0.8,0-1.3-0.7-1.3-1.6c0-0.5,0.1-0.9,0.5-2.5
	l0.8-3.2c0.4-1.4,1.2-2.5,2.2-2.5C-32,399.7-31.3,399.7-30.8,399.9z"/>
<path d="M-24.6,413.1c-0.5,0-1.7-0.3-1.9-1.9c-0.1-0.9-0.1-2.3-0.1-3.2c0-1,0-2.2,0.1-3.1c0.4-1.6,1.6-1.8,1.9-1.8
	c0.5,0,1.7,0.3,2,1.7c0.1,0.9,0.1,2.1,0.1,3.1c0,0.9,0,2.3-0.1,3.2C-23,412.9-24.1,413.1-24.6,413.1z M-21.1,408.1
	c0-1.7-0.1-2.7-0.7-3.8c-0.6-1.4-1.9-1.7-2.9-1.7c-1.9,0-2.7,1.4-3,2c-0.5,1.2-0.7,2.7-0.7,3.5c0,1,0,2.6,0.8,3.9
	c0.8,1.2,1.9,1.4,2.7,1.4s2.1-0.3,2.9-1.8C-21.1,410.6-21.1,409.2-21.1,408.1z"/>
<path d="M-2.7,412.3c-0.6,0.9-1.6,1.7-2.7,1.7c-0.3,0-1.4,0-1.8-1.2h0.3c0.7,0,1.2-0.6,1.2-1.2c0-0.5-0.4-0.8-0.8-0.8
	c-0.4,0-1.2,0.3-1.2,1.4c0,1.2,1,2.1,2.3,2.1c2.3,0,4.8-2.2,5.5-4.8l2.3-9.2l0.1-0.4c0-0.4-0.3-0.6-0.7-0.6c-0.3,0-0.6,0.1-0.9,0.8
	l-1.8,7c-0.1,0.4-0.1,0.5-0.3,0.8c-0.5,0.7-1.3,1.4-2.3,1.4c-1.3,0-1.4-1.3-1.4-2c0-1.3,0.6-3.1,1.3-4.9c0.3-0.6,0.4-1,0.4-1.6
	c0-1-0.6-1.9-1.8-1.9c-2.2,0-3.1,3.4-3.1,3.6l0.3,0.3c0.3,0,0.3-0.1,0.4-0.4c0.5-1.9,1.4-3,2.3-3c0.3,0,0.7,0,0.7,0.8
	c0,0.6-0.3,1.3-0.7,2.2c-1.2,3.1-1.2,3.9-1.2,4.4c0,2.2,1.6,2.7,2.9,2.7c0.7,0,1.6-0.3,2.3-1l0,0C-1.7,410.2-2,411.1-2.7,412.3z
	 M-14.8,409.8c0-1.4-0.4-2.3-1.4-2.3c-0.8,0-1.2,0.6-1.2,1.2s0.4,1.2,1.2,1.2c0.3,0,0.5-0.1,0.8-0.3h0.1v0.4c0,0.8-0.1,2.3-1.6,3.9
	c-0.3,0.3-0.3,0.4-0.3,0.4l0.3,0.3C-16.7,414.2-14.8,412.5-14.8,409.8z"/>
<path d="M6.5,413.1c-0.5,0-1.7-0.3-1.9-1.9c-0.1-0.9-0.1-2.3-0.1-3.2c0-1,0-2.2,0.1-3.1c0.4-1.6,1.6-1.8,1.9-1.8
	c0.5,0,1.7,0.3,2,1.7c0.1,0.9,0.1,2.1,0.1,3.1c0,0.9,0,2.3-0.1,3.2C8.2,412.9,7,413.1,6.5,413.1z M10.1,408.1c0-1.7-0.1-2.7-0.6-3.8
	c-0.7-1.4-2-1.7-2.9-1.7c-2,0-2.7,1.4-3,2c-0.5,1.2-0.6,2.7-0.6,3.5c0,1,0,2.6,0.8,3.9c0.8,1.2,1.9,1.4,2.7,1.4s2.1-0.3,2.9-1.8
	C10,410.6,10.1,409.2,10.1,408.1z"/>
<path d="M18.4,403.7c0-1.8-0.3-4.8-1.6-7.5c-1.4-2.9-3.4-4.4-3.6-4.4l-0.3,0.1c0,0.1,0,0.1,0.4,0.5c2.3,2.3,3.6,6.4,3.6,11.2
	c0,4.6-1.2,8.6-3.9,11.3c-0.3,0.3-0.3,0.3-0.3,0.4l0.3,0.1c0.3,0,2.2-1.7,3.4-4C17.9,409.2,18.4,406.6,18.4,403.7z"/>
<path class="st1" d="M-28.3,256.8c-1.1,0.2-1.6,1.1-1.6,1.8c0,0.9,0.7,1.1,1.2,1.1c1.1,0,1.8-0.9,1.8-1.9c0-1.5-1.7-2.2-3.2-2.2
	c-2.2,0-3.4,2.1-3.7,2.8c-0.8-2.7-3-2.8-3.7-2.8c-3.6,0-5.6,4.7-5.6,5.5l0.4,0.3c0.3,0,0.4-0.2,0.4-0.4c1.2-4,3.6-4.7,4.6-4.7
	c1.6,0,1.9,1.5,1.9,2.4c0,0.8-0.2,1.6-0.6,3.3l-1.2,4.9c-0.5,2.1-1.6,4.1-3.5,4.1c-0.2,0-1.1,0-1.8-0.5c1.3-0.3,1.6-1.3,1.6-1.8
	c0-0.7-0.5-1.1-1.2-1.1c-0.9,0-1.8,0.8-1.8,1.9c0,1.5,1.7,2.2,3.2,2.2c1.7,0,2.9-1.4,3.7-2.8c0.6,2.1,2.4,2.8,3.7,2.8
	c3.6,0,5.6-4.7,5.6-5.5l-0.4-0.3c-0.3,0-0.4,0.2-0.5,0.5c-1,3.1-3,4.6-4.6,4.6c-1.3,0-1.9-0.9-1.9-2.4c0-0.8,0.1-1.4,0.7-3.7
	l1.3-4.9c0.5-2.1,1.8-3.7,3.4-3.7C-30,256.3-29,256.3-28.3,256.8z"/>
<rect x="-239" y="106.7" class="st2" width="480" height="349.3"/>
<path d="M-31.5,133.2c0-2.3-1.1-2.4-1.4-2.4c-0.9,0-1.6,0.9-1.6,1.6c0,0.4,0.3,0.7,0.4,0.8c0.4,0.3,1.3,1.3,1.3,3.1
	c0,1.5-2.1,9.9-6.4,9.9c-2.2,0-2.6-1.8-2.6-3.1c0-1.8,0.8-4.3,1.8-6.9c0.6-1.5,0.7-1.8,0.7-2.5c0-1.5-1.1-2.9-2.8-2.9
	c-3.3,0-4.6,5.2-4.6,5.5l0.4,0.3c0.3,0,0.4-0.1,0.5-0.6c0.9-3.1,2.3-4.4,3.6-4.4c0.3,0,0.9,0,0.9,1.2c0,0.9-0.4,2-0.9,3.3
	c-1.7,4.6-1.7,5.7-1.7,6.5c0,0.8,0.1,2.3,1.2,3.3c1.3,1.1,3.1,1.1,3.4,1.1C-33.5,147-31.5,135.3-31.5,133.2z"/>
<path d="M-23.4,136.8c0-0.6,0-0.7-0.7-0.7c-1,1-2.2,1.5-4.5,1.5v0.8c0.6,0,1.9,0,3.3-0.6V150c0,0.9-0.1,1.2-2.3,1.2h-0.8v0.8
	c1-0.1,3-0.1,4.1-0.1s3.1,0,4.1,0.1v-0.8H-21c-2.3,0-2.3-0.3-2.3-1.2L-23.4,136.8L-23.4,136.8z"/>
<path d="M-8.5,156.5c0-0.1,0-0.2-0.6-0.8c-3.6-3.6-5.6-9.5-5.6-16.8c0-6.9,1.7-12.9,5.8-17.1c0.4-0.3,0.4-0.4,0.4-0.5l-0.3-0.3
	c-0.5,0-3.4,2.6-5.1,6.1c-1.8,3.6-2.6,7.4-2.6,11.8c0,3.2,0.5,7.4,2.4,11.3c2.1,4.3,5,6.6,5.4,6.6L-8.5,156.5z"/>
<path class="st1" d="M10.5,133.2c-1.1,0.2-1.6,1.1-1.6,1.8c0,0.9,0.7,1.1,1.2,1.1c1.1,0,1.8-0.9,1.8-1.9c0-1.5-1.7-2.2-3.2-2.2
	c-2.2,0-3.4,2.1-3.7,2.8c-0.8-2.7-3-2.8-3.7-2.8c-3.6,0-5.6,4.7-5.6,5.5l0.4,0.3c0.3,0,0.4-0.2,0.4-0.4c1.2-4,3.6-4.7,4.6-4.7
	c1.6,0,1.9,1.5,1.9,2.4c0,0.8-0.2,1.6-0.6,3.3l-1.2,4.9c-0.5,2.1-1.6,4.1-3.5,4.1c-0.2,0-1.1,0-1.8-0.5c1.3-0.3,1.6-1.3,1.6-1.8
	c0-0.7-0.5-1.1-1.2-1.1c-0.9,0-1.8,0.8-1.8,1.9c0,1.5,1.7,2.2,3.2,2.2c1.7,0,2.9-1.4,3.7-2.8c0.6,2.1,2.4,2.8,3.7,2.8
	c3.6,0,5.6-4.7,5.6-5.5l-0.4-0.3c-0.3,0-0.4,0.2-0.5,0.5c-1,3.1-3,4.6-4.6,4.6c-1.3,0-1.9-0.9-1.9-2.4c0-0.8,0.1-1.4,0.7-3.7
	l1.3-4.9c0.5-2.1,1.8-3.7,3.4-3.7C8.7,132.7,9.7,132.7,10.5,133.2z"/>
<path class="st1" d="M19.8,153c-0.8,0-2.5-0.4-3-2.9c-0.3-1.4-0.3-3.6-0.3-4.8c0-1.6,0-3.3,0.3-4.6c0.5-2.4,2.4-2.7,3-2.7
	c0.8,0,2.5,0.4,2.9,2.6c0.3,1.3,0.3,3.1,0.3,4.7c0,1.4,0,3.6-0.3,4.9C22.2,152.7,20.5,153,19.8,153z M25.1,145.6
	c0-2.6-0.3-4.1-1-5.6c-1-2.1-3-2.6-4.3-2.6c-3,0-4.1,2.2-4.4,2.9c-0.9,1.7-0.9,4.1-0.9,5.3c0,1.6,0.1,4,1.2,5.9
	c1.1,1.8,2.9,2.2,4.1,2.2c1.1,0,3.2-0.4,4.4-2.7C25,149.2,25.1,147.1,25.1,145.6z"/>
<path d="M52.7,151.8c-1,1.4-2.4,2.6-4.1,2.6c-0.4,0-2.1-0.1-2.7-1.7h0.4c1.1,0,1.8-0.9,1.8-1.8s-0.7-1.1-1.2-1.1
	c-0.6,0-1.8,0.4-1.8,2.2c0,1.8,1.5,3.1,3.6,3.1c3.6,0,7.2-3.3,8.2-7.3l3.5-13.9l0.1-0.6c0-0.5-0.4-0.9-1-0.9c-0.3,0-1.1,0.1-1.4,1.2
	l-2.6,10.5c-0.2,0.6-0.2,0.7-0.5,1.1c-0.7,1-1.9,2.2-3.6,2.2c-2,0-2.2-2-2.2-2.9c0-2,1-4.8,1.9-7.4c0.4-1,0.6-1.5,0.6-2.3
	c0-1.5-1.1-2.9-2.8-2.9c-3.3,0-4.6,5.2-4.6,5.5l0.4,0.3c0.3,0,0.4-0.1,0.5-0.6c0.9-3,2.2-4.4,3.6-4.4c0.3,0,0.9,0,0.9,1.2
	c0,0.9-0.4,2-0.9,3.3c-1.8,4.7-1.8,5.9-1.8,6.7c0,3.4,2.4,4.2,4.2,4.2c1,0,2.3-0.3,3.6-1.6l0,0C54.3,148.7,54,150.1,52.7,151.8z
	 M34.6,147.9c0-2.1-0.7-3.6-2.1-3.6c-1.1,0-1.7,0.9-1.7,1.7c0,0.8,0.5,1.8,1.8,1.8c0.5,0,0.9-0.1,1.2-0.5l0.1-0.1l0.1,0.7
	c0,1.2-0.2,3.5-2.3,5.8c-0.4,0.4-0.4,0.5-0.4,0.6l0.4,0.4C31.8,154.7,34.6,152.1,34.6,147.9z"/>
<path d="M66.7,153c-0.8,0-2.5-0.4-3-2.9c-0.3-1.4-0.3-3.6-0.3-4.8c0-1.6,0-3.3,0.3-4.6c0.5-2.4,2.4-2.7,3-2.7c0.8,0,2.5,0.4,2.9,2.6
	c0.3,1.3,0.3,3.1,0.3,4.7c0,1.4,0,3.6-0.3,4.9C69.1,152.7,67.5,153,66.7,153z M72,145.6c0-2.6-0.3-4.1-1-5.6c-1-2.1-3-2.6-4.3-2.6
	c-3,0-4.1,2.2-4.4,2.9c-0.9,1.7-0.9,4.1-0.9,5.3c0,1.6,0.1,4,1.2,5.9c1.1,1.8,2.9,2.2,4.1,2.2c1.1,0,3.2-0.4,4.4-2.7
	C72,149.2,72,147.1,72,145.6z"/>
<path d="M84.6,138.9c0-2.7-0.4-7.2-2.4-11.3c-2.1-4.3-5-6.6-5.4-6.6l-0.3,0.3c0,0.1,0,0.2,0.6,0.8c3.6,3.6,5.6,9.5,5.6,16.8
	c0,6.9-1.7,12.9-5.8,17.1c-0.4,0.3-0.4,0.4-0.4,0.5l0.3,0.3c0.5,0,3.4-2.6,5.1-6.1C83.8,147.1,84.6,143.2,84.6,138.9z"/>
<path d="M121.7,139.6c0.7-0.3,0.7-0.5,0.7-0.8c0-0.2-0.1-0.5-0.7-0.8l-19.3-8.9c-0.5-0.2-0.5-0.3-0.6-0.3c-0.4,0-0.7,0.4-0.7,0.6
	c0,0.4,0.3,0.6,0.8,0.8l18.4,8.5l-18.4,8.5c-0.7,0.3-0.7,0.6-0.7,0.8c0,0.3,0.3,0.6,0.7,0.6c0.1,0,0.1,0,0.6-0.3L121.7,139.6z"/>
<path d="M144,147.8c-1.1,0-3.5-0.6-4.1-4.5c-0.4-2.1-0.4-4.9-0.4-7.4c0-2.9,0-5.6,0.6-7.7c0.6-2.4,2.4-3.5,4-3.5
	c1.4,0,3.4,0.8,4.1,3.9c0.5,2,0.5,4.9,0.5,7.3s0,5.1-0.4,7.3C147.5,147.2,145.3,147.8,144,147.8z M151.3,136.4c0-3-0.2-5.9-1.5-8.6
	c-1.5-3-4-3.8-5.8-3.8c-2.1,0-4.6,1-5.9,4c-1,2.3-1.4,4.5-1.4,8.3c0,3.5,0.3,6.1,1.5,8.6c1.4,2.7,3.9,3.6,5.7,3.6
	c3.1,0,4.9-1.9,5.9-3.9C151.3,141.9,151.3,138.4,151.3,136.4z"/>
<circle class="st3" cx="-3.8" cy="378.4" r="73.6"/>
<path d="M216.9,355.9c0-0.5-0.4-0.9-0.9-0.9c-0.4,0-0.9,0.3-0.9,0.9s0.4,0.9,0.9,0.9C216.5,356.7,216.9,356.4,216.9,355.9z
	 M212.4,347.9c0-0.4,0-0.4-0.1-0.4c-0.1,0-0.1,0-0.4,0.3l-0.3,0.4c-0.7-0.7-1.6-0.7-2-0.7c-2.3,0-3.1,1.2-3.1,2.4
	c0,1.9,2.1,2.3,2.7,2.4c1.3,0.3,1.8,0.4,2.2,0.7c0.3,0.2,0.7,0.7,0.7,1.5c0,0.9-0.5,2-2.4,2c-1.8,0-2.4-1.4-2.8-3.2
	c-0.1-0.3-0.1-0.3-0.2-0.3s-0.2,0-0.2,0.4v3c0,0.4,0,0.4,0.1,0.4c0.1,0,0.1,0,0.2-0.2c0.1-0.2,0.4-0.7,0.6-0.9
	c0.4,0.6,1.1,1.1,2.3,1.1c2.1,0,3.2-1.1,3.2-2.7c0-1.1-0.6-1.6-0.8-1.9c-0.6-0.6-1.3-0.8-2.2-1c-1.1-0.2-2.6-0.5-2.6-1.8
	c0-0.5,0.3-1.7,2.4-1.7c2.2,0,2.3,2.1,2.4,2.7l0.2,0.1c0.2,0,0.2-0.1,0.2-0.4V347.9z M199.5,351.5c0.1-3,1.7-3.7,2.6-3.7
	c1.4,0,2.4,1.3,2.4,3.7H199.5z M205.5,351.8c0.1-0.1,0.1-0.1,0.1-0.3c0-2.1-1.1-4-3.5-4c-2.2,0-3.9,2.1-3.9,4.6c0,2.7,2,4.7,4.2,4.7
	c2.3,0,3.2-2.2,3.2-2.6c0-0.1-0.1-0.1-0.2-0.1c-0.1,0-0.2,0-0.2,0.3c-0.5,1.4-1.6,2.1-2.7,2.1c-0.9,0-1.8-0.5-2.3-1.4
	c-0.6-1.1-0.6-2.3-0.6-3.3H205.5z M196.2,349.6c0.2-0.5,0.5-1.3,1.7-1.3v-0.5c-0.4,0-0.9,0-1.3,0c-0.4,0-1.1,0-1.5,0v0.5
	c0.5,0,0.8,0.3,0.8,0.8c0,0.2,0,0.2-0.1,0.5l-2.3,5.8l-2.5-6.2c-0.1-0.3-0.1-0.3-0.1-0.4c0-0.5,0.7-0.5,1-0.5v-0.5
	c-0.5,0-1.4,0-1.9,0c-0.6,0-1.2,0-1.7,0v0.5c0.8,0,1.2,0,1.5,0.6l3,7.6c0.1,0.3,0.1,0.4,0.3,0.4s0.2,0,0.3-0.4L196.2,349.6z
	 M185.5,353.8c0,1.8-1.3,2.7-2.4,2.7c-1,0-1.8-0.8-1.8-1.7c0-0.6,0.3-1.7,1.5-2.4c1-0.6,2.1-0.6,2.8-0.7V353.8z M186.6,351.3
	c0-1.4,0-2.1-0.9-2.9c-0.8-0.7-1.7-0.9-2.4-0.9c-1.6,0-2.8,1.3-2.8,2.7c0,0.8,0.6,0.8,0.7,0.8c0.3,0,0.7-0.2,0.7-0.7
	c0-0.5-0.4-0.7-0.7-0.7l-0.2,0c0.4-1.3,1.6-1.7,2.3-1.7c1,0,2.2,0.9,2.2,2.7v0.9c-1.2,0-2.7,0.2-3.9,0.8c-1.3,0.7-1.7,1.8-1.7,2.6
	c0,1.6,1.9,2.1,3,2.1c1.1,0,2.2-0.6,2.7-1.8c0,0.9,0.6,1.7,1.5,1.7c0.4,0,1.5-0.3,1.5-1.9v-1.2h-0.4v1.2c0,1.3-0.6,1.4-0.8,1.4
	c-0.9,0-0.9-1.1-0.9-2V351.3z M172.6,351.5c0.1-3,1.7-3.7,2.6-3.7c1.4,0,2.4,1.3,2.4,3.7H172.6z M178.6,351.8
	c0.1-0.1,0.1-0.1,0.1-0.3c0-2.1-1.1-4-3.5-4c-2.2,0-3.9,2.1-3.9,4.6c0,2.7,2,4.7,4.2,4.7c2.3,0,3.2-2.2,3.2-2.6
	c0-0.1-0.1-0.1-0.2-0.1c-0.1,0-0.2,0-0.2,0.3c-0.5,1.4-1.6,2.1-2.7,2.1c-0.9,0-1.8-0.5-2.3-1.4c-0.6-1.1-0.6-2.3-0.6-3.3H178.6z
	 M168.6,342.3l-2.5,0.2v0.5c1.2,0,1.4,0.1,1.4,1.1v11.1c0,0.8-0.1,0.9-1.4,0.9v0.5c0.5,0,1.4,0,1.9,0c0.5,0,1.5,0,2,0v-0.5
	c-1.3,0-1.4-0.1-1.4-0.9V342.3z M156,354.2c0,0.6-0.4,1.2-0.9,1.6c-0.7,0.6-1.4,0.7-1.8,0.7c-0.6,0-2.8-0.3-2.8-4.3
	c0-4.1,2.4-4.3,2.9-4.3c1,0,1.7,0.5,2.2,1.3c0.3,0.4,0.3,0.5,0.3,0.9V354.2z M154.7,342.5v0.5c1.2,0,1.4,0.1,1.4,1.1v4.9
	c-0.1-0.1-0.9-1.4-2.6-1.4c-2.1,0-4.2,1.9-4.2,4.6c0,2.7,1.9,4.6,4,4.6c1.8,0,2.7-1.4,2.8-1.5v1.5l2.5-0.2v-0.5
	c-1.2,0-1.4-0.1-1.4-1.1v-12.7L154.7,342.5z M144.2,347.8v0.5c1.2,0,1.3,0.1,1.3,1.1v5.8c0,0.8-0.1,0.9-1.4,0.9v0.5
	c0.5,0,1.4,0,1.9,0c0.5,0,1.3,0,1.8,0v-0.5c-1.2,0-1.3-0.1-1.3-0.9v-7.7L144.2,347.8z M146.6,343.9c0-0.5-0.4-0.9-0.9-0.9
	c-0.5,0-0.9,0.4-0.9,0.9c0,0.5,0.4,0.9,0.9,0.9C146.2,344.8,146.6,344.4,146.6,343.9z M138.9,347.8v0.5c1.2,0,1.4,0.1,1.4,1.1v3.8
	c0,1.7-0.9,3.3-2.5,3.3c-1.7,0-1.8-1-1.8-2.1v-6.8l-2.5,0.2v0.5c0.8,0,1.4,0,1.4,0.8v4c0,1.4,0,2.3,0.5,2.9c0.3,0.3,0.8,0.8,2.3,0.8
	c1.8,0,2.4-1.5,2.6-1.9h0v1.9l2.5-0.2v-0.5c-1.2,0-1.4-0.1-1.4-1.1v-7.4L138.9,347.8z M125.5,347.8v-2.4c0-1.8,1.4-2.9,2.9-2.9
	c0.1,0,1.2,0,1.2,0.2l-0.1,0.1c-0.2,0.1-0.3,0.3-0.3,0.5c0,0.3,0.1,0.5,0.4,0.6v3.7H125.5z M130.7,342.3c-0.2,0-0.4,0.1-0.7,0.1
	c-0.6-0.3-1.4-0.3-1.6-0.3c-1.8,0-3.9,1-3.9,3.2v2.4h-1.7v0.5h1.7v7c0,0.8-0.1,0.9-1.4,0.9v0.5c0.5,0,1.4,0,1.9,0c0.5,0,1.5,0,2,0
	v-0.5c-1.3,0-1.4-0.1-1.4-0.9v-7h4.1v7c0,0.8-0.1,0.9-1.4,0.9v0.5c0.5,0,1.4,0,1.9,0c0.5,0,1.5,0,2,0v-0.5c-1.3,0-1.4-0.1-1.4-0.9
	V342.3z M109.7,351.5c0.1-3,1.7-3.7,2.6-3.7c1.4,0,2.4,1.3,2.4,3.7H109.7z M115.7,351.8c0.1-0.1,0.1-0.1,0.1-0.3c0-2.1-1.1-4-3.5-4
	c-2.2,0-3.9,2.1-3.9,4.6c0,2.7,2,4.7,4.2,4.7c2.3,0,3.2-2.2,3.2-2.6c0-0.1-0.1-0.1-0.2-0.1c-0.1,0-0.2,0-0.2,0.3
	c-0.5,1.4-1.6,2.1-2.7,2.1c-0.9,0-1.8-0.5-2.3-1.4c-0.6-1.1-0.6-2.3-0.6-3.3H115.7z M103.5,351.8c0-2,0.9-3.9,2.4-3.9
	c0.1,0,0.3,0,0.4,0.1c0,0-0.5,0.1-0.5,0.7c0,0.5,0.4,0.7,0.7,0.7c0.2,0,0.7-0.1,0.7-0.7c0-0.7-0.7-1.1-1.4-1.1
	c-1.6,0-2.3,1.5-2.5,2.3h0v-2.3l-2.4,0.2v0.5c1.2,0,1.4,0.1,1.4,1.1v5.8c0,0.8-0.1,0.9-1.4,0.9v0.5c0.5,0,1.5,0,2,0
	c0.6,0,1.7,0,2.2,0v-0.5c-1.5,0-1.7,0-1.7-0.9V351.8z M95.6,356.5c-1,0-1.8-0.6-2.3-1.4c-0.5-0.9-0.6-2.1-0.6-3c0-0.9,0-2,0.6-2.9
	c0.4-0.7,1.2-1.3,2.3-1.3c0.9,0,1.7,0.5,2.2,1.2c0.6,1,0.6,2.3,0.6,3c0,0.8,0,2.1-0.6,3.1C97.3,356.1,96.4,356.5,95.6,356.5z
	 M99.8,352.3c0-2.7-1.9-4.7-4.2-4.7c-2.3,0-4.2,2.1-4.2,4.7c0,2.6,1.9,4.6,4.2,4.6C97.9,356.9,99.8,354.9,99.8,352.3z M77.6,342.9
	c-0.1-0.3-0.1-0.3-0.6-0.3h-2.7v0.5c1.4,0,1.7,0,1.7,0.9v10.7c0,0.5,0,1.5-1.7,1.5v0.5c0.5,0,1.3,0,1.9,0c0.5,0,1.4,0,1.9,0v-0.5
	c-1.7,0-1.7-1-1.7-1.5v-11.5h0l4.9,13.2c0.1,0.2,0.1,0.3,0.3,0.3s0.2-0.1,0.3-0.3l4.9-13.3h0v12.2c0,0.9-0.2,0.9-1.7,0.9v0.5
	c0.6,0,1.7,0,2.3,0s1.7,0,2.3,0v-0.5c-1.4,0-1.7,0-1.7-0.9V344c0-0.9,0.2-0.9,1.7-0.9v-0.5h-2.6c-0.4,0-0.5,0-0.6,0.3L82.1,355
	L77.6,342.9z"/>
<path d="M-78.2,359.9c0-0.5-0.4-0.9-0.9-0.9c-0.4,0-0.9,0.3-0.9,0.9s0.4,0.9,0.9,0.9C-78.6,360.8-78.2,360.5-78.2,359.9z
	 M-82.9,351.6c0-0.4,0-0.4-0.2-0.4c-0.1,0-0.1,0-0.4,0.3l-0.3,0.4c-0.7-0.7-1.7-0.8-2.1-0.8c-2.4,0-3.3,1.3-3.3,2.5
	c0,2,2.2,2.4,2.9,2.6c1.4,0.3,1.9,0.4,2.3,0.8c0.3,0.3,0.8,0.7,0.8,1.5c0,0.9-0.5,2.1-2.5,2.1c-1.9,0-2.6-1.4-3-3.4
	c-0.1-0.3-0.1-0.3-0.2-0.3s-0.2,0-0.2,0.5v3.1c0,0.4,0,0.4,0.2,0.4c0.1,0,0.1,0,0.2-0.2c0.1-0.2,0.5-0.7,0.6-0.9
	c0.4,0.6,1.2,1.2,2.4,1.2c2.2,0,3.3-1.2,3.3-2.9c0-1.1-0.6-1.7-0.9-2c-0.7-0.7-1.4-0.8-2.3-1c-1.2-0.3-2.7-0.6-2.7-1.9
	c0-0.6,0.3-1.8,2.5-1.8c2.3,0,2.5,2.2,2.5,2.9l0.2,0.1c0.2,0,0.2-0.1,0.2-0.4V351.6z M-94.1,355.7c0-2.1,0.9-4.1,2.5-4.1
	c0.2,0,0.3,0,0.5,0.1c0,0-0.5,0.2-0.5,0.7c0,0.5,0.4,0.7,0.7,0.7c0.3,0,0.7-0.2,0.7-0.8c0-0.7-0.7-1.1-1.4-1.1
	c-1.7,0-2.4,1.6-2.6,2.4h0v-2.4l-2.5,0.2v0.6c1.3,0,1.5,0.1,1.5,1.2v6.1c0,0.8-0.1,0.9-1.5,0.9v0.6c0.5,0,1.5,0,2.1,0
	c0.6,0,1.7,0,2.3,0v-0.6c-1.6,0-1.8,0-1.8-1V355.7z M-104.2,355.4c0.2-3.1,1.8-3.8,2.7-3.8c1.5,0,2.5,1.4,2.5,3.8H-104.2z
	 M-97.9,355.7c0.1-0.1,0.1-0.1,0.1-0.3c0-2.2-1.2-4.2-3.7-4.2c-2.3,0-4.1,2.2-4.1,4.9c0,2.8,2.1,4.9,4.4,4.9c2.4,0,3.4-2.3,3.4-2.8
	c0-0.2-0.1-0.2-0.2-0.2c-0.2,0-0.2,0-0.3,0.3c-0.5,1.5-1.7,2.2-2.8,2.2c-0.9,0-1.9-0.5-2.5-1.5c-0.7-1.1-0.7-2.4-0.7-3.4H-97.9z
	 M-110.7,352h3.1v-0.6h-3.1v-4h-0.4c0,2.2-0.8,4.2-2.7,4.3v0.3h1.9v6.1c0,0.4,0,2.9,2.5,2.9c1.3,0,2-1.3,2-2.9v-1.2h-0.4v1.2
	c0,1.5-0.6,2.5-1.5,2.5c-0.6,0-1.5-0.4-1.5-2.4V352z M-115.5,354.2c0-1.1-0.2-2.9-2.8-2.9c-1.7,0-2.6,1.3-2.9,2.2h0v-2.2l-2.6,0.2
	v0.6c1.3,0,1.5,0.1,1.5,1.2v6.1c0,0.8-0.1,0.9-1.5,0.9v0.6c0.5,0,1.5,0,2.1,0s1.5,0,2.1,0v-0.6c-1.4,0-1.5-0.1-1.5-0.9v-4.2
	c0-2,1.2-3.5,2.7-3.5c1.6,0,1.8,1.4,1.8,2.5v5.2c0,0.8-0.1,0.9-1.5,0.9v0.6c0.5,0,1.5,0,2.1,0s1.5,0,2.1,0v-0.6
	c-1.4,0-1.5-0.1-1.5-0.9V354.2z M-131.4,355.4c0.2-3.1,1.8-3.8,2.7-3.8c1.5,0,2.5,1.4,2.5,3.8H-131.4z M-125.1,355.7
	c0.1-0.1,0.1-0.1,0.1-0.3c0-2.2-1.2-4.2-3.7-4.2c-2.3,0-4.1,2.2-4.1,4.9c0,2.8,2.1,4.9,4.4,4.9c2.4,0,3.4-2.3,3.4-2.8
	c0-0.2-0.1-0.2-0.2-0.2c-0.2,0-0.2,0-0.3,0.3c-0.5,1.5-1.7,2.2-2.8,2.2c-0.9,0-1.9-0.5-2.5-1.5c-0.7-1.1-0.7-2.4-0.7-3.4H-125.1z
	 M-143.3,358.2c0,0.7-0.4,1.2-0.9,1.7c-0.7,0.7-1.5,0.8-1.9,0.8c-0.6,0-2.9-0.3-2.9-4.5c0-4.3,2.5-4.5,3.1-4.5c1,0,1.8,0.6,2.3,1.4
	c0.3,0.5,0.3,0.5,0.3,0.9V358.2z M-144.8,345.9v0.6c1.3,0,1.5,0.1,1.5,1.2v5.1c-0.1-0.1-1-1.5-2.7-1.5c-2.2,0-4.4,2-4.4,4.9
	c0,2.9,2,4.9,4.2,4.9c1.9,0,2.8-1.4,2.9-1.6v1.6l2.6-0.2v-0.6c-1.3,0-1.5-0.1-1.5-1.2v-13.4L-144.8,345.9z M-155.8,351.5v0.6
	c1.2,0,1.4,0.1,1.4,1.2v6.1c0,0.8-0.1,0.9-1.5,0.9v0.6c0.5,0,1.5,0,2,0c0.5,0,1.4,0,1.9,0v-0.6c-1.3,0-1.3-0.1-1.3-0.9v-8.1
	L-155.8,351.5z M-153.2,347.4c0-0.5-0.4-0.9-0.9-0.9c-0.5,0-0.9,0.4-0.9,0.9c0,0.5,0.4,0.9,0.9,0.9
	C-153.6,348.3-153.2,347.9-153.2,347.4z M-161.3,351.5v0.6c1.3,0,1.5,0.1,1.5,1.2v4c0,1.8-1,3.4-2.6,3.4c-1.8,0-1.9-1.1-1.9-2.2
	v-7.2l-2.6,0.2v0.6c0.9,0,1.5,0,1.5,0.9v4.2c0,1.5,0,2.4,0.6,3c0.3,0.3,0.8,0.9,2.4,0.9c1.9,0,2.6-1.6,2.7-2h0v2l2.6-0.2v-0.6
	c-1.3,0-1.5-0.1-1.5-1.2v-7.8L-161.3,351.5z M-175.4,351.4v-2.6c0-1.9,1.4-3,3-3c0.1,0,1.3,0,1.3,0.3l-0.1,0.2
	c-0.2,0.1-0.3,0.3-0.3,0.6c0,0.3,0.2,0.6,0.4,0.7v3.9H-175.4z M-170,345.7c-0.2,0-0.4,0.1-0.7,0.2c-0.6-0.3-1.5-0.3-1.7-0.3
	c-1.9,0-4.1,1-4.1,3.4v2.6h-1.7v0.6h1.7v7.3c0,0.8-0.1,0.9-1.5,0.9v0.6c0.5,0,1.5,0,2,0c0.6,0,1.5,0,2.1,0v-0.6
	c-1.4,0-1.5-0.1-1.5-0.9V352h4.3v7.3c0,0.8-0.1,0.9-1.5,0.9v0.6c0.5,0,1.5,0,2,0c0.6,0,1.5,0,2.1,0v-0.6c-1.4,0-1.5-0.1-1.5-0.9
	V345.7z M-192.1,355.4c0.2-3.1,1.8-3.8,2.7-3.8c1.5,0,2.5,1.4,2.5,3.8H-192.1z M-185.8,355.7c0.1-0.1,0.1-0.1,0.1-0.3
	c0-2.2-1.2-4.2-3.7-4.2c-2.3,0-4.1,2.2-4.1,4.9c0,2.8,2.1,4.9,4.4,4.9c2.4,0,3.4-2.3,3.4-2.8c0-0.2-0.1-0.2-0.2-0.2
	c-0.2,0-0.2,0-0.3,0.3c-0.5,1.5-1.7,2.2-2.8,2.2c-0.9,0-1.9-0.5-2.5-1.5c-0.7-1.1-0.7-2.4-0.7-3.4H-185.8z M-196.2,354.2
	c0-1.1-0.2-2.9-2.8-2.9c-1.5,0-2.5,1-2.9,2.2h0c-0.3-1.8-1.5-2.2-2.8-2.2c-1.7,0-2.6,1.3-2.9,2.2h0v-2.2l-2.6,0.2v0.6
	c1.3,0,1.5,0.1,1.5,1.2v6.1c0,0.8-0.1,0.9-1.5,0.9v0.6c0.5,0,1.5,0,2.1,0s1.5,0,2.1,0v-0.6c-1.4,0-1.5-0.1-1.5-0.9v-4.2
	c0-2,1.2-3.5,2.7-3.5c1.6,0,1.8,1.4,1.8,2.5v5.2c0,0.8-0.1,0.9-1.5,0.9v0.6c0.5,0,1.5,0,2.1,0s1.5,0,2.1,0v-0.6
	c-1.4,0-1.5-0.1-1.5-0.9v-4.2c0-2,1.2-3.5,2.7-3.5c1.6,0,1.8,1.4,1.8,2.5v5.2c0,0.8-0.1,0.9-1.5,0.9v0.6c0.5,0,1.5,0,2.1,0
	s1.5,0,2.1,0v-0.6c-1.4,0-1.5-0.1-1.5-0.9V354.2z M-216,360.6c-1,0-1.9-0.6-2.4-1.5c-0.5-1-0.6-2.2-0.6-3.2c0-0.9,0-2.1,0.6-3
	c0.4-0.7,1.3-1.4,2.4-1.4c1,0,1.8,0.5,2.3,1.3c0.7,1,0.7,2.5,0.7,3.1c0,0.9,0,2.2-0.6,3.2C-214.2,360.2-215.2,360.6-216,360.6z
	 M-211.6,356.1c0-2.8-2-5-4.4-5s-4.4,2.2-4.4,5c0,2.7,2,4.8,4.4,4.8S-211.6,358.9-211.6,356.1z M-222.6,346c0-0.4,0-0.4-0.2-0.4
	s-0.2,0.1-0.3,0.3l-0.7,1.4c-0.8-1.2-2.1-1.7-3.5-1.7c-2.2,0-4,1.8-4,4c0,0.7,0.2,1.6,0.9,2.6c0.8,1,1.6,1.2,3.3,1.6
	c0.7,0.2,1.7,0.5,2,0.5c1.2,0.5,1.9,1.8,1.9,3.1c0,1.6-1.1,3.3-3,3.3c-2.3,0-4.5-1.3-4.7-4.4c0-0.3,0-0.4-0.2-0.4
	c-0.2,0-0.2,0-0.2,0.5v4.4c0,0.4,0,0.4,0.2,0.4c0.2,0,0.2-0.1,0.5-0.8c0-0.1,0-0.1,0.4-0.9c1.1,1.4,2.9,1.7,4,1.7
	c2.4,0,4.1-2,4.1-4.3c0-1.1-0.4-2-0.7-2.4c-0.9-1.4-1.9-1.7-2.9-1.9c-0.2-0.1-0.2-0.1-1.4-0.4c-1.2-0.3-1.7-0.5-2.2-1
	c-0.6-0.7-0.8-1.4-0.8-2.1c0-1.4,1.1-3,3-3c2.3,0,3.8,1.6,4.1,4.4c0.1,0.4,0.1,0.4,0.2,0.4c0.2,0,0.2-0.1,0.2-0.4V346z"/>
</svg>
