<?xml version="1.0" encoding="UTF-8"?>
<!-- Created with Inkscape (http://www.inkscape.org/) -->
<svg width="350" height="400" version="1.1" viewBox="0 0 350 400" xmlns="http://www.w3.org/2000/svg" xmlns:cc="http://creativecommons.org/ns#" xmlns:dc="http://purl.org/dc/elements/1.1/" xmlns:rdf="http://www.w3.org/1999/02/22-rdf-syntax-ns#">
 <metadata>
  <rdf:RDF>
   <cc:Work rdf:about="">
    <dc:format>image/svg+xml</dc:format>
    <dc:type rdf:resource="http://purl.org/dc/dcmitype/StillImage"/>
    <dc:title/>
   </cc:Work>
  </rdf:RDF>
 </metadata>
 <g transform="translate(0 -722.52)">
  <g fill-opacity=".33333" stroke-linejoin="round" stroke-width="2">
   <path transform="translate(0 722.52)" d="m170 20-19.227 46.143a50 50 0 0 0 19.227 3.8574 50 50 0 0 0 26.951-7.8887l-26.951-42.111z" fill="#f00" stroke="#f00"/>
   <path transform="translate(0 722.52)" d="m303.05 227.89a50 50 0 0 0-23.049 42.111 50 50 0 0 0 2.9277 16.703l47.072-16.703-26.951-42.111z" fill="#080" stroke="#080"/>
   <path transform="translate(0 722.52)" d="m39.227 333.86-19.227 46.143 47.072-16.703a50 50 0 0 0-27.846-29.439z" fill="#00f" stroke="#00f"/>
  </g>
  <g fill="none" stroke-linecap="round" stroke-width="4">
   <path d="m20 1102.5 310-110" stroke="#f00"/>
   <path d="m170 742.52-150 360" stroke="#080"/>
   <path d="m330 992.52-160-250" stroke="#00f"/>
  </g>
  <g>
   <g font-family="sans-serif" font-size="40px" letter-spacing="0px" text-anchor="middle" word-spacing="0px">
    <text x="150" y="752.51965" fill="#ff0000" text-align="center" style="line-height:1.25" xml:space="preserve"><tspan x="150" y="752.51965" fill="#ff0000" font-family="serif" font-style="italic">A</tspan></text>
    <text x="330" y="1032.5197" fill="#008800" text-align="center" style="line-height:1.25" xml:space="preserve"><tspan x="330" y="1032.5197" fill="#008800" font-family="serif" font-style="italic">B</tspan></text>
    <text x="10" y="1092.5197" fill="#0000ff" text-align="center" style="line-height:1.25" xml:space="preserve"><tspan x="10" y="1092.5197" fill="#0000ff" font-family="serif" font-style="italic">C</tspan></text>
    <text x="180" y="1082.5197" fill="#ff0000" text-align="center" style="line-height:1.25" xml:space="preserve"><tspan x="180" y="1082.5197" fill="#ff0000" font-family="serif" font-style="italic">a</tspan></text>
    <text x="80" y="912.51965" fill="#008800" text-align="center" style="line-height:1.25" xml:space="preserve"><tspan x="80" y="912.51965" fill="#008800" font-family="serif" font-style="italic">b</tspan></text>
    <text x="280" y="872.51965" fill="#0000ff" text-align="center" style="line-height:1.25" xml:space="preserve"><tspan x="280" y="872.51965" fill="#0000ff" font-family="serif" font-style="italic">c</tspan></text>
   </g>
   <g font-family="serif" font-size="40px" font-style="italic" letter-spacing="0px" text-anchor="middle" word-spacing="0px">
    <text x="170" y="822.51965" fill="#ff0000" text-align="center" style="line-height:1.25" xml:space="preserve"><tspan x="170" y="822.51965" fill="#ff0000" font-family="serif" font-style="italic">α</tspan></text>
    <text x="260" y="982.51965" fill="#008800" text-align="center" style="line-height:1.25" xml:space="preserve"><tspan x="260" y="982.51965" fill="#008800" font-family="serif" font-style="italic">β</tspan></text>
    <text x="70" y="1052.5197" fill="#0000ff" text-align="center" style="line-height:1.25" xml:space="preserve"><tspan x="70" y="1052.5197" fill="#0000ff" font-family="serif" font-style="italic">γ</tspan></text>
   </g>
   <circle cx="330" cy="992.52" r="5" fill="#080"/>
   <circle cx="20" cy="1102.5" r="5" fill="#00f"/>
   <circle cx="170" cy="742.52" r="5" fill="#f00"/>
  </g>
 </g>
</svg>
