<?xml version="1.0" encoding="UTF-8"?>
<!-- Generator: Adobe Illustrator 16.0.0, SVG Export Plug-In . SVG Version: 6.00 Build 0)  -->
<!DOCTYPE svg PUBLIC "-//W3C//DTD SVG 1.1//EN" "http://www.w3.org/Graphics/SVG/1.1/DTD/svg11.dtd">
<svg version="1.1" id="Calque_1" xmlns="http://www.w3.org/2000/svg" xmlns:xlink="http://www.w3.org/1999/xlink" x="0px" y="0px" width="600px" height="800px" viewBox="0 0 600 800" enable-background="new 0 0 600 800" xml:space="preserve">
<rect x="15" y="15" fill="#1C96E8" width="568" height="380"/>
<circle fill="#FFFFFF" cx="42.5" cy="42.5" r="12.75"/>
<rect x="15" y="404" fill="#1C96E8" width="568" height="381"/>
<path fill="#E2E21E" d="M258.817,194.132c0-34.384,16.105-65.007,41.183-84.737c-18.328-14.419-41.447-23.021-66.576-23.021  c-59.514,0-107.759,48.245-107.759,107.759s48.245,107.759,107.759,107.759c25.129,0,48.248-8.603,66.576-23.021  C274.922,259.139,258.817,228.517,258.817,194.132z"/>
<path fill="#E2E21E" d="M366.575,86.375c-25.128,0-48.248,8.602-66.575,23.021c25.077,19.73,41.183,50.354,41.183,84.737  c0,34.385-16.104,65.007-41.183,84.737c18.327,14.419,41.447,23.021,66.575,23.021c59.515,0,107.759-48.245,107.759-107.759  C474.334,134.618,426.09,86.375,366.575,86.375z"/>
<path fill="#F4CD0B" d="M341.183,194.133c0-34.384-16.104-65.007-41.183-84.737c-25.078,19.73-41.183,50.353-41.183,84.737  c0,34.385,16.105,65.007,41.183,84.737C325.077,259.14,341.183,228.518,341.183,194.133z"/>
<g>
	<path d="M225.542,201.357l-1.651-4.225h-6.583l-1.661,4.225h-2.03l5.896-14.448h2.225l5.804,14.448H225.542z M221.451,190.837   c-0.109-0.273-0.214-0.55-0.312-0.831c-0.1-0.28-0.187-0.535-0.262-0.764c-0.075-0.229-0.139-0.42-0.189-0.574   c-0.052-0.153-0.081-0.248-0.087-0.282c-0.014,0.034-0.044,0.13-0.092,0.287c-0.048,0.157-0.111,0.352-0.189,0.584   c-0.079,0.232-0.168,0.489-0.267,0.769c-0.1,0.28-0.2,0.557-0.303,0.831l-1.846,4.748h5.404L221.451,190.837z"/>
</g>
<g>
	<path d="M39.319,46.417V45.24h2.761v-8.336l-2.445,1.746v-1.307l2.561-1.761h1.276v9.659h2.638v1.177L39.319,46.417L39.319,46.417z   "/>
</g>
<circle fill="#FFFFFF" cx="42.5" cy="432.5" r="12.75"/>
<g>
	<path d="M38.911,436.419v-0.977c0.262-0.601,0.581-1.129,0.958-1.589c0.377-0.459,0.773-0.873,1.188-1.245   c0.416-0.372,0.827-0.718,1.234-1.034c0.408-0.318,0.775-0.636,1.104-0.954c0.328-0.317,0.594-0.65,0.796-1   c0.202-0.348,0.304-0.743,0.304-1.185c0-0.308-0.046-0.577-0.139-0.812c-0.093-0.234-0.226-0.43-0.4-0.589   c-0.174-0.158-0.383-0.277-0.626-0.357c-0.244-0.079-0.514-0.119-0.812-0.119c-0.277,0-0.537,0.039-0.781,0.115   c-0.243,0.077-0.46,0.192-0.649,0.348c-0.19,0.152-0.345,0.345-0.465,0.571c-0.121,0.229-0.199,0.494-0.235,0.796l-1.415-0.13   c0.046-0.39,0.154-0.757,0.323-1.101c0.169-0.343,0.402-0.646,0.7-0.903s0.655-0.463,1.073-0.611   c0.418-0.147,0.901-0.223,1.45-0.223c0.539,0,1.018,0.063,1.438,0.192c0.42,0.128,0.775,0.316,1.065,0.567   c0.29,0.252,0.511,0.562,0.665,0.932c0.154,0.368,0.23,0.795,0.23,1.275c0,0.364-0.065,0.711-0.196,1.039   c-0.131,0.328-0.305,0.642-0.523,0.938c-0.218,0.298-0.471,0.585-0.758,0.86c-0.287,0.277-0.587,0.548-0.899,0.812   c-0.313,0.265-0.628,0.524-0.946,0.784c-0.318,0.26-0.616,0.52-0.896,0.78c-0.28,0.263-0.53,0.526-0.75,0.796   c-0.221,0.27-0.392,0.551-0.515,0.843h5.652v1.177L38.911,436.419L38.911,436.419z"/>
</g>
<g>
	<path d="M387.062,197.286c0,0.731-0.145,1.355-0.432,1.872s-0.673,0.937-1.158,1.261c-0.484,0.325-1.05,0.562-1.691,0.713   c-0.643,0.151-1.319,0.226-2.03,0.226h-5.865v-14.449h5.25c0.8,0,1.516,0.067,2.145,0.2c0.629,0.134,1.162,0.344,1.6,0.631   c0.438,0.287,0.771,0.651,0.999,1.092c0.229,0.441,0.344,0.969,0.344,1.584c0,0.403-0.057,0.783-0.169,1.138   s-0.283,0.679-0.513,0.969c-0.229,0.291-0.517,0.541-0.861,0.749c-0.346,0.208-0.747,0.364-1.205,0.466   c0.581,0.068,1.097,0.202,1.543,0.4c0.448,0.198,0.822,0.451,1.123,0.759c0.302,0.308,0.53,0.665,0.688,1.071   C386.983,196.376,387.062,196.815,387.062,197.286z M384.252,190.652c0-0.779-0.267-1.336-0.8-1.671s-1.306-0.502-2.317-0.502   h-3.291v4.573h3.291c0.574,0,1.061-0.057,1.456-0.169c0.396-0.113,0.718-0.273,0.964-0.482c0.246-0.208,0.425-0.459,0.533-0.753   C384.197,191.354,384.252,191.021,384.252,190.652z M385.083,197.132c0-0.458-0.084-0.848-0.252-1.169   c-0.167-0.321-0.408-0.584-0.723-0.79c-0.315-0.206-0.692-0.355-1.134-0.451c-0.44-0.096-0.935-0.144-1.48-0.144h-3.65v5.209h3.805   c0.499,0,0.959-0.041,1.379-0.123c0.421-0.082,0.782-0.226,1.087-0.431s0.542-0.479,0.713-0.82   C384.998,198.072,385.083,197.645,385.083,197.132z"/>
</g>
<g>
	<path d="M551.089,50.253c-0.793,0-1.545-0.106-2.256-0.318s-1.335-0.542-1.872-0.99c-0.536-0.447-0.962-1.015-1.276-1.702   c-0.313-0.687-0.472-1.502-0.472-2.445V35.6h1.959v9.034c0,0.731,0.097,1.352,0.292,1.861c0.194,0.509,0.467,0.924,0.815,1.246   c0.348,0.322,0.76,0.556,1.234,0.703c0.476,0.147,0.996,0.22,1.563,0.22c0.561,0,1.091-0.075,1.59-0.226s0.937-0.39,1.312-0.718   c0.375-0.328,0.672-0.757,0.888-1.287c0.215-0.53,0.323-1.174,0.323-1.933v-8.9h1.947v9.013c0,0.964-0.158,1.8-0.478,2.507   c-0.317,0.708-0.75,1.294-1.297,1.759s-1.188,0.81-1.923,1.036C552.707,50.14,551.923,50.253,551.089,50.253z"/>
</g>
<g>
	<path d="M551.089,440.277c-0.793,0-1.545-0.105-2.256-0.317s-1.335-0.542-1.872-0.99c-0.536-0.446-0.962-1.015-1.276-1.702   c-0.313-0.687-0.472-1.502-0.472-2.444v-9.197h1.959v9.033c0,0.73,0.097,1.353,0.292,1.86c0.194,0.511,0.467,0.926,0.815,1.246   c0.348,0.321,0.76,0.557,1.234,0.702c0.476,0.147,0.996,0.222,1.563,0.222c0.561,0,1.091-0.075,1.59-0.227   c0.499-0.15,0.937-0.39,1.312-0.718s0.672-0.757,0.888-1.287c0.215-0.529,0.323-1.174,0.323-1.933v-8.9h1.947v9.013   c0,0.964-0.158,1.801-0.478,2.507c-0.317,0.709-0.75,1.295-1.297,1.76s-1.188,0.811-1.923,1.036   C552.707,440.165,551.923,440.277,551.089,440.277z"/>
</g>
<path fill="#0F7DBA" d="M258.817,584.132c0-34.385,16.105-65.008,41.183-84.737c-18.328-14.419-41.447-23.021-66.576-23.021  c-59.514,0-107.759,48.245-107.759,107.759s48.245,107.759,107.759,107.759c25.129,0,48.248-8.603,66.576-23.021  C274.922,649.139,258.817,618.517,258.817,584.132z"/>
<path fill="#0F7DBA" d="M366.575,476.375c-25.128,0-48.248,8.603-66.575,23.021c25.077,19.729,41.183,50.354,41.183,84.737  S325.077,649.141,300,668.871c18.327,14.419,41.447,23.021,66.575,23.021c59.515,0,107.759-48.245,107.759-107.759  S426.09,476.375,366.575,476.375z"/>
<path fill="#E2E21E" d="M341.183,584.133c0-34.385-16.104-65.008-41.183-84.737c-25.078,19.729-41.183,50.354-41.183,84.737  S274.922,649.14,300,668.87C325.077,649.14,341.183,618.518,341.183,584.133z"/>
<g>
	<path d="M225.542,591.356l-1.651-4.225h-6.583l-1.661,4.225h-2.03l5.896-14.447h2.225l5.804,14.447H225.542z M221.451,580.835   c-0.109-0.273-0.214-0.55-0.312-0.83c-0.1-0.28-0.187-0.535-0.262-0.764c-0.075-0.229-0.139-0.42-0.189-0.574   c-0.052-0.154-0.081-0.248-0.087-0.282c-0.014,0.034-0.044,0.13-0.092,0.287c-0.048,0.157-0.111,0.353-0.189,0.585   c-0.079,0.232-0.168,0.488-0.267,0.77c-0.1,0.279-0.2,0.558-0.303,0.83l-1.846,4.747h5.404L221.451,580.835z"/>
</g>
<g>
	<path d="M387.062,587.286c0,0.73-0.145,1.354-0.432,1.872c-0.287,0.516-0.673,0.936-1.158,1.26   c-0.484,0.326-1.05,0.562-1.691,0.713c-0.643,0.151-1.319,0.227-2.03,0.227h-5.865v-14.448h5.25c0.8,0,1.516,0.066,2.145,0.199   c0.629,0.134,1.162,0.345,1.6,0.632c0.438,0.286,0.771,0.649,0.999,1.092c0.229,0.44,0.344,0.969,0.344,1.584   c0,0.402-0.057,0.783-0.169,1.139s-0.283,0.678-0.513,0.969c-0.229,0.291-0.517,0.54-0.861,0.748   c-0.346,0.209-0.747,0.364-1.205,0.467c0.581,0.068,1.097,0.201,1.543,0.4c0.448,0.197,0.822,0.451,1.123,0.758   c0.302,0.31,0.53,0.666,0.688,1.072S387.062,586.814,387.062,587.286z M384.252,580.652c0-0.778-0.267-1.337-0.8-1.672   s-1.306-0.502-2.317-0.502h-3.291v4.572h3.291c0.574,0,1.061-0.057,1.456-0.168c0.396-0.113,0.718-0.273,0.964-0.482   s0.425-0.46,0.533-0.754C384.197,581.353,384.252,581.021,384.252,580.652z M385.083,587.133c0-0.459-0.084-0.848-0.252-1.17   c-0.167-0.32-0.408-0.584-0.723-0.789c-0.315-0.205-0.692-0.355-1.134-0.451c-0.44-0.096-0.935-0.144-1.48-0.144h-3.65v5.209h3.805   c0.499,0,0.959-0.041,1.379-0.123c0.421-0.082,0.782-0.227,1.087-0.432c0.305-0.204,0.542-0.479,0.713-0.819   S385.083,587.645,385.083,587.133z"/>
</g>
<path d="M249.492,361.995l-1.572-4.023h-6.27l-1.582,4.023h-1.934l5.615-13.76h2.119l5.527,13.76H249.492z M245.596,351.975  c-0.104-0.261-0.204-0.524-0.298-0.791s-0.177-0.51-0.249-0.728s-0.132-0.4-0.181-0.547s-0.077-0.236-0.083-0.269  c-0.013,0.032-0.042,0.124-0.088,0.273s-0.106,0.335-0.181,0.557s-0.16,0.466-0.254,0.732s-0.19,0.53-0.288,0.791l-1.758,4.521  h5.146L245.596,351.975z"/>
<path d="M267.549,351.917v5c0,0.755-0.111,1.445-0.332,2.07s-0.531,1.162-0.928,1.611s-0.868,0.798-1.411,1.045  s-1.134,0.371-1.772,0.371c-0.645,0-1.242-0.124-1.792-0.371s-1.025-0.596-1.426-1.045s-0.714-0.986-0.942-1.611  s-0.342-1.315-0.342-2.07v-5h1.006v5.02c0,0.638,0.086,1.209,0.259,1.714s0.414,0.933,0.723,1.284s0.675,0.62,1.099,0.806  s0.889,0.278,1.396,0.278s0.973-0.091,1.396-0.273s0.788-0.449,1.094-0.801s0.543-0.781,0.713-1.289s0.254-1.087,0.254-1.738v-5  H267.549z"/>
<path d="M288.105,358.118c0,0.696-0.137,1.291-0.41,1.782s-0.641,0.892-1.104,1.201s-1,0.535-1.611,0.679s-1.256,0.215-1.934,0.215  h-5.586v-13.76h5c0.762,0,1.442,0.063,2.041,0.19s1.107,0.327,1.523,0.601s0.734,0.62,0.952,1.04s0.327,0.923,0.327,1.509  c0,0.384-0.054,0.745-0.161,1.084s-0.27,0.646-0.488,0.923s-0.492,0.515-0.82,0.713s-0.711,0.347-1.147,0.444  c0.553,0.065,1.043,0.192,1.47,0.381s0.783,0.43,1.069,0.723s0.504,0.633,0.654,1.021S288.105,357.668,288.105,358.118z   M285.43,351.799c0-0.742-0.254-1.272-0.762-1.592s-1.244-0.479-2.207-0.479h-3.135v4.355h3.135c0.547,0,1.009-0.054,1.387-0.161  s0.684-0.261,0.918-0.459s0.404-0.438,0.508-0.718S285.43,352.151,285.43,351.799z M286.221,357.971c0-0.437-0.08-0.808-0.239-1.113  s-0.389-0.557-0.688-0.752s-0.659-0.339-1.079-0.43s-0.89-0.137-1.411-0.137h-3.477v4.961h3.623c0.475,0,0.913-0.039,1.313-0.117  s0.746-0.215,1.035-0.41s0.516-0.456,0.679-0.781S286.221,358.459,286.221,357.971z"/>
<path d="M295.693,352.659v-1.445h9.717v1.445H295.693z M295.693,356.135v-1.445h9.717v1.445H295.693z M295.693,359.612v-1.445h9.717  v1.445H295.693z"/>
<path d="M322.236,361.995l-1.572-4.023h-6.27l-1.582,4.023h-1.934l5.615-13.76h2.119l5.527,13.76H322.236z M318.34,351.975  c-0.104-0.261-0.203-0.524-0.298-0.791s-0.177-0.51-0.249-0.728s-0.132-0.4-0.181-0.547s-0.077-0.236-0.083-0.269  c-0.014,0.032-0.043,0.124-0.088,0.273s-0.105,0.335-0.181,0.557s-0.159,0.466-0.254,0.732s-0.19,0.53-0.288,0.791l-1.758,4.521  h5.146L318.34,351.975z"/>
<path d="M331.348,362.014v-5c0-0.755,0.111-1.445,0.332-2.07s0.531-1.162,0.928-1.611s0.867-0.798,1.411-1.045  s1.134-0.371,1.772-0.371c0.645,0,1.242,0.124,1.792,0.371s1.025,0.596,1.426,1.045s0.714,0.986,0.942,1.611s0.342,1.315,0.342,2.07  v5h-1.006v-5.02c0-0.638-0.086-1.209-0.259-1.714s-0.413-0.933-0.723-1.284s-0.675-0.62-1.099-0.806s-0.889-0.278-1.396-0.278  s-0.973,0.091-1.396,0.273s-0.787,0.449-1.094,0.801s-0.543,0.781-0.713,1.289s-0.254,1.087-0.254,1.738v5H331.348z"/>
<path d="M360.85,358.118c0,0.696-0.137,1.291-0.41,1.782s-0.641,0.892-1.104,1.201s-1,0.535-1.611,0.679s-1.256,0.215-1.934,0.215  h-5.586v-13.76h5c0.762,0,1.441,0.063,2.041,0.19s1.107,0.327,1.523,0.601s0.734,0.62,0.952,1.04s0.327,0.923,0.327,1.509  c0,0.384-0.054,0.745-0.161,1.084s-0.271,0.646-0.488,0.923s-0.491,0.515-0.82,0.713s-0.712,0.347-1.147,0.444  c0.553,0.065,1.043,0.192,1.47,0.381s0.782,0.43,1.069,0.723s0.504,0.633,0.654,1.021S360.85,357.668,360.85,358.118z   M358.174,351.799c0-0.742-0.254-1.272-0.762-1.592s-1.244-0.479-2.207-0.479h-3.135v4.355h3.135c0.547,0,1.01-0.054,1.387-0.161  s0.684-0.261,0.918-0.459s0.404-0.438,0.508-0.718S358.174,352.151,358.174,351.799z M358.965,357.971  c0-0.437-0.08-0.808-0.239-1.113s-0.39-0.557-0.688-0.752s-0.659-0.339-1.079-0.43s-0.89-0.137-1.411-0.137h-3.477v4.961h3.623  c0.475,0,0.913-0.039,1.313-0.117s0.745-0.215,1.035-0.41s0.517-0.456,0.679-0.781S358.965,358.459,358.965,357.971z"/>
<rect x="238.167" y="343.745" width="50" height="1.5"/>
<rect x="311.343" y="343.745" width="12.334" height="1.5"/>
<rect x="348.5" y="343.745" width="12.334" height="1.5"/>
<path d="M249.492,753.432l-1.572-4.024h-6.27l-1.582,4.024h-1.934l5.615-13.761h2.119l5.527,13.761H249.492z M245.596,743.411  c-0.104-0.261-0.204-0.524-0.298-0.791s-0.177-0.51-0.249-0.728s-0.132-0.4-0.181-0.547s-0.077-0.236-0.083-0.269  c-0.013,0.032-0.042,0.124-0.088,0.273s-0.106,0.335-0.181,0.557s-0.16,0.466-0.254,0.732s-0.19,0.53-0.288,0.791l-1.758,4.521  h5.146L245.596,743.411z"/>
<path d="M258.604,753.453v-5c0-0.755,0.111-1.445,0.332-2.07s0.531-1.162,0.928-1.612c0.397-0.449,0.868-0.798,1.411-1.045  s1.134-0.371,1.772-0.371c0.645,0,1.242,0.124,1.792,0.371s1.025,0.596,1.426,1.045c0.4,0.45,0.714,0.987,0.942,1.612  s0.342,1.315,0.342,2.07v5h-1.006v-5.02c0-0.638-0.086-1.209-0.259-1.714s-0.414-0.933-0.723-1.284s-0.675-0.621-1.099-0.807  s-0.889-0.278-1.396-0.278s-0.973,0.091-1.396,0.273s-0.788,0.45-1.094,0.802s-0.543,0.781-0.713,1.289s-0.254,1.087-0.254,1.738v5  H258.604z"/>
<path d="M288.105,749.554c0,0.696-0.137,1.291-0.41,1.782s-0.641,0.893-1.104,1.202s-1,0.535-1.611,0.679s-1.256,0.215-1.934,0.215  h-5.586v-13.761h5c0.762,0,1.442,0.063,2.041,0.19s1.107,0.327,1.523,0.601s0.734,0.62,0.952,1.04s0.327,0.923,0.327,1.509  c0,0.384-0.054,0.745-0.161,1.084s-0.27,0.646-0.488,0.923s-0.492,0.515-0.82,0.713s-0.711,0.347-1.147,0.444  c0.553,0.065,1.043,0.192,1.47,0.381s0.783,0.43,1.069,0.723s0.504,0.633,0.654,1.021S288.105,749.104,288.105,749.554z   M285.43,743.235c0-0.742-0.254-1.272-0.762-1.592s-1.244-0.479-2.207-0.479h-3.135v4.355h3.135c0.547,0,1.009-0.054,1.387-0.161  s0.684-0.261,0.918-0.459s0.404-0.438,0.508-0.718S285.43,743.587,285.43,743.235z M286.221,749.407c0-0.437-0.08-0.808-0.239-1.113  s-0.389-0.557-0.688-0.752s-0.659-0.339-1.079-0.43s-0.89-0.137-1.411-0.137h-3.477v4.962h3.623c0.475,0,0.913-0.04,1.313-0.118  s0.746-0.215,1.035-0.41s0.516-0.456,0.679-0.781S286.221,749.896,286.221,749.407z"/>
<path d="M295.693,744.095v-1.445h9.717v1.445H295.693z M295.693,747.571v-1.445h9.717v1.445H295.693z M295.693,751.048v-1.445h9.717  v1.445H295.693z"/>
<path d="M322.236,753.432l-1.572-4.024h-6.27l-1.582,4.024h-1.934l5.615-13.761h2.119l5.527,13.761H322.236z M318.34,743.411  c-0.104-0.261-0.203-0.524-0.298-0.791s-0.177-0.51-0.249-0.728s-0.132-0.4-0.181-0.547s-0.077-0.236-0.083-0.269  c-0.014,0.032-0.043,0.124-0.088,0.273s-0.105,0.335-0.181,0.557s-0.159,0.466-0.254,0.732s-0.19,0.53-0.288,0.791l-1.758,4.521  h5.146L318.34,743.411z"/>
<path d="M340.293,743.33v5.001c0,0.755-0.111,1.445-0.332,2.07s-0.531,1.162-0.928,1.611s-0.867,0.798-1.411,1.045  s-1.134,0.371-1.772,0.371c-0.645,0-1.242-0.124-1.792-0.371s-1.025-0.596-1.426-1.045s-0.714-0.986-0.942-1.611  s-0.342-1.315-0.342-2.07v-5.001h1.006v5.021c0,0.638,0.086,1.209,0.259,1.714s0.413,0.933,0.723,1.284s0.675,0.62,1.099,0.806  s0.889,0.278,1.396,0.278s0.973-0.091,1.396-0.273s0.787-0.449,1.094-0.801s0.543-0.781,0.713-1.289s0.254-1.087,0.254-1.738v-5.001  H340.293z"/>
<path d="M360.85,749.554c0,0.696-0.137,1.291-0.41,1.782s-0.641,0.893-1.104,1.202s-1,0.535-1.611,0.679s-1.256,0.215-1.934,0.215  h-5.586v-13.761h5c0.762,0,1.441,0.063,2.041,0.19s1.107,0.327,1.523,0.601s0.734,0.62,0.952,1.04s0.327,0.923,0.327,1.509  c0,0.384-0.054,0.745-0.161,1.084s-0.271,0.646-0.488,0.923s-0.491,0.515-0.82,0.713s-0.712,0.347-1.147,0.444  c0.553,0.065,1.043,0.192,1.47,0.381s0.782,0.43,1.069,0.723s0.504,0.633,0.654,1.021S360.85,749.104,360.85,749.554z   M358.174,743.235c0-0.742-0.254-1.272-0.762-1.592s-1.244-0.479-2.207-0.479h-3.135v4.355h3.135c0.547,0,1.01-0.054,1.387-0.161  s0.684-0.261,0.918-0.459s0.404-0.438,0.508-0.718S358.174,743.587,358.174,743.235z M358.965,749.407  c0-0.437-0.08-0.808-0.239-1.113s-0.39-0.557-0.688-0.752s-0.659-0.339-1.079-0.43s-0.89-0.137-1.411-0.137h-3.477v4.962h3.623  c0.475,0,0.913-0.04,1.313-0.118s0.745-0.215,1.035-0.41s0.517-0.456,0.679-0.781S358.965,749.896,358.965,749.407z"/>
<rect x="238.167" y="735.181" width="50" height="1.5"/>
<rect x="311.343" y="735.181" width="12.334" height="1.5"/>
<rect x="348.5" y="735.181" width="12.334" height="1.5"/>
</svg>