<?xml version="1.0" encoding="utf-8"?>
<!-- Generator: Adobe Illustrator 19.1.0, SVG Export Plug-In . SVG Version: 6.00 Build 0)  -->
<svg version="1.1" id="Layer_1" xmlns="http://www.w3.org/2000/svg" xmlns:xlink="http://www.w3.org/1999/xlink" x="0px" y="0px"
	 viewBox="0 0 480 350.5" style="enable-background:new 0 0 480 350.5;" xml:space="preserve">
<style type="text/css">
	.st0{fill:none;stroke:#000000;stroke-miterlimit:10;}
	.st1{fill:#0C7F99;}
	.st2{fill:none;stroke:#0C7F99;stroke-miterlimit:10;}
	.st3{fill:#E65A4C;}
	.st4{fill:#C42420;}
	.st5{fill:none;stroke:#C42420;stroke-miterlimit:10;}
	.st6{fill:none;stroke:#000000;stroke-width:2;stroke-miterlimit:10;}
</style>
<circle cx="243.3" cy="210.3" r="5.9"/>
<line class="st0" x1="243.6" y1="205.9" x2="243.8" y2="162.4"/>
<polygon points="235.9,164 243.3,151.3 250.6,164 "/>
<line class="st0" x1="192.4" y1="212.5" x2="150" y2="167.3"/>
<polygon points="145,173.6 142.1,159.2 156,163.9 "/>
<line class="st0" x1="286.1" y1="213" x2="330.9" y2="170.2"/>
<polygon points="324.6,165.3 338.9,162.3 334.4,176.2 "/>
<path d="M164.5,18.2c0-2.3-1.1-2.4-1.4-2.4c-0.9,0-1.6,0.9-1.6,1.6c0,0.4,0.3,0.7,0.4,0.8c0.4,0.3,1.3,1.3,1.3,3.1
	c0,1.5-2.1,9.9-6.4,9.9c-2.2,0-2.6-1.8-2.6-3.1c0-1.8,0.8-4.3,1.8-6.9c0.6-1.5,0.7-1.8,0.7-2.5c0-1.5-1.1-2.9-2.8-2.9
	c-3.3,0-4.6,5.2-4.6,5.5l0.4,0.3c0.3,0,0.4-0.1,0.5-0.6c0.9-3.1,2.3-4.4,3.6-4.4c0.3,0,0.9,0,0.9,1.2c0,0.9-0.4,2-0.9,3.3
	c-1.7,4.6-1.7,5.7-1.7,6.5c0,0.8,0.1,2.3,1.2,3.3c1.3,1.1,3.1,1.1,3.4,1.1C162.5,32,164.5,20.3,164.5,18.2z M135.6,31.4
	c-3.4,0-3.9-2.6-3.9-4.1c0-1.6,1-5.3,1.5-6.6c0.5-1.1,2.5-4.7,6.2-4.7c3.3,0,4,2.8,4,4.8C143.4,23.4,141.1,31.4,135.6,31.4z
	 M144,19.6c-0.2-2-1.5-4.4-4.7-4.4c-5,0-10.2,5.1-10.2,10.8c0,2.2,1.5,6.3,6.4,6.3c8.4,0,12.1-12.3,12.1-17.2c0-5.1-2.9-9.1-7.5-9.1
	c-5.2,0-6.7,4.5-6.7,5.5c0,0.3,0.2,1.1,1.2,1.1c1.3,0,1.8-1.1,1.8-1.8c0-1.1-1.1-1.1-1.6-1.1c1.5-2.6,4.2-2.9,5.1-2.9
	c3.1,0,5.1,2.5,5.1,6.5C145.1,15.7,144.4,18.3,144,19.6L144,19.6z"/>
<path d="M172.6,21.8c0-0.6,0-0.7-0.7-0.7c-1,1-2.2,1.5-4.5,1.5v0.8c0.6,0,1.9,0,3.3-0.6V35c0,0.9-0.1,1.2-2.3,1.2h-0.8V37
	c1-0.1,3-0.1,4.1-0.1c1.1,0,3.1,0,4.1,0.1v-0.8H175c-2.3,0-2.3-0.3-2.3-1.2V21.8z"/>
<polyline points="127.8,46.1 179.3,46.1 179.3,47.6 127.8,47.6 "/>
<path d="M141.2,80.1c-3.4,0-3.9-2.6-3.9-4.1c0-1.6,1-5.3,1.5-6.6c0.5-1.1,2.5-4.7,6.2-4.7c3.3,0,4,2.8,4,4.8
	C149,72.1,146.7,80.1,141.2,80.1z M149.6,68.4c-0.2-2-1.5-4.4-4.7-4.4c-5,0-10.2,5.1-10.2,10.8c0,2.2,1.5,6.3,6.4,6.3
	c8.4,0,12.1-12.3,12.1-17.2c0-5.1-2.9-9.1-7.5-9.1c-5.2,0-6.7,4.5-6.7,5.5c0,0.3,0.2,1.1,1.2,1.1c1.3,0,1.8-1.1,1.8-1.8
	c0-1.1-1.1-1.1-1.6-1.1c1.5-2.6,4.2-2.9,5.1-2.9c3.1,0,5.1,2.5,5.1,6.5C150.7,64.4,150,67.1,149.6,68.4L149.6,68.4z"/>
<path d="M194.5,64.5c0-0.1,0-0.2-0.6-0.8c-3.6-3.6-5.6-9.5-5.6-16.8c0-6.9,1.7-12.9,5.8-17.1c0.4-0.3,0.4-0.4,0.4-0.5l-0.3-0.3
	c-0.5,0-3.4,2.6-5.1,6.1c-1.8,3.6-2.6,7.4-2.6,11.8c0,3.2,0.5,7.4,2.4,11.3c2.1,4.3,5,6.6,5.4,6.6L194.5,64.5z"/>
<path class="st1" d="M213.5,41.2c-1.1,0.2-1.6,1.1-1.6,1.8c0,0.9,0.7,1.1,1.2,1.1c1.1,0,1.8-0.9,1.8-1.9c0-1.5-1.7-2.2-3.2-2.2
	c-2.2,0-3.4,2.1-3.7,2.8c-0.8-2.7-3-2.8-3.7-2.8c-3.6,0-5.6,4.7-5.6,5.5l0.4,0.3c0.3,0,0.4-0.2,0.4-0.4c1.2-4,3.6-4.7,4.6-4.7
	c1.6,0,1.9,1.5,1.9,2.4c0,0.8-0.2,1.6-0.6,3.3l-1.2,4.9c-0.5,2.1-1.6,4.1-3.5,4.1c-0.2,0-1.1,0-1.8-0.5c1.3-0.3,1.6-1.3,1.6-1.8
	c0-0.7-0.5-1.1-1.2-1.1c-0.9,0-1.8,0.8-1.8,1.9c0,1.5,1.7,2.2,3.2,2.2c1.7,0,2.9-1.4,3.7-2.8c0.6,2.1,2.4,2.8,3.7,2.8
	c3.6,0,5.6-4.7,5.6-5.5l-0.4-0.3c-0.3,0-0.4,0.2-0.5,0.5c-1,3.1-3,4.6-4.6,4.6c-1.3,0-1.9-0.9-1.9-2.4c0-0.8,0.1-1.4,0.7-3.7
	l1.3-4.9c0.5-2.1,1.8-3.7,3.4-3.7C211.7,40.7,212.7,40.7,213.5,41.2z"/>
<path class="st1" d="M222.8,61c-0.8,0-2.5-0.4-3-2.9c-0.3-1.4-0.3-3.6-0.3-4.8c0-1.6,0-3.3,0.3-4.6c0.5-2.4,2.4-2.7,3-2.7
	c0.8,0,2.5,0.4,2.9,2.6c0.3,1.3,0.3,3.1,0.3,4.7c0,1.4,0,3.6-0.3,4.9C225.2,60.7,223.5,61,222.8,61z M228.1,53.6
	c0-2.6-0.3-4.1-1-5.6c-1-2.1-3-2.6-4.3-2.6c-3,0-4.1,2.2-4.4,2.9c-0.9,1.7-0.9,4.1-0.9,5.3c0,1.6,0.1,4,1.2,5.9
	c1.1,1.8,2.9,2.2,4.1,2.2c1.1,0,3.2-0.4,4.4-2.7C228,57.2,228.1,55.1,228.1,53.6z"/>
<path d="M255.7,59.8c-1,1.4-2.4,2.6-4.1,2.6c-0.4,0-2.1-0.1-2.7-1.7l0.4,0c1.1,0,1.8-0.9,1.8-1.8s-0.7-1.1-1.2-1.1
	c-0.6,0-1.8,0.4-1.8,2.2c0,1.8,1.5,3.1,3.6,3.1c3.6,0,7.2-3.3,8.2-7.3l3.5-13.9l0.1-0.6c0-0.5-0.4-0.9-1-0.9c-0.3,0-1.1,0.1-1.4,1.2
	l-2.6,10.5c-0.2,0.6-0.2,0.7-0.5,1.1c-0.7,1-1.9,2.2-3.6,2.2c-2,0-2.2-2-2.2-2.9c0-2,1-4.8,1.9-7.4c0.4-1,0.6-1.5,0.6-2.3
	c0-1.5-1.1-2.9-2.8-2.9c-3.3,0-4.6,5.2-4.6,5.5l0.4,0.3c0.3,0,0.4-0.1,0.5-0.6c0.9-3,2.2-4.4,3.6-4.4c0.3,0,0.9,0,0.9,1.2
	c0,0.9-0.4,2-0.9,3.3c-1.8,4.7-1.8,5.9-1.8,6.7c0,3.4,2.4,4.2,4.2,4.2c1,0,2.3-0.3,3.6-1.6l0,0C257.3,56.7,257,58.1,255.7,59.8z
	 M237.6,55.9c0-2.1-0.7-3.6-2.1-3.6c-1.1,0-1.7,0.9-1.7,1.7c0,0.8,0.5,1.8,1.8,1.8c0.5,0,0.9-0.1,1.2-0.5l0.1-0.1l0.1,0.7
	c0,1.2-0.2,3.5-2.3,5.8c-0.4,0.4-0.4,0.5-0.4,0.6l0.4,0.4C234.8,62.7,237.6,60.1,237.6,55.9z"/>
<path d="M269.7,61c-0.8,0-2.5-0.4-3-2.9c-0.3-1.4-0.3-3.6-0.3-4.8c0-1.6,0-3.3,0.3-4.6c0.5-2.4,2.4-2.7,3-2.7c0.8,0,2.5,0.4,2.9,2.6
	c0.3,1.3,0.3,3.1,0.3,4.7c0,1.4,0,3.6-0.3,4.9C272.1,60.7,270.5,61,269.7,61z M275,53.6c0-2.6-0.3-4.1-1-5.6c-1-2.1-3-2.6-4.3-2.6
	c-3,0-4.1,2.2-4.4,2.9c-0.9,1.7-0.9,4.1-0.9,5.3c0,1.6,0.1,4,1.2,5.9c1.1,1.8,2.9,2.2,4.1,2.2c1.1,0,3.2-0.4,4.4-2.7
	C275,57.2,275,55.1,275,53.6z"/>
<path d="M287.6,46.9c0-2.7-0.4-7.2-2.4-11.3c-2.1-4.3-5-6.6-5.4-6.6l-0.3,0.3c0,0.1,0,0.2,0.6,0.8c3.6,3.6,5.6,9.5,5.6,16.8
	c0,6.9-1.7,12.9-5.8,17.1c-0.4,0.3-0.4,0.4-0.4,0.5l0.3,0.3c0.5,0,3.4-2.6,5.1-6.1C286.8,55.1,287.6,51.2,287.6,46.9z"/>
<path d="M324.7,47.6c0.7-0.3,0.7-0.5,0.7-0.8c0-0.2-0.1-0.5-0.7-0.8l-19.3-8.9c-0.5-0.2-0.5-0.3-0.6-0.3c-0.4,0-0.7,0.4-0.7,0.6
	c0,0.4,0.3,0.6,0.8,0.8l18.4,8.5l-18.4,8.5c-0.7,0.3-0.7,0.6-0.7,0.8c0,0.3,0.3,0.6,0.7,0.6c0.1,0,0.1,0,0.6-0.3L324.7,47.6z"/>
<path d="M347,55.8c-1.1,0-3.5-0.6-4.1-4.5c-0.4-2.1-0.4-4.9-0.4-7.4c0-2.9,0-5.6,0.6-7.7c0.6-2.4,2.4-3.5,4-3.5
	c1.4,0,3.4,0.8,4.1,3.9c0.5,2,0.5,4.9,0.5,7.3c0,2.4,0,5.1-0.4,7.3C350.5,55.2,348.3,55.8,347,55.8z M354.3,44.4
	c0-3-0.2-5.9-1.5-8.6c-1.5-3-4-3.8-5.8-3.8c-2.1,0-4.6,1-5.9,4c-1,2.3-1.4,4.5-1.4,8.3c0,3.5,0.3,6.1,1.5,8.6
	c1.4,2.7,3.9,3.6,5.7,3.6c3.1,0,4.9-1.9,5.9-3.9C354.3,49.9,354.3,46.4,354.3,44.4z"/>
<path d="M222.5,236.1c0-0.1,0-0.1-0.3-0.4c-1.8-1.8-2.8-4.9-2.8-8.6c0-3.5,0.9-6.6,3-8.7c0.2-0.2,0.2-0.2,0.2-0.3l-0.2-0.1
	c-0.2,0-1.7,1.3-2.6,3.1c-0.9,1.8-1.4,3.8-1.4,6c0,1.6,0.3,3.8,1.2,5.8c1.1,2.2,2.6,3.4,2.8,3.4L222.5,236.1z"/>
<path d="M232.2,224.2c-0.6,0.1-0.8,0.5-0.8,0.9c0,0.4,0.3,0.6,0.6,0.6c0.5,0,0.9-0.5,0.9-1c0-0.8-0.9-1.1-1.6-1.1
	c-1.1,0-1.7,1.1-1.9,1.4c-0.4-1.4-1.6-1.4-1.9-1.4c-1.9,0-2.8,2.4-2.8,2.8l0.2,0.2c0.1,0,0.2-0.1,0.2-0.2c0.6-2,1.8-2.4,2.4-2.4
	c0.8,0,1,0.8,1,1.2c0,0.4-0.1,0.8-0.3,1.7l-0.6,2.5c-0.3,1.1-0.8,2.1-1.8,2.1c-0.1,0-0.5,0-0.9-0.2c0.7-0.1,0.8-0.7,0.8-0.9
	c0-0.4-0.3-0.6-0.6-0.6c-0.4,0-0.9,0.4-0.9,1c0,0.8,0.9,1.1,1.6,1.1c0.9,0,1.5-0.7,1.9-1.4c0.3,1.1,1.2,1.4,1.9,1.4
	c1.9,0,2.8-2.4,2.8-2.8l-0.2-0.2c-0.2,0-0.2,0.1-0.2,0.2c-0.5,1.6-1.6,2.4-2.4,2.4c-0.6,0-1-0.5-1-1.2c0-0.4,0.1-0.7,0.4-1.9
	l0.6-2.5c0.3-1.1,0.9-1.9,1.7-1.9C231.3,224,231.8,224,232.2,224.2z"/>
<path d="M237,234.3c-0.4,0-1.3-0.2-1.5-1.5c-0.1-0.7-0.1-1.8-0.1-2.5c0-0.8,0-1.7,0.1-2.4c0.3-1.2,1.2-1.4,1.5-1.4
	c0.4,0,1.3,0.2,1.5,1.3c0.1,0.7,0.1,1.6,0.1,2.4c0,0.7,0,1.8-0.1,2.5C238.2,234.2,237.4,234.3,237,234.3z M239.7,230.5
	c0-1.3-0.1-2.1-0.5-2.9c-0.5-1.1-1.5-1.3-2.2-1.3c-1.5,0-2.1,1.1-2.3,1.5c-0.4,0.9-0.5,2.1-0.5,2.7c0,0.8,0,2,0.6,3
	c0.6,0.9,1.5,1.1,2.1,1.1c0.6,0,1.6-0.2,2.2-1.4C239.7,232.4,239.7,231.3,239.7,230.5z"/>
<path d="M253.8,233.7c-0.5,0.7-1.2,1.3-2.1,1.3c-0.2,0-1.1,0-1.4-0.9l0.2,0c0.5,0,0.9-0.5,0.9-0.9c0-0.4-0.3-0.6-0.6-0.6
	c-0.3,0-0.9,0.2-0.9,1.1c0,0.9,0.8,1.6,1.8,1.6c1.8,0,3.7-1.7,4.2-3.7l1.8-7.1l0.1-0.3c0-0.3-0.2-0.5-0.5-0.5
	c-0.2,0-0.5,0.1-0.7,0.6l-1.4,5.4c-0.1,0.3-0.1,0.4-0.2,0.6c-0.4,0.5-1,1.1-1.8,1.1c-1,0-1.1-1-1.1-1.5c0-1,0.5-2.4,1-3.8
	c0.2-0.5,0.3-0.8,0.3-1.2c0-0.8-0.5-1.5-1.4-1.5c-1.7,0-2.4,2.6-2.4,2.8l0.2,0.2c0.2,0,0.2-0.1,0.3-0.3c0.4-1.5,1.1-2.3,1.8-2.3
	c0.2,0,0.5,0,0.5,0.6c0,0.5-0.2,1-0.5,1.7c-0.9,2.4-0.9,3-0.9,3.4c0,1.7,1.2,2.1,2.2,2.1c0.5,0,1.2-0.2,1.8-0.8l0,0
	C254.6,232.1,254.4,232.8,253.8,233.7z M244.5,231.8c0-1.1-0.3-1.8-1.1-1.8c-0.6,0-0.9,0.5-0.9,0.9s0.3,0.9,0.9,0.9
	c0.2,0,0.4-0.1,0.6-0.2l0.1,0l0,0.3c0,0.6-0.1,1.8-1.2,3c-0.2,0.2-0.2,0.3-0.2,0.3l0.2,0.2C243.1,235.2,244.5,233.9,244.5,231.8z"/>
<path d="M260.9,234.3c-0.4,0-1.3-0.2-1.5-1.5c-0.1-0.7-0.1-1.8-0.1-2.5c0-0.8,0-1.7,0.1-2.4c0.3-1.2,1.2-1.4,1.5-1.4
	c0.4,0,1.3,0.2,1.5,1.3c0.1,0.7,0.1,1.6,0.1,2.4c0,0.7,0,1.8-0.1,2.5C262.2,234.2,261.3,234.3,260.9,234.3z M263.7,230.5
	c0-1.3-0.1-2.1-0.5-2.9c-0.5-1.1-1.5-1.3-2.2-1.3c-1.5,0-2.1,1.1-2.3,1.5c-0.4,0.9-0.5,2.1-0.5,2.7c0,0.8,0,2,0.6,3
	c0.6,0.9,1.5,1.1,2.1,1.1c0.6,0,1.6-0.2,2.2-1.4C263.6,232.4,263.7,231.3,263.7,230.5z"/>
<path d="M270.1,227.1c0-1.4-0.2-3.7-1.2-5.8c-1.1-2.2-2.6-3.4-2.8-3.4l-0.2,0.1c0,0.1,0,0.1,0.3,0.4c1.8,1.8,2.8,4.9,2.8,8.6
	c0,3.5-0.9,6.6-3,8.7c-0.2,0.2-0.2,0.2-0.2,0.3l0.2,0.1c0.2,0,1.7-1.3,2.6-3.1C269.7,231.3,270.1,229.3,270.1,227.1z"/>
<path class="st1" d="M170.7,65.8c-1.1,0.2-1.6,1.1-1.6,1.8c0,0.9,0.7,1.1,1.2,1.1c1.1,0,1.8-0.9,1.8-1.9c0-1.5-1.7-2.2-3.2-2.2
	c-2.2,0-3.4,2.1-3.7,2.8c-0.8-2.7-3-2.8-3.7-2.8c-3.6,0-5.6,4.7-5.6,5.5l0.4,0.3c0.3,0,0.4-0.2,0.4-0.4c1.2-4,3.6-4.7,4.6-4.7
	c1.6,0,1.9,1.5,1.9,2.4c0,0.8-0.2,1.6-0.6,3.3l-1.2,4.9c-0.5,2.1-1.6,4.1-3.5,4.1c-0.2,0-1.1,0-1.8-0.5c1.3-0.3,1.6-1.3,1.6-1.8
	c0-0.7-0.5-1.1-1.2-1.1c-0.9,0-1.8,0.8-1.8,1.9c0,1.5,1.7,2.2,3.2,2.2c1.7,0,2.9-1.4,3.7-2.8c0.6,2.1,2.4,2.8,3.7,2.8
	c3.6,0,5.6-4.7,5.6-5.5l-0.4-0.3c-0.3,0-0.4,0.2-0.5,0.5c-1,3.1-3,4.6-4.6,4.6c-1.3,0-1.9-0.9-1.9-2.4c0-0.8,0.1-1.4,0.7-3.7
	l1.3-4.9c0.5-2.1,1.8-3.7,3.4-3.7C169,65.3,170,65.3,170.7,65.8z"/>
<line class="st2" x1="22" y1="262.5" x2="452" y2="262.5"/>
<polygon class="st1" points="452.1,273 451.9,252.2 470,262.4 "/>
<path d="M340.7,295.3c0.3-4.9,3-5.5,3.9-5.5c3.4,0,3.6,4.4,3.6,5.5H340.7z M349.3,295.9c0.7,0,0.8,0,0.8-0.6c0-3.2-1.7-6.1-5.5-6.1
	c-3.6,0-6.3,3.2-6.3,7.1c0,4.1,3.2,7.2,6.7,7.2c3.7,0,5.2-3.4,5.2-4.1l-0.3-0.3c-0.3,0-0.3,0.2-0.4,0.3c-0.8,2.6-2.9,3.4-4.2,3.4
	c-1.3,0-4.5-0.9-4.5-6.3v-0.6H349.3z M334.2,295.5c0-2.9,0-3.8-0.7-4.8c-0.9-1.2-2.4-1.4-3.5-1.4c-2.7,0-4,2-4.4,3h0v-11l-4.4,0.3
	v0.9c2.1,0,2.4,0.2,2.4,1.8v16.5c0,1.4-0.3,1.4-2.4,1.4v0.9c0.8-0.1,2.5-0.1,3.4-0.1c0.9,0,2.6,0,3.4,0.1v-0.9c-2,0-2.4,0-2.4-1.4
	V295c0-3.3,2.2-5.1,4.1-5.1c1.9,0,2.4,1.6,2.4,3.5v7.4c0,1.4-0.3,1.4-2.4,1.4v0.9c0.8-0.1,2.5-0.1,3.4-0.1c0.9,0,2.6,0,3.4,0.1v-0.9
	c-1.6,0-2.4,0-2.4-0.9V295.5z M313.5,290.5h4.4v-0.9h-4.4v-5.8h-0.7c0,3-1.2,6-4,6.1v0.6h2.7v8.7c0,3.5,2.3,4.2,4,4.2
	c2,0,3-1.9,3-4.2v-1.8h-0.7v1.7c0,2.3-0.9,3.6-2.1,3.6c-2.1,0-2.1-2.9-2.1-3.5V290.5z M291.2,302.8c-1.2,0-2.6-0.5-3.5-2
	c-0.8-1.4-0.9-3.3-0.9-4.6c0-1.2,0-3.1,1-4.5c0.9-1.4,2.3-1.9,3.4-1.9c1.2,0,2.5,0.6,3.4,1.8c1,1.4,1,3.4,1,4.6c0,1.1,0,3-0.8,4.5
	C293.8,302.2,292.4,302.8,291.2,302.8z M297.9,296.4c0-4.1-3.1-7.3-6.7-7.3c-3.8,0-6.8,3.3-6.8,7.3c0,4,3.1,7,6.7,7
	C294.9,303.5,297.9,300.4,297.9,296.4z M276.8,290.5h4.4v-0.9h-4.4v-5.8h-0.7c0,3-1.2,6-4,6.1v0.6h2.7v8.7c0,3.5,2.3,4.2,4,4.2
	c2,0,3-1.9,3-4.2v-1.8h-0.7v1.7c0,2.3-0.9,3.6-2.1,3.6c-2.1,0-2.1-2.9-2.1-3.5V290.5z M251.9,295.3c0.3-4.9,3-5.5,3.9-5.5
	c3.4,0,3.6,4.4,3.6,5.5H251.9z M260.5,295.9c0.7,0,0.8,0,0.8-0.6c0-3.2-1.7-6.1-5.5-6.1c-3.6,0-6.3,3.2-6.3,7.1
	c0,4.1,3.2,7.2,6.7,7.2c3.7,0,5.2-3.4,5.2-4.1l-0.3-0.3c-0.3,0-0.3,0.2-0.4,0.3c-0.8,2.6-2.9,3.4-4.2,3.4c-1.3,0-4.5-0.9-4.5-6.3
	v-0.6H260.5z M241.8,295.8c0-3,1.3-5.9,3.7-5.9c0.3,0,0.3,0,0.4,0c-0.3,0.1-0.8,0.3-0.8,1.2c0,0.9,0.7,1.3,1.2,1.3
	c0.6,0,1.3-0.4,1.3-1.3c0-0.9-0.8-1.8-2.2-1.8c-2.7,0-3.6,2.9-3.8,3.5h0v-3.5l-4.2,0.3v0.9c2.1,0,2.4,0.2,2.4,1.8v8.5
	c0,1.4-0.3,1.4-2.4,1.4v0.9c0.9-0.1,2.6-0.1,3.6-0.1c0.8,0,3.1,0,3.8,0.1v-0.9h-0.6c-2.3,0-2.4-0.3-2.4-1.5V295.8z M228.8,302.8
	c-1.2,0-2.6-0.5-3.5-2c-0.8-1.4-0.9-3.3-0.9-4.6c0-1.2,0-3.1,1-4.5c0.9-1.4,2.3-1.9,3.4-1.9c1.2,0,2.5,0.6,3.4,1.8
	c1,1.4,1,3.4,1,4.6c0,1.1,0,3-0.8,4.5C231.5,302.2,230,302.8,228.8,302.8z M235.6,296.4c0-4.1-3.1-7.3-6.7-7.3
	c-3.8,0-6.8,3.3-6.8,7.3c0,4,3.1,7,6.7,7C232.5,303.5,235.6,300.4,235.6,296.4z M218,295.5c0-2.9,0-3.8-0.7-4.8
	c-0.9-1.2-2.4-1.4-3.5-1.4c-2.6,0-3.9,1.9-4.4,3.1c-0.4-2.4-2.1-3.1-4.1-3.1c-3,0-4.2,2.6-4.5,3.2h0v-3.2l-4.3,0.3v0.9
	c2.1,0,2.4,0.2,2.4,1.8v8.5c0,1.4-0.3,1.4-2.4,1.4v0.9c0.8-0.1,2.5-0.1,3.4-0.1c0.9,0,2.6,0,3.4,0.1v-0.9c-2,0-2.4,0-2.4-1.4V295
	c0-3.3,2.2-5.1,4.1-5.1c1.9,0,2.4,1.6,2.4,3.5v7.4c0,1.4-0.3,1.4-2.4,1.4v0.9c0.8-0.1,2.5-0.1,3.4-0.1c0.9,0,2.6,0,3.4,0.1v-0.9
	c-2,0-2.4,0-2.4-1.4V295c0-3.3,2.2-5.1,4.1-5.1s2.4,1.6,2.4,3.5v7.4c0,1.4-0.3,1.4-2.4,1.4v0.9c0.8-0.1,2.5-0.1,3.4-0.1
	c0.9,0,2.6,0,3.4,0.1v-0.9c-1.6,0-2.4,0-2.4-0.9V295.5z M179.4,290.5h4.4v-0.9h-4.4v-5.8h-0.7c0,3-1.2,6-4,6.1v0.6h2.7v8.7
	c0,3.5,2.3,4.2,4,4.2c2,0,3-1.9,3-4.2v-1.8h-0.7v1.7c0,2.3-0.9,3.6-2.1,3.6c-2.1,0-2.1-2.9-2.1-3.5V290.5z M171.9,295.5
	c0-2.9,0-3.8-0.7-4.8c-0.9-1.2-2.4-1.4-3.5-1.4c-3,0-4.2,2.6-4.5,3.2h0v-3.2l-4.3,0.3v0.9c2.1,0,2.4,0.2,2.4,1.8v8.5
	c0,1.4-0.3,1.4-2.4,1.4v0.9c0.8-0.1,2.5-0.1,3.4-0.1c0.9,0,2.6,0,3.4,0.1v-0.9c-2,0-2.4,0-2.4-1.4V295c0-3.3,2.2-5.1,4.1-5.1
	s2.4,1.6,2.4,3.5v7.4c0,1.4-0.3,1.4-2.4,1.4v0.9c0.8-0.1,2.5-0.1,3.4-0.1c0.9,0,2.6,0,3.4,0.1v-0.9c-1.6,0-2.4,0-2.4-0.9V295.5z
	 M150.5,289.6v0.9c2,0,2.3,0.2,2.3,1.7v8.5c0,1.4-0.3,1.4-2.4,1.4v0.9c0.9-0.1,2.4-0.1,3.3-0.1c0.3,0,2.2,0,3.2,0.1v-0.9
	c-2,0-2.2-0.2-2.2-1.4v-11.6L150.5,289.6z M154.8,283.8c0-0.8-0.7-1.5-1.5-1.5c-0.8,0-1.5,0.7-1.5,1.5c0,0.9,0.8,1.5,1.5,1.5
	C154.3,285.3,154.8,284.5,154.8,283.8z M141.7,302.8c-1.2,0-2.6-0.5-3.5-2c-0.8-1.4-0.9-3.3-0.9-4.6c0-1.2,0-3.1,1-4.5
	c0.9-1.4,2.3-1.9,3.4-1.9c1.2,0,2.5,0.6,3.4,1.8c1,1.4,1,3.4,1,4.6c0,1.1,0,3-0.8,4.5C144.3,302.2,142.9,302.8,141.7,302.8z
	 M148.4,296.4c0-4.1-3.1-7.3-6.7-7.3c-3.8,0-6.8,3.3-6.8,7.3c0,4,3.1,7,6.7,7C145.3,303.5,148.4,300.4,148.4,296.4z M121.3,293.1
	c0-0.6,0-0.6,0.3-1.1c0.9-1.4,2.5-2,3.7-2c2.4,0,4.2,2.9,4.2,6.4c0,3.7-2.1,6.5-4.6,6.5c-1,0-1.9-0.4-2.5-1
	c-0.7-0.7-1.2-1.4-1.2-2.2V293.1z M123.7,308.3c-2,0-2.4,0-2.4-1.4v-5.5c0.6,0.8,1.9,2,3.9,2c3.6,0,6.8-3,6.8-7.1c0-4-3-7.1-6.4-7.1
	c-2.8,0-4.2,2-4.3,2.1v-2.1l-4.4,0.3v0.9c2.2,0,2.4,0.2,2.4,1.6v14.8c0,1.4-0.3,1.4-2.4,1.4v0.9c0.8-0.1,2.5-0.1,3.4-0.1
	c0.9,0,2.6,0,3.4,0.1V308.3z M104.8,289.9c0-0.6,0-0.7-0.3-0.7c-0.3,0-0.8,0.7-1.1,1c-1-0.8-1.9-1-3-1c-3.8,0-4.9,2.1-4.9,3.8
	c0,0.3,0,1.4,1.2,2.5c1,0.9,2.1,1.1,3.5,1.4c1.7,0.3,2.1,0.4,2.9,1.1c0.6,0.5,1,1.2,1,2c0,1.4-0.8,2.9-3.6,2.9
	c-2.1,0-3.6-1.2-4.3-4.3c-0.1-0.6-0.1-0.6-0.2-0.6l-0.3-0.1c-0.3,0-0.3,0.2-0.3,0.7v4.3c0,0.6,0,0.7,0.3,0.7c0.2,0,0.2,0,0.7-0.7
	c0.2-0.2,0.2-0.3,0.6-0.8c1.2,1.5,2.9,1.5,3.4,1.5c3.3,0,4.9-1.8,4.9-4.3c0-1.7-1-2.7-1.3-3c-1.1-1-2-1.2-4.1-1.5
	c-0.9-0.2-3.2-0.6-3.2-2.5c0-1,0.7-2.4,3.5-2.4c3.4,0,3.6,2.9,3.7,3.9c0,0.3,0.3,0.3,0.3,0.3c0.3,0,0.3-0.2,0.3-0.7V289.9z
	 M87.8,295.8c0-3,1.3-5.9,3.7-5.9c0.3,0,0.3,0,0.4,0c-0.3,0.1-0.8,0.3-0.8,1.2c0,0.9,0.7,1.3,1.2,1.3c0.6,0,1.3-0.4,1.3-1.3
	c0-0.9-0.8-1.8-2.2-1.8c-2.7,0-3.6,2.9-3.8,3.5h0v-3.5l-4.2,0.3v0.9c2.1,0,2.4,0.2,2.4,1.8v8.5c0,1.4-0.3,1.4-2.4,1.4v0.9
	c0.9-0.1,2.6-0.1,3.6-0.1c0.8,0,3.1,0,3.8,0.1v-0.9h-0.6c-2.3,0-2.4-0.3-2.4-1.5V295.8z M74.8,302.8c-1.2,0-2.6-0.5-3.5-2
	c-0.8-1.4-0.9-3.3-0.9-4.6c0-1.2,0-3.1,1-4.5c0.9-1.4,2.3-1.9,3.4-1.9c1.2,0,2.5,0.6,3.4,1.8c1,1.4,1,3.4,1,4.6c0,1.1,0,3-0.8,4.5
	C77.5,302.2,76,302.8,74.8,302.8z M81.6,296.4c0-4.1-3.1-7.3-6.7-7.3c-3.8,0-6.8,3.3-6.8,7.3c0,4,3.1,7,6.7,7
	C78.5,303.5,81.6,300.4,81.6,296.4z M60.4,290.5h4.4v-0.9h-4.4v-5.8h-0.7c0,3-1.2,6-4,6.1v0.6h2.7v8.7c0,3.5,2.3,4.2,4,4.2
	c2,0,3-1.9,3-4.2v-1.8h-0.7v1.7c0,2.3-0.9,3.6-2.1,3.6c-2.1,0-2.1-2.9-2.1-3.5V290.5z M52.8,291.5c-0.4,0-1.5,0-1.5,1.3
	c0,0.8,0.5,1.3,1.3,1.3c0.7,0,1.3-0.4,1.3-1.4c0-2.1-2.2-3.6-4.7-3.6c-3.7,0-6.6,3.3-6.6,7.2c0,4,3,7.1,6.6,7.1
	c4.1,0,5.1-3.8,5.1-4.1s-0.2-0.3-0.3-0.3c-0.3,0-0.3,0.1-0.4,0.5c-0.7,2.2-2.4,3.2-4.1,3.2c-1.9,0-4.5-1.7-4.5-6.4
	c0-5.2,2.7-6.5,4.2-6.5C50.4,289.8,52.1,290.3,52.8,291.5z M31.2,295.3c0.3-4.9,3-5.5,3.9-5.5c3.4,0,3.6,4.4,3.6,5.5H31.2z
	 M39.8,295.9c0.7,0,0.8,0,0.8-0.6c0-3.2-1.7-6.1-5.5-6.1c-3.6,0-6.3,3.2-6.3,7.1c0,4.1,3.2,7.2,6.7,7.2c3.7,0,5.2-3.4,5.2-4.1
	l-0.3-0.3c-0.3,0-0.3,0.2-0.4,0.3c-0.8,2.6-2.9,3.4-4.2,3.4c-1.3,0-4.5-0.9-4.5-6.3v-0.6H39.8z M26.5,284.8c0.3-0.8,0.8-2.2,3.3-2.2
	v-0.9c-1.6,0.1-1.7,0.1-2.9,0.1c-0.8,0-2.4,0-3.2-0.1v0.9c1.6,0,2.1,0.9,2.1,1.5c0,0.2,0,0.3-0.2,0.7l-5.9,15.5L13.5,284
	c-0.2-0.3-0.2-0.4-0.2-0.5c0-0.9,1.6-0.9,2.4-0.9v-0.9c-0.8,0.1-3.1,0.1-4.1,0.1c-0.9,0-3,0-3.8-0.1v0.9c1.9,0,2.5,0,2.9,1.3
	l7.4,19.4c0.2,0.4,0.2,0.6,0.7,0.6s0.5-0.1,0.7-0.6L26.5,284.8z"/>
<path class="st3" d="M417.8,290.5h4.4v-0.9h-4.4v-5.8h-0.7c0,3-1.2,6-4,6.1v0.6h2.7v8.7c0,3.5,2.3,4.2,4,4.2c2,0,3-1.9,3-4.2v-1.8
	H422v1.7c0,2.3-0.9,3.6-2.1,3.6c-2.1,0-2.1-2.9-2.1-3.5V290.5z M410.2,295.5c0-2.9,0-3.8-0.7-4.8c-0.9-1.2-2.4-1.4-3.5-1.4
	c-2.7,0-4,2-4.4,3h0v-11l-4.4,0.3v0.9c2.1,0,2.4,0.2,2.4,1.8v16.5c0,1.4-0.3,1.4-2.4,1.4v0.9c0.8-0.1,2.5-0.1,3.4-0.1
	c0.9,0,2.6,0,3.4,0.1v-0.9c-2,0-2.4,0-2.4-1.4V295c0-3.3,2.2-5.1,4.1-5.1s2.4,1.6,2.4,3.5v7.4c0,1.4-0.3,1.4-2.4,1.4v0.9
	c0.8-0.1,2.5-0.1,3.4-0.1c0.9,0,2.6,0,3.4,0.1v-0.9c-1.6,0-2.4,0-2.4-0.9V295.5z M388.5,308.9c-3,0-5.3-1.5-5.3-3.3
	c0-0.3,0.1-1.5,1.3-2.3c0.7-0.4,1-0.4,3.2-0.4c2.6,0,6.2,0,6.2,2.7C393.8,307.5,391.4,308.9,388.5,308.9z M387.7,297.8
	c-2.8,0-2.8-3.2-2.8-3.9c0-0.6,0-1.9,0.5-2.7c0.6-0.9,1.5-1.2,2.2-1.2c2.8,0,2.8,3.2,2.8,3.9c0,0.6,0,1.9-0.5,2.7
	C389.3,297.5,388.4,297.8,387.7,297.8z M384.6,297.5c1.5,1,2.7,1,3.1,1c2.8,0,4.9-2.1,4.9-4.6c0-0.8-0.3-2-1.3-3
	c1.2-1.3,2.7-1.3,2.9-1.3l0.4,0.1c-0.3,0.1-0.5,0.4-0.5,0.8c0,0.4,0.3,0.8,0.8,0.8c0.3,0,0.8-0.2,0.8-0.8c0-0.6-0.4-1.4-1.5-1.4
	c-1.6,0-2.9,1-3.3,1.5c-0.9-0.7-2-1.1-3.2-1.1c-2.8,0-4.9,2.1-4.9,4.6c0,1.8,1.1,3,1.4,3.2c-0.4,0.5-0.9,1.4-0.9,2.6
	c0,1.8,1.1,2.6,1.4,2.8c-1.4,0.4-2.9,1.5-2.9,3.2c0,2.2,3,4,6.8,4c3.7,0,6.8-1.7,6.8-4c0-0.8-0.2-2.6-2.1-3.6
	c-1.6-0.8-3.2-0.8-5.9-0.8c-1.9,0-2.1,0-2.7-0.6c-0.3-0.3-0.6-0.9-0.6-1.6C384.1,298.4,384.3,297.9,384.6,297.5z M373.4,289.6v0.9
	c2,0,2.3,0.2,2.3,1.7v8.5c0,1.4-0.3,1.4-2.4,1.4v0.9c0.9-0.1,2.4-0.1,3.3-0.1c0.3,0,2.2,0,3.2,0.1v-0.9c-2,0-2.2-0.2-2.2-1.4v-11.6
	L373.4,289.6z M377.8,283.8c0-0.8-0.7-1.5-1.5-1.5c-0.8,0-1.5,0.7-1.5,1.5c0,0.9,0.8,1.5,1.5,1.5
	C377.2,285.3,377.8,284.5,377.8,283.8z M365.6,295.8c0-3,1.3-5.9,3.7-5.9c0.3,0,0.3,0,0.4,0c-0.3,0.1-0.8,0.3-0.8,1.2
	c0,0.9,0.7,1.3,1.2,1.3c0.6,0,1.3-0.4,1.3-1.3c0-0.9-0.8-1.8-2.2-1.8c-2.7,0-3.6,2.9-3.8,3.5h0v-3.5l-4.2,0.3v0.9
	c2.1,0,2.4,0.2,2.4,1.8v8.5c0,1.4-0.3,1.4-2.4,1.4v0.9c0.9-0.1,2.6-0.1,3.6-0.1c0.8,0,3.1,0,3.8,0.1v-0.9h-0.6
	c-2.3,0-2.4-0.3-2.4-1.5V295.8z"/>
<path d="M383.9,325.7h4.4v-0.9h-4.4V319h-0.7c0,3-1.2,6-4,6.1v0.6h2.7v8.7c0,3.5,2.3,4.2,4,4.2c2,0,3-1.9,3-4.2v-1.8h-0.7v1.7
	c0,2.3-0.9,3.6-2.1,3.6c-2.1,0-2.1-2.9-2.1-3.5V325.7z M376.4,330.7c0-2.9,0-3.8-0.7-4.8c-0.9-1.2-2.4-1.4-3.5-1.4c-2.7,0-4,2-4.4,3
	h0v-11l-4.4,0.3v0.9c2.1,0,2.4,0.2,2.4,1.8V336c0,1.4-0.3,1.4-2.4,1.4v0.9c0.8-0.1,2.5-0.1,3.4-0.1c0.9,0,2.6,0,3.4,0.1v-0.9
	c-2,0-2.4,0-2.4-1.4v-5.8c0-3.3,2.2-5.1,4.1-5.1c1.9,0,2.4,1.6,2.4,3.5v7.4c0,1.4-0.3,1.4-2.4,1.4v0.9c0.8-0.1,2.5-0.1,3.4-0.1
	c0.9,0,2.6,0,3.4,0.1v-0.9c-1.6,0-2.4,0-2.4-0.9V330.7z M354.7,344.1c-3,0-5.3-1.5-5.3-3.3c0-0.3,0.1-1.5,1.3-2.3
	c0.7-0.4,1-0.4,3.2-0.4c2.6,0,6.2,0,6.2,2.7C360,342.6,357.6,344.1,354.7,344.1z M353.8,332.9c-2.8,0-2.8-3.2-2.8-3.9
	c0-0.6,0-1.9,0.5-2.7c0.6-0.9,1.5-1.2,2.2-1.2c2.8,0,2.8,3.2,2.8,3.9c0,0.6,0,1.9-0.5,2.7C355.4,332.6,354.5,332.9,353.8,332.9z
	 M350.7,332.6c1.5,1,2.7,1,3.1,1c2.8,0,4.9-2.1,4.9-4.6c0-0.8-0.3-2-1.3-3c1.2-1.3,2.7-1.3,2.9-1.3l0.4,0.1
	c-0.3,0.1-0.5,0.4-0.5,0.8c0,0.4,0.3,0.8,0.8,0.8c0.3,0,0.8-0.2,0.8-0.8c0-0.6-0.4-1.4-1.5-1.4c-1.6,0-2.9,1-3.3,1.5
	c-0.9-0.7-2-1.1-3.2-1.1c-2.8,0-4.9,2.1-4.9,4.6c0,1.8,1.1,3,1.4,3.2c-0.4,0.5-0.9,1.4-0.9,2.6c0,1.8,1.1,2.6,1.4,2.8
	c-1.4,0.4-2.9,1.5-2.9,3.2c0,2.2,3,4,6.8,4c3.7,0,6.8-1.7,6.8-4c0-0.8-0.2-2.6-2.1-3.6c-1.6-0.8-3.2-0.8-5.9-0.8
	c-1.9,0-2.1,0-2.7-0.6c-0.3-0.3-0.6-0.9-0.6-1.6C350.2,333.6,350.4,333,350.7,332.6z M339.6,324.8v0.9c2,0,2.3,0.2,2.3,1.7v8.5
	c0,1.4-0.3,1.4-2.4,1.4v0.9c0.9-0.1,2.4-0.1,3.3-0.1c0.3,0,2.2,0,3.2,0.1v-0.9c-2,0-2.2-0.2-2.2-1.4v-11.6L339.6,324.8z
	 M343.9,318.9c0-0.8-0.7-1.5-1.5-1.5c-0.8,0-1.5,0.7-1.5,1.5c0,0.9,0.8,1.5,1.5,1.5C343.3,320.4,343.9,319.6,343.9,318.9z
	 M331.7,331c0-3,1.3-5.9,3.7-5.9c0.3,0,0.3,0,0.4,0c-0.3,0.1-0.8,0.3-0.8,1.2c0,0.9,0.7,1.3,1.2,1.3c0.6,0,1.3-0.4,1.3-1.3
	c0-0.9-0.8-1.8-2.2-1.8c-2.7,0-3.6,2.9-3.8,3.5h0v-3.5l-4.2,0.3v0.9c2.1,0,2.4,0.2,2.4,1.8v8.5c0,1.4-0.3,1.4-2.4,1.4v0.9
	c0.9-0.1,2.6-0.1,3.6-0.1c0.8,0,3.1,0,3.8,0.1v-0.9h-0.6c-2.3,0-2.4-0.3-2.4-1.5V331z M309.4,337.9c-1.2,0-2.6-0.5-3.5-2
	c-0.8-1.4-0.9-3.3-0.9-4.6c0-1.2,0-3.1,1-4.5c0.9-1.4,2.3-1.9,3.4-1.9c1.2,0,2.5,0.6,3.4,1.8c1,1.4,1,3.4,1,4.6c0,1.1,0,3-0.8,4.5
	C312.1,337.3,310.6,337.9,309.4,337.9z M316.2,331.6c0-4.1-3.1-7.3-6.7-7.3c-3.8,0-6.8,3.3-6.8,7.3c0,4,3.1,7,6.7,7
	C313.1,338.6,316.2,335.5,316.2,331.6z M295,325.7h4.4v-0.9H295V319h-0.7c0,3-1.2,6-4,6.1v0.6h2.7v8.7c0,3.5,2.3,4.2,4,4.2
	c2,0,3-1.9,3-4.2v-1.8h-0.7v1.7c0,2.3-0.9,3.6-2.1,3.6c-2.1,0-2.1-2.9-2.1-3.5V325.7z M273.7,325.7h4.4v-0.9h-4.4V319H273
	c0,3-1.2,6-4,6.1v0.6h2.7v8.7c0,3.5,2.3,4.2,4,4.2c2,0,3-1.9,3-4.2v-1.8H278v1.7c0,2.3-0.9,3.6-2.1,3.6c-2.1,0-2.1-2.9-2.1-3.5
	V325.7z M264.4,325.7h3.6v-0.9h-3.6v-3.7c0-2.8,1.4-4.3,2.7-4.3c0.3,0,0.7,0.1,1.1,0.3c-0.1,0-0.9,0.3-0.9,1.2
	c0,0.7,0.5,1.2,1.2,1.2c0.8,0,1.3-0.5,1.3-1.3c0-1.2-1.1-2.1-2.6-2.1c-2.2,0-4.7,1.7-4.7,4.9v3.7H260v0.9h2.5V336
	c0,1.4-0.3,1.4-2.4,1.4v0.9c0.9-0.1,2.6-0.1,3.6-0.1c0.8,0,3.1,0,3.8,0.1v-0.9h-0.6c-2.3,0-2.4-0.3-2.4-1.5V325.7z M248.7,330.4
	c0.3-4.9,3-5.5,3.9-5.5c3.4,0,3.6,4.4,3.6,5.5H248.7z M257.4,331c0.7,0,0.8,0,0.8-0.6c0-3.2-1.7-6.1-5.5-6.1c-3.6,0-6.3,3.2-6.3,7.1
	c0,4.1,3.2,7.2,6.7,7.2c3.7,0,5.2-3.4,5.2-4.1l-0.3-0.3c-0.3,0-0.3,0.2-0.4,0.3c-0.8,2.6-2.9,3.4-4.2,3.4c-1.3,0-4.5-0.9-4.5-6.3
	V331H257.4z M242.2,316.5l-4.4,0.3v0.9c2.1,0,2.4,0.2,2.4,1.8V336c0,1.4-0.3,1.4-2.4,1.4v0.9c0.9-0.1,2.4-0.1,3.4-0.1
	c0.9,0,2.5,0,3.4,0.1v-0.9c-2,0-2.4,0-2.4-1.4V316.5z M224.3,330.7c0-2.9,0-3.8-0.7-4.8c-0.9-1.2-2.4-1.4-3.5-1.4
	c-2.6,0-3.9,1.9-4.4,3.1c-0.4-2.4-2.1-3.1-4.1-3.1c-3,0-4.2,2.6-4.5,3.2h0v-3.2l-4.3,0.3v0.9c2.1,0,2.4,0.2,2.4,1.8v8.5
	c0,1.4-0.3,1.4-2.4,1.4v0.9c0.8-0.1,2.5-0.1,3.4-0.1c0.9,0,2.6,0,3.4,0.1v-0.9c-2,0-2.4,0-2.4-1.4v-5.8c0-3.3,2.2-5.1,4.1-5.1
	c1.9,0,2.4,1.6,2.4,3.5v7.4c0,1.4-0.3,1.4-2.4,1.4v0.9c0.8-0.1,2.5-0.1,3.4-0.1c0.9,0,2.6,0,3.4,0.1v-0.9c-2,0-2.4,0-2.4-1.4v-5.8
	c0-3.3,2.2-5.1,4.1-5.1c1.9,0,2.4,1.6,2.4,3.5v7.4c0,1.4-0.3,1.4-2.4,1.4v0.9c0.8-0.1,2.5-0.1,3.4-0.1c0.9,0,2.6,0,3.4,0.1v-0.9
	c-1.6,0-2.4,0-2.4-0.9V330.7z M194.1,337.9c-1.2,0-2.6-0.5-3.5-2c-0.8-1.4-0.9-3.3-0.9-4.6c0-1.2,0-3.1,1-4.5
	c0.9-1.4,2.3-1.9,3.4-1.9c1.2,0,2.5,0.6,3.4,1.8c1,1.4,1,3.4,1,4.6c0,1.1,0,3-0.8,4.5C196.8,337.3,195.3,337.9,194.1,337.9z
	 M200.8,331.6c0-4.1-3.1-7.3-6.7-7.3c-3.8,0-6.8,3.3-6.8,7.3c0,4,3.1,7,6.7,7C197.8,338.6,200.8,335.5,200.8,331.6z M179.7,331
	c0-3,1.3-5.9,3.7-5.9c0.3,0,0.3,0,0.4,0c-0.3,0.1-0.8,0.3-0.8,1.2c0,0.9,0.7,1.3,1.2,1.3c0.6,0,1.3-0.4,1.3-1.3
	c0-0.9-0.8-1.8-2.2-1.8c-2.7,0-3.6,2.9-3.8,3.5h0v-3.5l-4.2,0.3v0.9c2.1,0,2.4,0.2,2.4,1.8v8.5c0,1.4-0.3,1.4-2.4,1.4v0.9
	c0.9-0.1,2.6-0.1,3.6-0.1c0.8,0,3.1,0,3.8,0.1v-0.9h-0.6c-2.3,0-2.4-0.3-2.4-1.5V331z M170.4,325.7h3.6v-0.9h-3.6v-3.7
	c0-2.8,1.4-4.3,2.7-4.3c0.3,0,0.7,0.1,1.1,0.3c-0.1,0-0.9,0.3-0.9,1.2c0,0.7,0.5,1.2,1.2,1.2c0.8,0,1.3-0.5,1.3-1.3
	c0-1.2-1.1-2.1-2.6-2.1c-2.2,0-4.7,1.7-4.7,4.9v3.7H166v0.9h2.5V336c0,1.4-0.3,1.4-2.4,1.4v0.9c0.9-0.1,2.6-0.1,3.6-0.1
	c0.8,0,3.1,0,3.8,0.1v-0.9h-0.6c-2.3,0-2.4-0.3-2.4-1.5V325.7z M152.6,330.7c0-2.9,0-3.8-0.7-4.8c-0.9-1.2-2.4-1.4-3.5-1.4
	c-3,0-4.2,2.6-4.5,3.2h0v-3.2l-4.3,0.3v0.9c2.1,0,2.4,0.2,2.4,1.8v8.5c0,1.4-0.3,1.4-2.4,1.4v0.9c0.8-0.1,2.5-0.1,3.4-0.1
	c0.9,0,2.6,0,3.4,0.1v-0.9c-2,0-2.4,0-2.4-1.4v-5.8c0-3.3,2.2-5.1,4.1-5.1s2.4,1.6,2.4,3.5v7.4c0,1.4-0.3,1.4-2.4,1.4v0.9
	c0.8-0.1,2.5-0.1,3.4-0.1c0.9,0,2.6,0,3.4,0.1v-0.9c-1.6,0-2.4,0-2.4-0.9V330.7z M133.3,333.9c0,3.1-2.3,4.1-3.6,4.1
	c-1.5,0-2.8-1.1-2.8-2.6c0-4.1,5.3-4.5,6.5-4.6V333.9z M135.3,329.9c0-1.7,0-3-1.4-4.2c-1.1-1-2.5-1.4-3.9-1.4
	c-2.6,0-4.6,1.7-4.6,3.7c0,0.9,0.6,1.4,1.3,1.4c0.8,0,1.3-0.5,1.3-1.3c0-1.3-1.1-1.3-1.6-1.3c0.7-1.3,2.2-1.9,3.5-1.9
	c1.4,0,3.3,1.2,3.3,4v1.3c-6.3,0.1-8.7,2.7-8.7,5.2c0,2.5,2.9,3.3,4.8,3.3c2.1,0,3.5-1.3,4.1-2.8c0.1,1.5,1.1,2.6,2.5,2.6
	c0.7,0,2.5-0.4,2.5-3v-1.8h-0.7v1.8c0,1.8-0.8,2-1.2,2c-1.2,0-1.2-1.7-1.2-2.1V329.9z M111.4,328.3c0-0.6,0-0.6,0.3-1.1
	c0.9-1.4,2.5-2,3.7-2c2.4,0,4.2,2.9,4.2,6.4c0,3.7-2.1,6.5-4.6,6.5c-1,0-1.9-0.4-2.5-1c-0.7-0.7-1.2-1.4-1.2-2.2V328.3z
	 M113.8,343.5c-2,0-2.4,0-2.4-1.4v-5.5c0.6,0.8,1.9,2,3.9,2c3.6,0,6.8-3,6.8-7.1c0-4-3-7.1-6.4-7.1c-2.8,0-4.2,2-4.3,2.1v-2.1
	l-4.4,0.3v0.9c2.2,0,2.4,0.2,2.4,1.6v14.8c0,1.4-0.3,1.4-2.4,1.4v0.9c0.8-0.1,2.5-0.1,3.4-0.1c0.9,0,2.6,0,3.4,0.1V343.5z
	 M89.2,324.8v0.9c2.1,0,2.4,0.2,2.4,1.8v5.6c0,2.7-1.4,4.9-3.8,4.9c-2.6,0-2.7-1.5-2.7-3.1v-10.4l-4.4,0.3v0.9
	c2.4,0,2.4,0.1,2.4,2.9v4.7c0,1.9,0,3.1,0.9,4.1c0.8,0.8,2,1.2,3.6,1.2c0.5,0,1.5,0,2.6-0.9c0.9-0.7,1.4-1.9,1.4-1.9v2.8l4.4-0.3
	v-0.9c-2.1,0-2.4-0.2-2.4-1.8v-11.2L89.2,324.8z M72,337.9c-1.2,0-2.6-0.5-3.5-2c-0.8-1.4-0.9-3.3-0.9-4.6c0-1.2,0-3.1,1-4.5
	c0.9-1.4,2.3-1.9,3.4-1.9c1.2,0,2.5,0.6,3.4,1.8c1,1.4,1,3.4,1,4.6c0,1.1,0,3-0.8,4.5C74.6,337.3,73.2,337.9,72,337.9z M78.7,331.6
	c0-4.1-3.1-7.3-6.7-7.3c-3.8,0-6.8,3.3-6.8,7.3c0,4,3.1,7,6.7,7C75.6,338.6,78.7,335.5,78.7,331.6z M61.6,327.8
	c0.8-2.1,2.3-2.1,2.9-2.1v-0.9c-0.9,0.1-1.4,0.1-2.4,0.1c-0.7,0-0.8,0-2.5-0.1v0.9c1.2,0.1,1.4,0.8,1.4,1.4c0,0.3-0.1,0.4-0.2,0.8
	l-3.2,7.9l-3.5-8.5c-0.2-0.4-0.2-0.6-0.2-0.7c0-0.8,1.1-0.8,1.7-0.8v-0.9c-0.8,0.1-2.4,0.1-3.2,0.1c-1.2,0-1.3,0-3-0.1v0.9
	c1.8,0,2.1,0.2,2.5,1.1l4.7,11.5c-1.4,3.3-1.4,3.4-1.5,3.6c-0.5,0.9-1.4,2.1-2.8,2.1c-1,0-1.6-0.6-1.6-0.6s1.1-0.1,1.1-1.2
	c0-0.8-0.6-1.2-1.2-1.2c-0.5,0-1.2,0.3-1.2,1.2c0,1.2,1.2,2.4,2.8,2.4c1.8,0,3-1.5,3.9-3.5L61.6,327.8z M37.7,325
	c0-0.6,0-0.7-0.3-0.7c-0.3,0-0.8,0.7-1.1,1c-1-0.8-1.9-1-3-1c-3.8,0-4.9,2.1-4.9,3.8c0,0.3,0,1.4,1.2,2.5c1,0.9,2.1,1.1,3.5,1.4
	c1.7,0.3,2.1,0.4,2.9,1.1c0.6,0.5,1,1.2,1,2c0,1.4-0.8,2.9-3.6,2.9c-2.1,0-3.6-1.2-4.3-4.3c-0.1-0.6-0.1-0.6-0.2-0.6l-0.3-0.1
	c-0.3,0-0.3,0.2-0.3,0.7v4.3c0,0.6,0,0.7,0.3,0.7c0.2,0,0.2,0,0.7-0.7c0.2-0.2,0.2-0.3,0.6-0.8c1.2,1.5,2.9,1.5,3.4,1.5
	c3.3,0,4.9-1.8,4.9-4.3c0-1.7-1-2.7-1.3-3c-1.1-1-2-1.2-4.1-1.5c-0.9-0.2-3.2-0.6-3.2-2.5c0-1,0.7-2.4,3.5-2.4
	c3.4,0,3.6,2.9,3.7,3.9c0,0.3,0.3,0.3,0.3,0.3c0.3,0,0.3-0.2,0.3-0.7V325z M22.1,333.9c0,3.1-2.3,4.1-3.6,4.1
	c-1.5,0-2.8-1.1-2.8-2.6c0-4.1,5.3-4.5,6.5-4.6V333.9z M24.1,329.9c0-1.7,0-3-1.4-4.2c-1.1-1-2.5-1.4-3.9-1.4
	c-2.6,0-4.6,1.7-4.6,3.7c0,0.9,0.6,1.4,1.3,1.4c0.8,0,1.3-0.5,1.3-1.3c0-1.3-1.1-1.3-1.6-1.3c0.7-1.3,2.2-1.9,3.5-1.9
	c1.4,0,3.3,1.2,3.3,4v1.3c-6.3,0.1-8.7,2.7-8.7,5.2c0,2.5,2.9,3.3,4.8,3.3c2.1,0,3.5-1.3,4.1-2.8c0.1,1.5,1.1,2.6,2.5,2.6
	c0.7,0,2.5-0.4,2.5-3v-1.8h-0.7v1.8c0,1.8-0.8,2-1.2,2c-1.2,0-1.2-1.7-1.2-2.1V329.9z"/>
<rect x="2.4" y="0" class="st6" width="476.2" height="349.3"/>
</svg>
