<?xml version="1.0" encoding="utf-8"?>
<!-- Generator: Adobe Illustrator 19.1.0, SVG Export Plug-In . SVG Version: 6.00 Build 0)  -->
<svg version="1.1" id="Layer_1" xmlns="http://www.w3.org/2000/svg" xmlns:xlink="http://www.w3.org/1999/xlink" x="0px" y="0px"
	 viewBox="0 0 478.9 349.1" style="enable-background:new 0 0 478.9 349.1;" xml:space="preserve">
<style type="text/css">
	.st0{fill:none;stroke:#000000;stroke-miterlimit:10;}
	.st1{fill:#0C7F99;}
	.st2{fill:none;stroke:#0C7F99;stroke-miterlimit:10;}
	.st3{fill:#E65A4C;}
	.st4{fill:#C42420;}
	.st5{fill:none;stroke:#C42420;stroke-miterlimit:10;}
	.st6{fill:none;stroke:#000000;stroke-width:2;stroke-miterlimit:10;}
</style>
<circle cx="234.3" cy="212.3" r="5.9"/>
<line class="st0" x1="234.6" y1="208" x2="234.8" y2="164.4"/>
<polygon points="226.9,166.1 234.3,153.4 241.6,166.1 "/>
<line class="st0" x1="333.5" y1="214.5" x2="291" y2="169.4"/>
<polygon points="286,175.7 283.1,161.3 297,166 "/>
<line class="st0" x1="137.1" y1="210.1" x2="181.9" y2="167.3"/>
<polygon points="175.6,162.4 190,159.3 185.4,173.3 "/>
<path d="M155.6,20.3c0-2.3-1.1-2.4-1.4-2.4c-0.9,0-1.6,0.9-1.6,1.6c0,0.4,0.3,0.7,0.4,0.8c0.4,0.3,1.3,1.3,1.3,3.1
	c0,1.5-2.1,9.9-6.4,9.9c-2.2,0-2.6-1.8-2.6-3.1c0-1.8,0.8-4.3,1.8-6.9c0.6-1.5,0.7-1.8,0.7-2.5c0-1.5-1.1-2.9-2.8-2.9
	c-3.3,0-4.6,5.2-4.6,5.5l0.4,0.3c0.3,0,0.4-0.1,0.5-0.6c0.9-3.1,2.3-4.4,3.6-4.4c0.3,0,0.9,0,0.9,1.2c0,0.9-0.4,2-0.9,3.3
	c-1.7,4.6-1.7,5.7-1.7,6.5c0,0.8,0.1,2.3,1.2,3.3c1.3,1.1,3.1,1.1,3.4,1.1C153.5,34,155.6,22.3,155.6,20.3z M126.6,33.4
	c-3.4,0-3.9-2.6-3.9-4.1c0-1.6,1-5.3,1.5-6.6c0.5-1.1,2.5-4.7,6.2-4.7c3.3,0,4,2.8,4,4.8C134.4,25.4,132.1,33.4,126.6,33.4z
	 M135,21.7c-0.2-2-1.5-4.4-4.7-4.4c-5,0-10.2,5.1-10.2,10.8c0,2.2,1.5,6.3,6.4,6.3c8.4,0,12.1-12.3,12.1-17.2c0-5.1-2.9-9.1-7.5-9.1
	c-5.2,0-6.7,4.5-6.7,5.5c0,0.3,0.2,1.1,1.2,1.1c1.3,0,1.8-1.1,1.8-1.8c0-1.1-1.1-1.1-1.6-1.1c1.5-2.6,4.2-2.9,5.1-2.9
	c3.1,0,5.1,2.5,5.1,6.5C136.1,17.7,135.4,20.4,135,21.7L135,21.7z"/>
<path d="M163.7,23.8c0-0.6,0-0.7-0.7-0.7c-1,1-2.2,1.5-4.5,1.5v0.8c0.6,0,1.9,0,3.3-0.6v12.2c0,0.9-0.1,1.2-2.3,1.2h-0.8V39
	c1-0.1,3-0.1,4.1-0.1c1.1,0,3.1,0,4.1,0.1v-0.8H166c-2.3,0-2.3-0.3-2.3-1.2V23.8z"/>
<polyline points="118.8,48.2 170.3,48.2 170.3,49.6 118.8,49.6 "/>
<path d="M132.2,82.2c-3.4,0-3.9-2.6-3.9-4.1c0-1.6,1-5.3,1.5-6.6c0.5-1.1,2.5-4.7,6.2-4.7c3.3,0,4,2.8,4,4.8
	C140,74.2,137.7,82.2,132.2,82.2z M140.6,70.5c-0.2-2-1.5-4.4-4.7-4.4c-5,0-10.2,5.1-10.2,10.8c0,2.2,1.5,6.3,6.4,6.3
	c8.4,0,12.1-12.3,12.1-17.2c0-5.1-2.9-9.1-7.5-9.1c-5.2,0-6.7,4.5-6.7,5.5c0,0.3,0.2,1.1,1.2,1.1c1.3,0,1.8-1.1,1.8-1.8
	c0-1.1-1.1-1.1-1.6-1.1c1.5-2.6,4.2-2.9,5.1-2.9c3.1,0,5.1,2.5,5.1,6.5C141.7,66.5,141,69.1,140.6,70.5L140.6,70.5z"/>
<path d="M185.5,66.6c0-0.1,0-0.2-0.6-0.8c-3.6-3.6-5.6-9.5-5.6-16.8c0-6.9,1.7-12.9,5.8-17.1c0.4-0.3,0.4-0.4,0.4-0.5l-0.3-0.3
	c-0.5,0-3.4,2.6-5.1,6.1c-1.8,3.6-2.6,7.4-2.6,11.8c0,3.2,0.5,7.4,2.4,11.3c2.1,4.3,5,6.6,5.4,6.6L185.5,66.6z"/>
<path class="st1" d="M204.5,43.3c-1.1,0.2-1.6,1.1-1.6,1.8c0,0.9,0.7,1.1,1.2,1.1c1.1,0,1.8-0.9,1.8-1.9c0-1.5-1.7-2.2-3.2-2.2
	c-2.2,0-3.4,2.1-3.7,2.8c-0.8-2.7-3-2.8-3.7-2.8c-3.6,0-5.6,4.7-5.6,5.5l0.4,0.3c0.3,0,0.4-0.2,0.4-0.4c1.2-4,3.6-4.7,4.6-4.7
	c1.6,0,1.9,1.5,1.9,2.4c0,0.8-0.2,1.6-0.6,3.3l-1.2,4.9c-0.5,2.1-1.6,4.1-3.5,4.1c-0.2,0-1.1,0-1.8-0.5c1.3-0.3,1.6-1.3,1.6-1.8
	c0-0.7-0.5-1.1-1.2-1.1c-0.9,0-1.8,0.8-1.8,1.9c0,1.5,1.7,2.2,3.2,2.2c1.7,0,2.9-1.4,3.7-2.8c0.6,2.1,2.4,2.8,3.7,2.8
	c3.6,0,5.6-4.7,5.6-5.5l-0.4-0.3c-0.3,0-0.4,0.2-0.5,0.5c-1,3.1-3,4.6-4.6,4.6c-1.3,0-1.9-0.9-1.9-2.4c0-0.8,0.1-1.4,0.7-3.7
	l1.3-4.9c0.5-2.1,1.8-3.7,3.4-3.7C202.7,42.8,203.7,42.8,204.5,43.3z"/>
<path class="st1" d="M213.8,63.1c-0.8,0-2.5-0.4-3-2.9c-0.3-1.4-0.3-3.6-0.3-4.8c0-1.6,0-3.3,0.3-4.6c0.5-2.4,2.4-2.7,3-2.7
	c0.8,0,2.5,0.4,2.9,2.6c0.3,1.3,0.3,3.1,0.3,4.7c0,1.4,0,3.6-0.3,4.9C216.2,62.7,214.6,63.1,213.8,63.1z M219.1,55.6
	c0-2.6-0.3-4.1-1-5.6c-1-2.1-3-2.6-4.3-2.6c-3,0-4.1,2.2-4.4,2.9c-0.9,1.7-0.9,4.1-0.9,5.3c0,1.6,0.1,4,1.2,5.9
	c1.1,1.8,2.9,2.2,4.1,2.2c1.1,0,3.2-0.4,4.4-2.7C219,59.3,219.1,57.2,219.1,55.6z"/>
<path d="M246.7,61.9c-1,1.4-2.4,2.6-4.1,2.6c-0.4,0-2.1-0.1-2.7-1.7l0.4,0c1.1,0,1.8-0.9,1.8-1.8s-0.7-1.1-1.2-1.1
	c-0.6,0-1.8,0.4-1.8,2.2c0,1.8,1.5,3.1,3.6,3.1c3.6,0,7.2-3.3,8.2-7.3l3.5-13.9l0.1-0.6c0-0.5-0.4-0.9-1-0.9c-0.3,0-1.1,0.1-1.4,1.2
	l-2.6,10.5c-0.2,0.6-0.2,0.7-0.5,1.1c-0.7,1-1.9,2.2-3.6,2.2c-2,0-2.2-2-2.2-2.9c0-2,1-4.8,1.9-7.4c0.4-1,0.6-1.5,0.6-2.3
	c0-1.5-1.1-2.9-2.8-2.9c-3.3,0-4.6,5.2-4.6,5.5l0.4,0.3c0.3,0,0.4-0.1,0.5-0.6c0.9-3,2.2-4.4,3.6-4.4c0.3,0,0.9,0,0.9,1.2
	c0,0.9-0.4,2-0.9,3.3C241,52,241,53.2,241,54c0,3.4,2.4,4.2,4.2,4.2c1,0,2.3-0.3,3.6-1.6l0,0C248.3,58.7,248,60.1,246.7,61.9z
	 M228.6,58c0-2.1-0.7-3.6-2.1-3.6c-1.1,0-1.7,0.9-1.7,1.7s0.5,1.8,1.8,1.8c0.5,0,0.9-0.1,1.2-0.5l0.1-0.1l0.1,0.7
	c0,1.2-0.2,3.5-2.3,5.8c-0.4,0.4-0.4,0.5-0.4,0.6l0.4,0.4C225.8,64.8,228.6,62.1,228.6,58z"/>
<path d="M260.7,63.1c-0.8,0-2.5-0.4-3-2.9c-0.3-1.4-0.3-3.6-0.3-4.8c0-1.6,0-3.3,0.3-4.6c0.5-2.4,2.4-2.7,3-2.7
	c0.8,0,2.5,0.4,2.9,2.6c0.3,1.3,0.3,3.1,0.3,4.7c0,1.4,0,3.6-0.3,4.9C263.1,62.7,261.5,63.1,260.7,63.1z M266.1,55.6
	c0-2.6-0.3-4.1-1-5.6c-1-2.1-3-2.6-4.3-2.6c-3,0-4.1,2.2-4.4,2.9c-0.9,1.7-0.9,4.1-0.9,5.3c0,1.6,0.1,4,1.2,5.9
	c1.1,1.8,2.9,2.2,4.1,2.2c1.1,0,3.2-0.4,4.4-2.7C266,59.3,266.1,57.2,266.1,55.6z"/>
<path d="M278.6,49c0-2.7-0.4-7.2-2.4-11.3c-2.1-4.3-5-6.6-5.4-6.6l-0.3,0.3c0,0.1,0,0.2,0.6,0.8c3.6,3.6,5.6,9.5,5.6,16.8
	c0,6.9-1.7,12.9-5.8,17.1c-0.4,0.3-0.4,0.4-0.4,0.5l0.3,0.3c0.5,0,3.4-2.6,5.1-6.1C277.8,57.1,278.6,53.3,278.6,49z"/>
<path d="M295.8,48.2c-0.7,0.3-0.7,0.5-0.7,0.8c0,0.2,0.1,0.5,0.7,0.8l19.3,8.9c0.5,0.2,0.5,0.3,0.6,0.3c0.4,0,0.7-0.4,0.7-0.6
	c0-0.4-0.3-0.6-0.8-0.8L297.3,49l18.4-8.5c0.7-0.3,0.7-0.6,0.7-0.8c0-0.3-0.3-0.6-0.7-0.6c-0.1,0-0.1,0-0.6,0.3L295.8,48.2z"/>
<path d="M338,57.9c-1.1,0-3.5-0.6-4.1-4.5c-0.4-2.1-0.4-4.9-0.4-7.4c0-2.9,0-5.6,0.6-7.7c0.6-2.4,2.4-3.5,4-3.5
	c1.4,0,3.4,0.8,4.1,3.9c0.5,2,0.5,4.9,0.5,7.3c0,2.4,0,5.1-0.4,7.3C341.6,57.2,339.3,57.9,338,57.9z M345.3,46.4
	c0-3-0.2-5.9-1.5-8.6c-1.5-3-4-3.8-5.8-3.8c-2.1,0-4.6,1-5.9,4c-1,2.3-1.4,4.5-1.4,8.3c0,3.5,0.3,6.1,1.5,8.6
	c1.4,2.7,3.9,3.6,5.7,3.6c3.1,0,4.9-1.9,5.9-3.9C345.3,52,345.3,48.5,345.3,46.4z"/>
<path d="M213.6,238.2c0-0.1,0-0.1-0.3-0.4c-1.8-1.8-2.8-4.9-2.8-8.6c0-3.5,0.9-6.6,3-8.7c0.2-0.2,0.2-0.2,0.2-0.3l-0.2-0.1
	c-0.2,0-1.7,1.3-2.6,3.1c-0.9,1.8-1.4,3.8-1.4,6c0,1.6,0.3,3.8,1.2,5.8c1.1,2.2,2.6,3.4,2.8,3.4L213.6,238.2z"/>
<path d="M223.2,226.3c-0.6,0.1-0.8,0.5-0.8,0.9c0,0.4,0.3,0.6,0.6,0.6c0.5,0,0.9-0.5,0.9-1c0-0.8-0.9-1.1-1.6-1.1
	c-1.1,0-1.7,1.1-1.9,1.4c-0.4-1.4-1.6-1.4-1.9-1.4c-1.9,0-2.8,2.4-2.8,2.8l0.2,0.2c0.1,0,0.2-0.1,0.2-0.2c0.6-2,1.8-2.4,2.4-2.4
	c0.8,0,1,0.8,1,1.2c0,0.4-0.1,0.8-0.3,1.7l-0.6,2.5c-0.3,1.1-0.8,2.1-1.8,2.1c-0.1,0-0.5,0-0.9-0.2c0.7-0.1,0.8-0.7,0.8-0.9
	c0-0.4-0.3-0.6-0.6-0.6c-0.4,0-0.9,0.4-0.9,1c0,0.8,0.9,1.1,1.6,1.1c0.9,0,1.5-0.7,1.9-1.4c0.3,1.1,1.2,1.4,1.9,1.4
	c1.9,0,2.8-2.4,2.8-2.8l-0.2-0.2c-0.2,0-0.2,0.1-0.2,0.2c-0.5,1.6-1.6,2.4-2.4,2.4c-0.6,0-1-0.5-1-1.2c0-0.4,0.1-0.7,0.4-1.9
	l0.6-2.5c0.3-1.1,0.9-1.9,1.7-1.9C222.3,226.1,222.9,226.1,223.2,226.3z"/>
<path d="M228,236.4c-0.4,0-1.3-0.2-1.5-1.5c-0.1-0.7-0.1-1.8-0.1-2.5c0-0.8,0-1.7,0.1-2.4c0.3-1.2,1.2-1.4,1.5-1.4
	c0.4,0,1.3,0.2,1.5,1.3c0.1,0.7,0.1,1.6,0.1,2.4c0,0.7,0,1.8-0.1,2.5C229.2,236.2,228.4,236.4,228,236.4z M230.7,232.6
	c0-1.3-0.1-2.1-0.5-2.9c-0.5-1.1-1.5-1.3-2.2-1.3c-1.5,0-2.1,1.1-2.3,1.5c-0.4,0.9-0.5,2.1-0.5,2.7c0,0.8,0,2,0.6,3
	c0.6,0.9,1.5,1.1,2.1,1.1c0.6,0,1.6-0.2,2.2-1.4C230.7,234.5,230.7,233.4,230.7,232.6z"/>
<path d="M244.8,235.8c-0.5,0.7-1.2,1.3-2.1,1.3c-0.2,0-1.1,0-1.4-0.9l0.2,0c0.5,0,0.9-0.5,0.9-0.9s-0.3-0.6-0.6-0.6
	c-0.3,0-0.9,0.2-0.9,1.1c0,0.9,0.8,1.6,1.8,1.6c1.8,0,3.7-1.7,4.2-3.7l1.8-7.1l0.1-0.3c0-0.3-0.2-0.5-0.5-0.5
	c-0.2,0-0.5,0.1-0.7,0.6l-1.4,5.4c-0.1,0.3-0.1,0.4-0.2,0.6c-0.4,0.5-1,1.1-1.8,1.1c-1,0-1.1-1-1.1-1.5c0-1,0.5-2.4,1-3.8
	c0.2-0.5,0.3-0.8,0.3-1.2c0-0.8-0.5-1.5-1.4-1.5c-1.7,0-2.4,2.6-2.4,2.8l0.2,0.2c0.2,0,0.2-0.1,0.3-0.3c0.4-1.5,1.1-2.3,1.8-2.3
	c0.2,0,0.5,0,0.5,0.6c0,0.5-0.2,1-0.5,1.7c-0.9,2.4-0.9,3-0.9,3.4c0,1.7,1.2,2.1,2.2,2.1c0.5,0,1.2-0.2,1.8-0.8l0,0
	C245.6,234.2,245.4,234.9,244.8,235.8z M235.5,233.8c0-1.1-0.3-1.8-1.1-1.8c-0.6,0-0.9,0.5-0.9,0.9s0.3,0.9,0.9,0.9
	c0.2,0,0.4-0.1,0.6-0.2l0.1,0l0,0.3c0,0.6-0.1,1.8-1.2,3c-0.2,0.2-0.2,0.3-0.2,0.3l0.2,0.2C234.1,237.3,235.5,235.9,235.5,233.8z"/>
<path d="M252,236.4c-0.4,0-1.3-0.2-1.5-1.5c-0.1-0.7-0.1-1.8-0.1-2.5c0-0.8,0-1.7,0.1-2.4c0.3-1.2,1.2-1.4,1.5-1.4
	c0.4,0,1.3,0.2,1.5,1.3c0.1,0.7,0.1,1.6,0.1,2.4c0,0.7,0,1.8-0.1,2.5C253.2,236.2,252.4,236.4,252,236.4z M254.7,232.6
	c0-1.3-0.1-2.1-0.5-2.9c-0.5-1.1-1.5-1.3-2.2-1.3c-1.5,0-2.1,1.1-2.3,1.5c-0.4,0.9-0.5,2.1-0.5,2.7c0,0.8,0,2,0.6,3
	c0.6,0.9,1.5,1.1,2.1,1.1c0.6,0,1.6-0.2,2.2-1.4C254.6,234.5,254.7,233.4,254.7,232.6z"/>
<path d="M261.1,229.2c0-1.4-0.2-3.7-1.2-5.8c-1.1-2.2-2.6-3.4-2.8-3.4l-0.2,0.1c0,0.1,0,0.1,0.3,0.4c1.8,1.8,2.8,4.9,2.8,8.6
	c0,3.5-0.9,6.6-3,8.7c-0.2,0.2-0.2,0.2-0.2,0.3l0.2,0.1c0.2,0,1.7-1.3,2.6-3.1C260.7,233.4,261.1,231.4,261.1,229.2z"/>
<path class="st1" d="M161.8,67.8c-1.1,0.2-1.6,1.1-1.6,1.8c0,0.9,0.7,1.1,1.2,1.1c1.1,0,1.8-0.9,1.8-1.9c0-1.5-1.7-2.2-3.2-2.2
	c-2.2,0-3.4,2.1-3.7,2.8c-0.8-2.7-3-2.8-3.7-2.8c-3.6,0-5.6,4.7-5.6,5.5l0.4,0.3c0.3,0,0.4-0.2,0.4-0.4c1.2-4,3.6-4.7,4.6-4.7
	c1.6,0,1.9,1.5,1.9,2.4c0,0.8-0.2,1.6-0.6,3.3l-1.2,4.9c-0.5,2.1-1.6,4.1-3.5,4.1c-0.2,0-1.1,0-1.8-0.5c1.3-0.3,1.6-1.3,1.6-1.8
	c0-0.7-0.5-1.1-1.2-1.1c-0.9,0-1.8,0.8-1.8,1.9c0,1.5,1.7,2.2,3.2,2.2c1.7,0,2.9-1.4,3.7-2.8c0.6,2.1,2.4,2.8,3.7,2.8
	c3.6,0,5.6-4.7,5.6-5.5l-0.4-0.3c-0.3,0-0.4,0.2-0.5,0.5c-1,3.1-3,4.6-4.6,4.6c-1.3,0-1.9-0.9-1.9-2.4c0-0.8,0.1-1.4,0.7-3.7
	l1.3-4.9c0.5-2.1,1.8-3.7,3.4-3.7C160,67.4,161,67.4,161.8,67.8z"/>
<line class="st2" x1="13" y1="264.6" x2="443" y2="264.6"/>
<polygon class="st1" points="443.1,275 442.9,254.2 461,264.5 "/>
<path d="M346.2,299.6c0.2-4.9,3-5.5,3.9-5.5c3.3,0,3.5,4.4,3.6,5.5H346.2z M354.8,300.2c0.7,0,0.7,0,0.7-0.6c0-3.2-1.7-6.1-5.5-6.1
	c-3.6,0-6.3,3.2-6.3,7.1c0,4.1,3.2,7.2,6.7,7.2c3.7,0,5.1-3.4,5.1-4l-0.3-0.3c-0.2,0-0.3,0.2-0.4,0.3c-0.8,2.6-2.9,3.3-4.2,3.3
	c-1.3,0-4.5-0.9-4.5-6.3v-0.6H354.8z M339.8,299.9c0-2.9,0-3.8-0.7-4.8c-0.9-1.2-2.4-1.4-3.4-1.4c-2.7,0-3.9,2-4.4,3h0v-10.9
	l-4.3,0.3v0.9c2.1,0,2.4,0.2,2.4,1.7v16.4c0,1.4-0.3,1.4-2.4,1.4v0.9c0.8-0.1,2.5-0.1,3.4-0.1c0.9,0,2.6,0,3.4,0.1v-0.9
	c-2,0-2.4,0-2.4-1.4v-5.8c0-3.3,2.2-5,4.1-5s2.4,1.6,2.4,3.5v7.3c0,1.4-0.3,1.4-2.4,1.4v0.9c0.8-0.1,2.5-0.1,3.4-0.1
	c0.9,0,2.6,0,3.4,0.1v-0.9c-1.6,0-2.3,0-2.4-0.9V299.9z M319.2,294.9h4.4V294h-4.4v-5.7h-0.7c0,2.9-1.2,5.9-4,6v0.6h2.7v8.7
	c0,3.5,2.3,4.2,4,4.2c2,0,3-1.9,3-4.2v-1.8h-0.7v1.7c0,2.2-0.9,3.6-2.1,3.6c-2.1,0-2.1-2.9-2.1-3.4V294.9z M296.1,307.1
	c-1.2,0-2.6-0.5-3.5-2c-0.8-1.4-0.9-3.2-0.9-4.6c0-1.2,0-3.1,1-4.5c0.9-1.3,2.2-1.8,3.3-1.8c1.2,0,2.5,0.6,3.4,1.8
	c1,1.4,1,3.4,1,4.6c0,1.1,0,3-0.8,4.5C298.7,306.5,297.3,307.1,296.1,307.1z M302.8,300.8c0-4-3.1-7.2-6.7-7.2
	c-3.7,0-6.7,3.3-6.7,7.2c0,4,3.1,7,6.7,7C299.7,307.8,302.8,304.7,302.8,300.8z M281.8,294.9h4.4V294h-4.4v-5.7h-0.7
	c0,2.9-1.2,5.9-4,6v0.6h2.7v8.7c0,3.5,2.3,4.2,4,4.2c2,0,3-1.9,3-4.2v-1.8H286v1.7c0,2.2-0.9,3.6-2.1,3.6c-2.1,0-2.1-2.9-2.1-3.4
	V294.9z M256.1,299.6c0.2-4.9,3-5.5,3.9-5.5c3.3,0,3.5,4.4,3.6,5.5H256.1z M264.7,300.2c0.7,0,0.7,0,0.7-0.6c0-3.2-1.7-6.1-5.5-6.1
	c-3.6,0-6.3,3.2-6.3,7.1c0,4.1,3.2,7.2,6.7,7.2c3.7,0,5.1-3.4,5.1-4l-0.3-0.3c-0.2,0-0.3,0.2-0.4,0.3c-0.8,2.6-2.9,3.3-4.2,3.3
	c-1.3,0-4.5-0.9-4.5-6.3v-0.6H264.7z M246,300.2c0-3,1.2-5.9,3.7-5.9c0.2,0,0.3,0,0.4,0c-0.2,0.1-0.7,0.3-0.7,1.2
	c0,0.9,0.7,1.2,1.2,1.2c0.6,0,1.2-0.4,1.2-1.2c0-0.9-0.8-1.8-2.2-1.8c-2.7,0-3.6,2.9-3.7,3.5h0v-3.5l-4.2,0.3v0.9
	c2.1,0,2.4,0.2,2.4,1.7v8.5c0,1.4-0.3,1.4-2.4,1.4v0.9c0.9-0.1,2.6-0.1,3.5-0.1c0.8,0,3.1,0,3.8,0.1v-0.9h-0.6
	c-2.3,0-2.3-0.3-2.3-1.5V300.2z M233.2,307.1c-1.2,0-2.6-0.5-3.5-2c-0.8-1.4-0.9-3.2-0.9-4.6c0-1.2,0-3.1,1-4.5
	c0.9-1.3,2.2-1.8,3.3-1.8c1.2,0,2.5,0.6,3.4,1.8c1,1.4,1,3.4,1,4.6c0,1.1,0,3-0.8,4.5C235.8,306.5,234.3,307.1,233.2,307.1z
	 M239.8,300.8c0-4-3.1-7.2-6.7-7.2c-3.7,0-6.7,3.3-6.7,7.2c0,4,3.1,7,6.7,7C236.8,307.8,239.8,304.7,239.8,300.8z M222.4,299.9
	c0-2.9,0-3.8-0.7-4.8c-0.9-1.2-2.4-1.4-3.4-1.4c-2.6,0-3.9,1.9-4.4,3.1c-0.4-2.4-2.1-3.1-4.1-3.1c-3,0-4.2,2.6-4.5,3.2h0v-3.2
	L201,294v0.9c2.1,0,2.4,0.2,2.4,1.7v8.5c0,1.4-0.3,1.4-2.4,1.4v0.9c0.8-0.1,2.5-0.1,3.4-0.1c0.9,0,2.6,0,3.4,0.1v-0.9
	c-2,0-2.4,0-2.4-1.4v-5.8c0-3.3,2.2-5,4.1-5c1.9,0,2.4,1.6,2.4,3.5v7.3c0,1.4-0.3,1.4-2.4,1.4v0.9c0.8-0.1,2.5-0.1,3.4-0.1
	c0.9,0,2.6,0,3.4,0.1v-0.9c-2,0-2.4,0-2.4-1.4v-5.8c0-3.3,2.2-5,4.1-5s2.4,1.6,2.4,3.5v7.3c0,1.4-0.3,1.4-2.4,1.4v0.9
	c0.8-0.1,2.5-0.1,3.4-0.1c0.9,0,2.6,0,3.4,0.1v-0.9c-1.6,0-2.3,0-2.4-0.9V299.9z M183.1,294.9h4.4V294h-4.4v-5.7h-0.7
	c0,2.9-1.2,5.9-4,6v0.6h2.7v8.7c0,3.5,2.3,4.2,4,4.2c2,0,3-1.9,3-4.2v-1.8h-0.7v1.7c0,2.2-0.9,3.6-2.1,3.6c-2.1,0-2.1-2.9-2.1-3.4
	V294.9z M175.6,299.9c0-2.9,0-3.8-0.7-4.8c-0.9-1.2-2.4-1.4-3.4-1.4c-3,0-4.2,2.6-4.5,3.2h0v-3.2l-4.2,0.3v0.9
	c2.1,0,2.4,0.2,2.4,1.7v8.5c0,1.4-0.3,1.4-2.4,1.4v0.9c0.8-0.1,2.5-0.1,3.4-0.1c0.9,0,2.6,0,3.4,0.1v-0.9c-2,0-2.4,0-2.4-1.4v-5.8
	c0-3.3,2.2-5,4.1-5c1.9,0,2.4,1.6,2.4,3.5v7.3c0,1.4-0.3,1.4-2.4,1.4v0.9c0.8-0.1,2.5-0.1,3.4-0.1c0.9,0,2.6,0,3.4,0.1v-0.9
	c-1.6,0-2.3,0-2.4-0.9V299.9z M154.3,294v0.9c2,0,2.3,0.2,2.3,1.7v8.5c0,1.4-0.3,1.4-2.4,1.4v0.9c0.9-0.1,2.4-0.1,3.3-0.1
	c0.3,0,2.2,0,3.2,0.1v-0.9c-2,0-2.2-0.2-2.2-1.4v-11.5L154.3,294z M158.6,288.2c0-0.8-0.7-1.5-1.5-1.5c-0.8,0-1.5,0.7-1.5,1.5
	c0,0.9,0.7,1.5,1.5,1.5C158.1,289.7,158.6,288.9,158.6,288.2z M145.6,307.1c-1.2,0-2.6-0.5-3.5-2c-0.8-1.4-0.9-3.2-0.9-4.6
	c0-1.2,0-3.1,1-4.5c0.9-1.3,2.2-1.8,3.3-1.8c1.2,0,2.5,0.6,3.4,1.8c1,1.4,1,3.4,1,4.6c0,1.1,0,3-0.8,4.5
	C148.2,306.5,146.7,307.1,145.6,307.1z M152.2,300.8c0-4-3.1-7.2-6.7-7.2c-3.7,0-6.7,3.3-6.7,7.2c0,4,3.1,7,6.7,7
	C149.2,307.8,152.2,304.7,152.2,300.8z M125.3,297.5c0-0.6,0-0.6,0.3-1.1c0.9-1.4,2.5-2,3.7-2c2.3,0,4.2,2.8,4.2,6.3
	c0,3.7-2.1,6.4-4.5,6.4c-1,0-1.9-0.4-2.5-1c-0.7-0.7-1.2-1.3-1.2-2.2V297.5z M127.7,312.6c-2,0-2.4,0-2.4-1.4v-5.4
	c0.6,0.8,1.8,2,3.8,2c3.6,0,6.7-3,6.7-7.1c0-4-2.9-7-6.3-7c-2.7,0-4.2,2-4.3,2.1v-2.1l-4.3,0.3v0.9c2.2,0,2.4,0.2,2.4,1.6v14.7
	c0,1.4-0.3,1.4-2.4,1.4v0.9c0.8-0.1,2.5-0.1,3.4-0.1c0.9,0,2.6,0,3.4,0.1V312.6z M108,294.3c0-0.6,0-0.7-0.3-0.7
	c-0.2,0-0.8,0.7-1.1,1c-1-0.8-1.9-1-2.9-1c-3.8,0-4.9,2.1-4.9,3.8c0,0.3,0,1.4,1.2,2.5c1,0.9,2.1,1.1,3.5,1.4
	c1.7,0.3,2.1,0.4,2.9,1.1c0.6,0.5,1,1.2,1,2c0,1.3-0.8,2.8-3.5,2.8c-2.1,0-3.6-1.2-4.2-4.3c-0.1-0.6-0.1-0.6-0.2-0.6l-0.3-0.1
	c-0.3,0-0.3,0.2-0.3,0.7v4.2c0,0.6,0,0.7,0.3,0.7c0.2,0,0.2,0,0.7-0.7c0.2-0.2,0.2-0.3,0.6-0.8c1.2,1.5,2.9,1.5,3.4,1.5
	c3.3,0,4.9-1.8,4.9-4.3c0-1.7-1-2.7-1.3-3c-1.1-1-2-1.2-4-1.5c-0.9-0.2-3.2-0.6-3.2-2.5c0-1,0.7-2.4,3.5-2.4c3.4,0,3.6,2.9,3.7,3.9
	c0,0.2,0.2,0.2,0.3,0.2c0.3,0,0.3-0.2,0.3-0.7V294.3z M91.1,300.2c0-3,1.2-5.9,3.7-5.9c0.2,0,0.3,0,0.4,0c-0.2,0.1-0.7,0.3-0.7,1.2
	c0,0.9,0.7,1.2,1.2,1.2c0.6,0,1.2-0.4,1.2-1.2c0-0.9-0.8-1.8-2.2-1.8c-2.7,0-3.6,2.9-3.7,3.5h0v-3.5l-4.2,0.3v0.9
	c2.1,0,2.4,0.2,2.4,1.7v8.5c0,1.4-0.3,1.4-2.4,1.4v0.9c0.9-0.1,2.6-0.1,3.5-0.1c0.8,0,3.1,0,3.8,0.1v-0.9h-0.6
	c-2.3,0-2.3-0.3-2.3-1.5V300.2z M78.2,307.1c-1.2,0-2.6-0.5-3.5-2c-0.8-1.4-0.9-3.2-0.9-4.6c0-1.2,0-3.1,1-4.5
	c0.9-1.3,2.2-1.8,3.3-1.8c1.2,0,2.5,0.6,3.4,1.8c1,1.4,1,3.4,1,4.6c0,1.1,0,3-0.8,4.5C80.8,306.5,79.4,307.1,78.2,307.1z
	 M84.9,300.8c0-4-3.1-7.2-6.7-7.2c-3.7,0-6.7,3.3-6.7,7.2c0,4,3.1,7,6.7,7C81.8,307.8,84.9,304.7,84.9,300.8z M63.9,294.9h4.4V294
	h-4.4v-5.7h-0.7c0,2.9-1.2,5.9-4,6v0.6h2.7v8.7c0,3.5,2.3,4.2,4,4.2c2,0,3-1.9,3-4.2v-1.8h-0.7v1.7c0,2.2-0.9,3.6-2.1,3.6
	c-2.1,0-2.1-2.9-2.1-3.4V294.9z M56.3,295.9c-0.4,0-1.5,0-1.5,1.3c0,0.8,0.5,1.3,1.3,1.3c0.7,0,1.3-0.4,1.3-1.3
	c0-2.1-2.2-3.6-4.7-3.6c-3.7,0-6.6,3.2-6.6,7.2c0,4,3,7.1,6.5,7.1c4.1,0,5.1-3.7,5.1-4c0-0.3-0.2-0.3-0.3-0.3
	c-0.3,0-0.3,0.1-0.4,0.5c-0.7,2.2-2.4,3.2-4.1,3.2c-1.9,0-4.4-1.7-4.4-6.4c0-5.2,2.7-6.5,4.2-6.5C53.9,294.2,55.6,294.7,56.3,295.9z
	 M34.7,299.6c0.2-4.9,3-5.5,3.9-5.5c3.3,0,3.5,4.4,3.6,5.5H34.7z M43.4,300.2c0.7,0,0.7,0,0.7-0.6c0-3.2-1.7-6.1-5.5-6.1
	c-3.6,0-6.3,3.2-6.3,7.1c0,4.1,3.2,7.2,6.7,7.2c3.7,0,5.1-3.4,5.1-4l-0.3-0.3c-0.2,0-0.3,0.2-0.4,0.3c-0.8,2.6-2.9,3.3-4.2,3.3
	c-1.3,0-4.5-0.9-4.5-6.3v-0.6H43.4z M30.1,289.2c0.3-0.8,0.8-2.2,3.2-2.2v-0.9c-1.6,0.1-1.7,0.1-2.9,0.1c-0.8,0-2.4,0-3.2-0.1v0.9
	c1.6,0,2.1,0.9,2.1,1.5c0,0.2,0,0.2-0.2,0.7l-5.8,15.4l-6.2-16.2C17,288.1,17,288,17,288c0-0.9,1.6-0.9,2.3-0.9v-0.9
	c-0.7,0.1-3.1,0.1-4,0.1c-0.9,0-3,0-3.7-0.1v0.9c1.9,0,2.4,0,2.9,1.2l7.3,19.2c0.2,0.4,0.2,0.6,0.7,0.6c0.4,0,0.5-0.1,0.7-0.6
	L30.1,289.2z"/>
<path class="st3" d="M403.4,294.9h4.4V294h-4.4v-5.7h-0.7c0,2.9-1.2,5.9-4,6v0.6h2.7v8.7c0,3.5,2.3,4.2,4,4.2c2,0,3-1.9,3-4.2v-1.8
	h-0.7v1.7c0,2.2-0.9,3.6-2.1,3.6c-2.1,0-2.1-2.9-2.1-3.4V294.9z M394.2,294.9h3.5V294h-3.6v-3.7c0-2.8,1.4-4.2,2.7-4.2
	c0.2,0,0.7,0.1,1.1,0.2c-0.1,0-0.9,0.3-0.9,1.2c0,0.7,0.5,1.2,1.2,1.2c0.7,0,1.2-0.5,1.2-1.2c0-1.2-1.1-2.1-2.6-2.1
	c-2.2,0-4.7,1.7-4.7,4.9v3.7h-2.4v0.9h2.4v10.2c0,1.4-0.3,1.4-2.4,1.4v0.9c0.9-0.1,2.6-0.1,3.5-0.1c0.8,0,3.1,0,3.8,0.1v-0.9h-0.6
	c-2.3,0-2.3-0.3-2.3-1.5V294.9z M378.5,299.6c0.2-4.9,3-5.5,3.9-5.5c3.3,0,3.5,4.4,3.6,5.5H378.5z M387.1,300.2c0.7,0,0.7,0,0.7-0.6
	c0-3.2-1.7-6.1-5.5-6.1c-3.6,0-6.3,3.2-6.3,7.1c0,4.1,3.2,7.2,6.7,7.2c3.7,0,5.1-3.4,5.1-4l-0.3-0.3c-0.2,0-0.3,0.2-0.4,0.3
	c-0.8,2.6-2.9,3.3-4.2,3.3c-1.3,0-4.5-0.9-4.5-6.3v-0.6H387.1z M372,285.8l-4.3,0.3v0.9c2.1,0,2.4,0.2,2.4,1.7v16.4
	c0,1.4-0.3,1.4-2.4,1.4v0.9c0.9-0.1,2.4-0.1,3.3-0.1s2.5,0,3.4,0.1v-0.9c-2,0-2.4,0-2.4-1.4V285.8z"/>
<path d="M390.3,326.4h4.4v-0.9h-4.4v-5.7h-0.7c0,2.9-1.2,5.9-4,6v0.6h2.7v8.7c0,3.5,2.3,4.2,4,4.2c2,0,3-1.9,3-4.2v-1.8h-0.7v1.7
	c0,2.2-0.9,3.6-2.1,3.6c-2.1,0-2.1-2.9-2.1-3.4V326.4z M382.8,331.3c0-2.9,0-3.8-0.7-4.8c-0.9-1.2-2.4-1.4-3.4-1.4
	c-2.7,0-3.9,2-4.4,3h0v-10.9l-4.3,0.3v0.9c2.1,0,2.4,0.2,2.4,1.7v16.4c0,1.4-0.3,1.4-2.4,1.4v0.9c0.8-0.1,2.5-0.1,3.4-0.1
	c0.9,0,2.6,0,3.4,0.1V338c-2,0-2.4,0-2.4-1.4v-5.8c0-3.3,2.2-5,4.1-5c1.9,0,2.4,1.6,2.4,3.5v7.3c0,1.4-0.3,1.4-2.4,1.4v0.9
	c0.8-0.1,2.5-0.1,3.4-0.1c0.9,0,2.6,0,3.4,0.1V338c-1.6,0-2.3,0-2.4-0.9V331.3z M361.2,344.7c-3,0-5.3-1.5-5.3-3.3
	c0-0.2,0.1-1.5,1.2-2.3c0.7-0.4,1-0.4,3.2-0.4c2.6,0,6.1,0,6.1,2.7C366.5,343.2,364.1,344.7,361.2,344.7z M360.4,333.6
	c-2.7,0-2.7-3.2-2.7-3.9c0-0.6,0-1.8,0.5-2.7c0.6-0.9,1.5-1.2,2.2-1.2c2.7,0,2.7,3.2,2.7,3.9c0,0.6,0,1.8-0.5,2.7
	C362,333.3,361,333.6,360.4,333.6z M357.3,333.3c1.5,1,2.7,1,3.1,1c2.8,0,4.9-2.1,4.9-4.5c0-0.8-0.2-2-1.2-3
	c1.2-1.2,2.7-1.2,2.8-1.2l0.4,0.1c-0.3,0.1-0.5,0.4-0.5,0.8c0,0.4,0.3,0.8,0.8,0.8c0.2,0,0.8-0.2,0.8-0.8c0-0.6-0.4-1.4-1.5-1.4
	c-1.6,0-2.8,1-3.3,1.5c-0.9-0.7-2-1.1-3.2-1.1c-2.8,0-4.9,2.1-4.9,4.5c0,1.8,1.1,2.9,1.4,3.2c-0.4,0.5-0.9,1.4-0.9,2.6
	c0,1.8,1.1,2.6,1.3,2.7c-1.4,0.4-2.9,1.5-2.9,3.2c0,2.2,2.9,3.9,6.8,3.9c3.7,0,6.8-1.7,6.8-4c0-0.8-0.2-2.6-2.1-3.6
	c-1.6-0.8-3.2-0.8-5.8-0.8c-1.9,0-2.1,0-2.7-0.6c-0.3-0.3-0.6-0.9-0.6-1.6C356.8,334.2,357,333.7,357.3,333.3z M346.2,325.5v0.9
	c2,0,2.3,0.2,2.3,1.7v8.5c0,1.4-0.3,1.4-2.4,1.4v0.9c0.9-0.1,2.4-0.1,3.3-0.1c0.3,0,2.2,0,3.2,0.1V338c-2,0-2.2-0.2-2.2-1.4v-11.5
	L346.2,325.5z M350.5,319.7c0-0.8-0.7-1.5-1.5-1.5c-0.8,0-1.5,0.7-1.5,1.5c0,0.9,0.7,1.5,1.5,1.5
	C349.9,321.2,350.5,320.4,350.5,319.7z M338.4,331.7c0-3,1.2-5.9,3.7-5.9c0.2,0,0.3,0,0.4,0c-0.2,0.1-0.7,0.3-0.7,1.2
	c0,0.9,0.7,1.2,1.2,1.2c0.6,0,1.2-0.4,1.2-1.2c0-0.9-0.8-1.8-2.2-1.8c-2.7,0-3.6,2.9-3.7,3.5h0v-3.5l-4.2,0.3v0.9
	c2.1,0,2.4,0.2,2.4,1.7v8.5c0,1.4-0.3,1.4-2.4,1.4v0.9c0.9-0.1,2.6-0.1,3.5-0.1c0.8,0,3.1,0,3.8,0.1V338h-0.6
	c-2.3,0-2.3-0.3-2.3-1.5V331.7z M315.3,338.6c-1.2,0-2.6-0.5-3.5-2c-0.8-1.4-0.9-3.2-0.9-4.6c0-1.2,0-3.1,1-4.5
	c0.9-1.3,2.2-1.8,3.3-1.8c1.2,0,2.5,0.6,3.4,1.8c1,1.4,1,3.4,1,4.6c0,1.1,0,3-0.8,4.5C317.9,338,316.5,338.6,315.3,338.6z
	 M322,332.2c0-4-3.1-7.2-6.7-7.2c-3.7,0-6.7,3.3-6.7,7.2c0,4,3.1,7,6.7,7C318.9,339.2,322,336.2,322,332.2z M301,326.4h4.4v-0.9H301
	v-5.7h-0.7c0,2.9-1.2,5.9-4,6v0.6h2.7v8.7c0,3.5,2.3,4.2,4,4.2c2,0,3-1.9,3-4.2v-1.8h-0.7v1.7c0,2.2-0.9,3.6-2.1,3.6
	c-2.1,0-2.1-2.9-2.1-3.4V326.4z M278.8,326.4h4.4v-0.9h-4.4v-5.7h-0.7c0,2.9-1.2,5.9-4,6v0.6h2.7v8.7c0,3.5,2.3,4.2,4,4.2
	c2,0,3-1.9,3-4.2v-1.8h-0.7v1.7c0,2.2-0.9,3.6-2.1,3.6c-2.1,0-2.1-2.9-2.1-3.4V326.4z M269.6,326.4h3.5v-0.9h-3.6v-3.7
	c0-2.8,1.4-4.2,2.7-4.2c0.2,0,0.7,0.1,1.1,0.2c-0.1,0-0.9,0.3-0.9,1.2c0,0.7,0.5,1.2,1.2,1.2c0.7,0,1.2-0.5,1.2-1.2
	c0-1.2-1.1-2.1-2.6-2.1c-2.2,0-4.7,1.7-4.7,4.9v3.7h-2.4v0.9h2.4v10.2c0,1.4-0.3,1.4-2.4,1.4v0.9c0.9-0.1,2.6-0.1,3.5-0.1
	c0.8,0,3.1,0,3.8,0.1V338H272c-2.3,0-2.3-0.3-2.3-1.5V326.4z M254,331.1c0.2-4.9,3-5.5,3.9-5.5c3.3,0,3.5,4.4,3.6,5.5H254z
	 M262.6,331.7c0.7,0,0.7,0,0.7-0.6c0-3.2-1.7-6.1-5.5-6.1c-3.6,0-6.3,3.2-6.3,7.1c0,4.1,3.2,7.2,6.7,7.2c3.7,0,5.1-3.4,5.1-4
	l-0.3-0.3c-0.2,0-0.3,0.2-0.4,0.3c-0.8,2.6-2.9,3.3-4.2,3.3c-1.3,0-4.5-0.9-4.5-6.3v-0.6H262.6z M247.5,317.2l-4.3,0.3v0.9
	c2.1,0,2.4,0.2,2.4,1.7v16.4c0,1.4-0.3,1.4-2.4,1.4v0.9c0.9-0.1,2.4-0.1,3.3-0.1s2.5,0,3.4,0.1V338c-2,0-2.4,0-2.4-1.4V317.2z
	 M228.8,331.3c0-2.9,0-3.8-0.7-4.8c-0.9-1.2-2.4-1.4-3.4-1.4c-2.6,0-3.9,1.9-4.4,3.1c-0.4-2.4-2.1-3.1-4.1-3.1c-3,0-4.2,2.6-4.5,3.2
	h0v-3.2l-4.2,0.3v0.9c2.1,0,2.4,0.2,2.4,1.7v8.5c0,1.4-0.3,1.4-2.4,1.4v0.9c0.8-0.1,2.5-0.1,3.4-0.1c0.9,0,2.6,0,3.4,0.1V338
	c-2,0-2.4,0-2.4-1.4v-5.8c0-3.3,2.2-5,4.1-5s2.4,1.6,2.4,3.5v7.3c0,1.4-0.3,1.4-2.4,1.4v0.9c0.8-0.1,2.5-0.1,3.4-0.1
	c0.9,0,2.6,0,3.4,0.1V338c-2,0-2.4,0-2.4-1.4v-5.8c0-3.3,2.2-5,4.1-5c1.9,0,2.4,1.6,2.4,3.5v7.3c0,1.4-0.3,1.4-2.4,1.4v0.9
	c0.8-0.1,2.5-0.1,3.4-0.1c0.9,0,2.6,0,3.4,0.1V338c-1.6,0-2.3,0-2.4-0.9V331.3z M198.8,338.6c-1.2,0-2.6-0.5-3.5-2
	c-0.8-1.4-0.9-3.2-0.9-4.6c0-1.2,0-3.1,1-4.5c0.9-1.3,2.2-1.8,3.3-1.8c1.2,0,2.5,0.6,3.4,1.8c1,1.4,1,3.4,1,4.6c0,1.1,0,3-0.8,4.5
	C201.4,338,200,338.6,198.8,338.6z M205.5,332.2c0-4-3.1-7.2-6.7-7.2c-3.7,0-6.7,3.3-6.7,7.2c0,4,3.1,7,6.7,7
	C202.4,339.2,205.5,336.2,205.5,332.2z M184.4,331.7c0-3,1.2-5.9,3.7-5.9c0.2,0,0.3,0,0.4,0c-0.2,0.1-0.7,0.3-0.7,1.2
	c0,0.9,0.7,1.2,1.2,1.2c0.6,0,1.2-0.4,1.2-1.2c0-0.9-0.8-1.8-2.2-1.8c-2.7,0-3.6,2.9-3.7,3.5h0v-3.5l-4.2,0.3v0.9
	c2.1,0,2.4,0.2,2.4,1.7v8.5c0,1.4-0.3,1.4-2.4,1.4v0.9c0.9-0.1,2.6-0.1,3.5-0.1c0.8,0,3.1,0,3.8,0.1V338h-0.6
	c-2.3,0-2.3-0.3-2.3-1.5V331.7z M175.2,326.4h3.5v-0.9h-3.6v-3.7c0-2.8,1.4-4.2,2.7-4.2c0.2,0,0.7,0.1,1.1,0.2
	c-0.1,0-0.9,0.3-0.9,1.2c0,0.7,0.5,1.2,1.2,1.2c0.7,0,1.2-0.5,1.2-1.2c0-1.2-1.1-2.1-2.6-2.1c-2.2,0-4.7,1.7-4.7,4.9v3.7h-2.4v0.9
	h2.4v10.2c0,1.4-0.3,1.4-2.4,1.4v0.9c0.9-0.1,2.6-0.1,3.5-0.1c0.8,0,3.1,0,3.8,0.1V338h-0.6c-2.3,0-2.3-0.3-2.3-1.5V326.4z
	 M156.5,331.3c0-2.9,0-3.8-0.7-4.8c-0.9-1.2-2.4-1.4-3.4-1.4c-3,0-4.2,2.6-4.5,3.2h0v-3.2l-4.2,0.3v0.9c2.1,0,2.4,0.2,2.4,1.7v8.5
	c0,1.4-0.3,1.4-2.4,1.4v0.9c0.8-0.1,2.5-0.1,3.4-0.1c0.9,0,2.6,0,3.4,0.1V338c-2,0-2.4,0-2.4-1.4v-5.8c0-3.3,2.2-5,4.1-5
	s2.4,1.6,2.4,3.5v7.3c0,1.4-0.3,1.4-2.4,1.4v0.9c0.8-0.1,2.5-0.1,3.4-0.1c0.9,0,2.6,0,3.4,0.1V338c-1.6,0-2.3,0-2.4-0.9V331.3z
	 M137.4,334.5c0,3.1-2.3,4.1-3.6,4.1c-1.5,0-2.8-1.1-2.8-2.6c0-4.1,5.3-4.5,6.4-4.6V334.5z M139.4,330.6c0-1.7,0-2.9-1.4-4.2
	c-1.1-1-2.5-1.4-3.9-1.4c-2.6,0-4.5,1.7-4.5,3.7c0,0.9,0.6,1.3,1.3,1.3c0.7,0,1.3-0.5,1.3-1.3c0-1.3-1.1-1.3-1.6-1.3
	c0.7-1.3,2.2-1.9,3.5-1.9c1.4,0,3.3,1.2,3.3,4v1.2c-6.3,0.1-8.7,2.7-8.7,5.1c0,2.5,2.9,3.2,4.8,3.2c2.1,0,3.5-1.2,4.1-2.7
	c0.1,1.5,1.1,2.6,2.4,2.6c0.7,0,2.5-0.4,2.5-2.9v-1.7h-0.7v1.7c0,1.8-0.7,2-1.2,2c-1.2,0-1.2-1.7-1.2-2.1V330.6z M115.6,329
	c0-0.6,0-0.6,0.3-1.1c0.9-1.4,2.5-2,3.7-2c2.3,0,4.2,2.8,4.2,6.3c0,3.7-2.1,6.4-4.5,6.4c-1,0-1.9-0.4-2.5-1
	c-0.7-0.7-1.2-1.3-1.2-2.2V329z M118,344.1c-2,0-2.4,0-2.4-1.4v-5.4c0.6,0.8,1.8,2,3.8,2c3.6,0,6.7-3,6.7-7.1c0-4-2.9-7-6.3-7
	c-2.7,0-4.2,2-4.3,2.1v-2.1l-4.3,0.3v0.9c2.2,0,2.4,0.2,2.4,1.6v14.7c0,1.4-0.3,1.4-2.4,1.4v0.9c0.8-0.1,2.5-0.1,3.4-0.1
	c0.9,0,2.6,0,3.4,0.1V344.1z M92.6,325.5v0.9c2.1,0,2.4,0.2,2.4,1.7v5.6c0,2.7-1.4,4.9-3.7,4.9c-2.6,0-2.7-1.5-2.7-3.1v-10.3
	l-4.4,0.3v0.9c2.4,0,2.4,0.1,2.4,2.9v4.7c0,1.9,0,3.1,0.9,4.1c0.7,0.8,2,1.2,3.6,1.2c0.5,0,1.5,0,2.6-0.9c0.9-0.7,1.4-1.9,1.4-1.9
	v2.8l4.3-0.3V338c-2.1,0-2.4-0.2-2.4-1.7v-11.1L92.6,325.5z M75.4,338.6c-1.2,0-2.6-0.5-3.5-2c-0.8-1.4-0.9-3.2-0.9-4.6
	c0-1.2,0-3.1,1-4.5c0.9-1.3,2.2-1.8,3.3-1.8c1.2,0,2.5,0.6,3.4,1.8c1,1.4,1,3.4,1,4.6c0,1.1,0,3-0.8,4.5
	C78.1,338,76.6,338.6,75.4,338.6z M82.1,332.2c0-4-3.1-7.2-6.7-7.2c-3.7,0-6.7,3.3-6.7,7.2c0,4,3.1,7,6.7,7
	C79.1,339.2,82.1,336.2,82.1,332.2z M65.2,328.5c0.8-2.1,2.3-2.1,2.9-2.1v-0.9c-0.9,0.1-1.3,0.1-2.3,0.1c-0.7,0-0.8,0-2.5-0.1v0.9
	c1.2,0.1,1.4,0.8,1.4,1.3c0,0.3-0.1,0.4-0.2,0.8l-3.2,7.9l-3.5-8.5c-0.2-0.4-0.2-0.6-0.2-0.7c0-0.8,1.1-0.8,1.7-0.8v-0.9
	c-0.8,0.1-2.3,0.1-3.2,0.1c-1.2,0-1.2,0-3-0.1v0.9c1.8,0,2.1,0.2,2.5,1.1l4.7,11.4c-1.4,3.3-1.4,3.4-1.5,3.6
	c-0.5,0.9-1.4,2.1-2.8,2.1c-1,0-1.6-0.6-1.6-0.6s1.1-0.1,1.1-1.2c0-0.7-0.6-1.2-1.2-1.2c-0.5,0-1.2,0.3-1.2,1.2
	c0,1.2,1.2,2.3,2.8,2.3c1.7,0,3-1.5,3.8-3.5L65.2,328.5z M40.4,325.7c0-0.6,0-0.7-0.3-0.7c-0.2,0-0.8,0.7-1.1,1c-1-0.8-1.9-1-2.9-1
	c-3.8,0-4.9,2.1-4.9,3.8c0,0.3,0,1.4,1.2,2.5c1,0.9,2.1,1.1,3.5,1.4c1.7,0.3,2.1,0.4,2.9,1.1c0.6,0.5,1,1.2,1,2
	c0,1.3-0.8,2.8-3.5,2.8c-2.1,0-3.6-1.2-4.2-4.3c-0.1-0.6-0.1-0.6-0.2-0.6l-0.3-0.1c-0.3,0-0.3,0.2-0.3,0.7v4.2c0,0.6,0,0.7,0.3,0.7
	c0.2,0,0.2,0,0.7-0.7c0.2-0.2,0.2-0.3,0.6-0.8c1.2,1.5,2.9,1.5,3.4,1.5c3.3,0,4.9-1.8,4.9-4.3c0-1.7-1-2.7-1.3-3c-1.1-1-2-1.2-4-1.5
	c-0.9-0.2-3.2-0.6-3.2-2.5c0-1,0.7-2.4,3.5-2.4c3.4,0,3.6,2.9,3.7,3.9c0,0.2,0.2,0.2,0.3,0.2c0.3,0,0.3-0.2,0.3-0.7V325.7z
	 M24.9,334.5c0,3.1-2.3,4.1-3.6,4.1c-1.5,0-2.8-1.1-2.8-2.6c0-4.1,5.3-4.5,6.4-4.6V334.5z M26.9,330.6c0-1.7,0-2.9-1.4-4.2
	c-1.1-1-2.5-1.4-3.9-1.4c-2.6,0-4.5,1.7-4.5,3.7c0,0.9,0.6,1.3,1.3,1.3c0.7,0,1.3-0.5,1.3-1.3c0-1.3-1.1-1.3-1.6-1.3
	c0.7-1.3,2.2-1.9,3.5-1.9c1.4,0,3.3,1.2,3.3,4v1.2c-6.3,0.1-8.7,2.7-8.7,5.1c0,2.5,2.9,3.2,4.8,3.2c2.1,0,3.5-1.2,4.1-2.7
	c0.1,1.5,1.1,2.6,2.4,2.6c0.7,0,2.5-0.4,2.5-2.9v-1.7h-0.7v1.7c0,1.8-0.7,2-1.2,2c-1.2,0-1.2-1.7-1.2-2.1V330.6z"/>
<rect x="0.4" y="1.1" class="st6" width="476.2" height="346.3"/>
</svg>
