<?xml version="1.0" encoding="UTF-8" standalone="no"?>
<svg width="528" height="528" version="1.1" viewBox="0 0 139.69999 139.69999" id="svg920" xmlns="http://www.w3.org/2000/svg" xmlns:svg="http://www.w3.org/2000/svg">
  <defs id="defs924">
    <rect x="0" y="0" width="255.99999" height="511.99999" id="rect11869"/>
  </defs>
  <g transform="translate(-248,-8)" id="g918">
    <rect x="248" y="8" width="139.69998" height="139.69998" fill="#ffffff" id="rect898" style="stroke-width:0.853081"/>
    <g id="g104902" transform="translate(2.1166665,2.1166661)">
      <path d="M 349.59999,8 V 75.733327 M 248,143.46665 V 8 L 383.46665,7.999999 V 143.46665 Z M 366.53332,24.933332 H 383.46665 M 366.53332,8 V 41.866663 M 349.59999,41.866663 H 383.46665 M 315.73333,8 V 143.46665 M 315.73333,75.733327 H 383.46665" fill="none" stroke="#000000" id="path900" style="stroke-width:0.817827;stroke-miterlimit:4;stroke-dasharray:none"/>
      <g font-family="'DejaVu Sans'" font-size="8px" text-anchor="middle" id="g916" transform="matrix(0.81780296,0,0,0.81780296,43.550261,-0.1770278)">
        <text id="text914-3" x="5.0843935" y="-5.421134" style="font-size:7.76471px"><tspan x="405.08438" y="43.578854" id="tspan902-6" style="font-size:7.76471px">1/64</tspan></text>
        <text id="text914-3-2" x="-15.450869" y="-15.774077" style="font-size:7.76471px"><tspan x="384.5491" y="33.225914" id="tspan902-6-9" style="baseline-shift:baseline">1/32</tspan></text>
        <text id="text914-3-2-7" x="-5.2420173" y="25.63769" style="font-size:7.76471px"><tspan x="394.75797" y="74.63768" id="tspan902-6-9-0" style="font-size:7.76471px;baseline-shift:baseline">1/16</tspan></text>
        <text id="text914-3-2-7-6" x="-46.632931" y="4.9318089" style="font-size:7.76471px"><tspan x="353.36707" y="53.931797" id="tspan902-6-9-0-0" style="baseline-shift:baseline">1/8</tspan></text>
        <text id="text914-3-2-7-6-6" x="-25.97444" y="87.704132" style="font-size:7.76471px"><tspan x="374.02554" y="136.70415" id="tspan902-6-9-0-0-1" style="baseline-shift:baseline">1/4</tspan></text>
        <text id="text914-3-2-7-6-6-9" x="-108.62735" y="46.343563" style="font-size:7.76471px"><tspan x="291.37262" y="95.343559" id="tspan902-6-9-0-0-1-2" style="font-size:7.76471px">1/2</tspan></text>
        <text xml:space="preserve" transform="matrix(0.32352942,0,0,0.32352942,249.99878,9.998775)" id="text11867" style="font-size:16.16px;line-height:125%;font-family:sans-serif;text-align:center;letter-spacing:0px;word-spacing:0px;white-space:pre;shape-inside:url(#rect11869);fill:none;stroke:#000000;stroke-width:1px;stroke-linecap:butt;stroke-linejoin:miter;stroke-opacity:1"/>
      </g>
    </g>
  </g>
</svg>